<svg width="1920" height="174" viewBox="0 0 1920 174" fill="none" xmlns="http://www.w3.org/2000/svg">
<g filter="url(#filter0_d_0_1)">
<rect x="-51" width="2107" height="166" fill="#BF0A30"/>
<rect x="-50.5" y="0.5" width="2106" height="165" stroke="black" stroke-opacity="0.06"/>
</g>
<rect x="11" y="22" width="1889" height="24" fill="#D9D9D9"/>
<rect x="11" y="71" width="1889" height="24" fill="#D9D9D9"/>
<rect x="11" y="119" width="1889" height="24" fill="#D9D9D9"/>
<g filter="url(#filter1_d_0_1)">
<rect x="704" width="499" height="166" fill="#002868"/>
</g>
<path d="M778 28L779.796 33.5279H785.608L780.906 36.9443L782.702 42.4721L778 39.0557L773.298 42.4721L775.094 36.9443L770.392 33.5279H776.204L778 28Z" fill="white"/>
<path d="M810 28L811.796 33.5279H817.608L812.906 36.9443L814.702 42.4721L810 39.0557L805.298 42.4721L807.094 36.9443L802.392 33.5279H808.204L810 28Z" fill="white"/>
<path d="M842 28L843.796 33.5279H849.608L844.906 36.9443L846.702 42.4721L842 39.0557L837.298 42.4721L839.094 36.9443L834.392 33.5279H840.204L842 28Z" fill="white"/>
<path d="M874 28L875.796 33.5279H881.608L876.906 36.9443L878.702 42.4721L874 39.0557L869.298 42.4721L871.094 36.9443L866.392 33.5279H872.204L874 28Z" fill="white"/>
<path d="M906 28L907.796 33.5279H913.608L908.906 36.9443L910.702 42.4721L906 39.0557L901.298 42.4721L903.094 36.9443L898.392 33.5279H904.204L906 28Z" fill="white"/>
<path d="M938 28L939.796 33.5279H945.608L940.906 36.9443L942.702 42.4721L938 39.0557L933.298 42.4721L935.094 36.9443L930.392 33.5279H936.204L938 28Z" fill="white"/>
<path d="M970 28L971.796 33.5279H977.608L972.906 36.9443L974.702 42.4721L970 39.0557L965.298 42.4721L967.094 36.9443L962.392 33.5279H968.204L970 28Z" fill="white"/>
<path d="M1002 28L1003.8 33.5279H1009.61L1004.91 36.9443L1006.7 42.4721L1002 39.0557L997.298 42.4721L999.094 36.9443L994.392 33.5279H1000.2L1002 28Z" fill="white"/>
<path d="M1034 28L1035.8 33.5279H1041.61L1036.91 36.9443L1038.7 42.4721L1034 39.0557L1029.3 42.4721L1031.09 36.9443L1026.39 33.5279H1032.2L1034 28Z" fill="white"/>
<path d="M1066 28L1067.8 33.5279H1073.61L1068.91 36.9443L1070.7 42.4721L1066 39.0557L1061.3 42.4721L1063.09 36.9443L1058.39 33.5279H1064.2L1066 28Z" fill="white"/>
<path d="M1098 28L1099.8 33.5279H1105.61L1100.91 36.9443L1102.7 42.4721L1098 39.0557L1093.3 42.4721L1095.09 36.9443L1090.39 33.5279H1096.2L1098 28Z" fill="white"/>
<path d="M1130 28L1131.8 33.5279H1137.61L1132.91 36.9443L1134.7 42.4721L1130 39.0557L1125.3 42.4721L1127.09 36.9443L1122.39 33.5279H1128.2L1130 28Z" fill="white"/>
<path d="M778 74L779.796 79.5279H785.608L780.906 82.9443L782.702 88.4721L778 85.0557L773.298 88.4721L775.094 82.9443L770.392 79.5279H776.204L778 74Z" fill="white"/>
<path d="M810 74L811.796 79.5279H817.608L812.906 82.9443L814.702 88.4721L810 85.0557L805.298 88.4721L807.094 82.9443L802.392 79.5279H808.204L810 74Z" fill="white"/>
<path d="M842 74L843.796 79.5279H849.608L844.906 82.9443L846.702 88.4721L842 85.0557L837.298 88.4721L839.094 82.9443L834.392 79.5279H840.204L842 74Z" fill="white"/>
<path d="M874 74L875.796 79.5279H881.608L876.906 82.9443L878.702 88.4721L874 85.0557L869.298 88.4721L871.094 82.9443L866.392 79.5279H872.204L874 74Z" fill="white"/>
<path d="M906 74L907.796 79.5279H913.608L908.906 82.9443L910.702 88.4721L906 85.0557L901.298 88.4721L903.094 82.9443L898.392 79.5279H904.204L906 74Z" fill="white"/>
<path d="M938 74L939.796 79.5279H945.608L940.906 82.9443L942.702 88.4721L938 85.0557L933.298 88.4721L935.094 82.9443L930.392 79.5279H936.204L938 74Z" fill="white"/>
<path d="M970 74L971.796 79.5279H977.608L972.906 82.9443L974.702 88.4721L970 85.0557L965.298 88.4721L967.094 82.9443L962.392 79.5279H968.204L970 74Z" fill="white"/>
<path d="M1002 74L1003.8 79.5279H1009.61L1004.91 82.9443L1006.7 88.4721L1002 85.0557L997.298 88.4721L999.094 82.9443L994.392 79.5279H1000.2L1002 74Z" fill="white"/>
<path d="M1034 74L1035.8 79.5279H1041.61L1036.91 82.9443L1038.7 88.4721L1034 85.0557L1029.3 88.4721L1031.09 82.9443L1026.39 79.5279H1032.2L1034 74Z" fill="white"/>
<path d="M1066 74L1067.8 79.5279H1073.61L1068.91 82.9443L1070.7 88.4721L1066 85.0557L1061.3 88.4721L1063.09 82.9443L1058.39 79.5279H1064.2L1066 74Z" fill="white"/>
<path d="M1098 74L1099.8 79.5279H1105.61L1100.91 82.9443L1102.7 88.4721L1098 85.0557L1093.3 88.4721L1095.09 82.9443L1090.39 79.5279H1096.2L1098 74Z" fill="white"/>
<path d="M1130 74L1131.8 79.5279H1137.61L1132.91 82.9443L1134.7 88.4721L1130 85.0557L1125.3 88.4721L1127.09 82.9443L1122.39 79.5279H1128.2L1130 74Z" fill="white"/>
<path d="M778 120L779.796 125.528H785.608L780.906 128.944L782.702 134.472L778 131.056L773.298 134.472L775.094 128.944L770.392 125.528H776.204L778 120Z" fill="white"/>
<path d="M810 120L811.796 125.528H817.608L812.906 128.944L814.702 134.472L810 131.056L805.298 134.472L807.094 128.944L802.392 125.528H808.204L810 120Z" fill="white"/>
<path d="M842 120L843.796 125.528H849.608L844.906 128.944L846.702 134.472L842 131.056L837.298 134.472L839.094 128.944L834.392 125.528H840.204L842 120Z" fill="white"/>
<path d="M874 120L875.796 125.528H881.608L876.906 128.944L878.702 134.472L874 131.056L869.298 134.472L871.094 128.944L866.392 125.528H872.204L874 120Z" fill="white"/>
<path d="M906 120L907.796 125.528H913.608L908.906 128.944L910.702 134.472L906 131.056L901.298 134.472L903.094 128.944L898.392 125.528H904.204L906 120Z" fill="white"/>
<path d="M938 120L939.796 125.528H945.608L940.906 128.944L942.702 134.472L938 131.056L933.298 134.472L935.094 128.944L930.392 125.528H936.204L938 120Z" fill="white"/>
<path d="M970 120L971.796 125.528H977.608L972.906 128.944L974.702 134.472L970 131.056L965.298 134.472L967.094 128.944L962.392 125.528H968.204L970 120Z" fill="white"/>
<path d="M1002 120L1003.8 125.528H1009.61L1004.91 128.944L1006.7 134.472L1002 131.056L997.298 134.472L999.094 128.944L994.392 125.528H1000.2L1002 120Z" fill="white"/>
<path d="M1034 120L1035.8 125.528H1041.61L1036.91 128.944L1038.7 134.472L1034 131.056L1029.3 134.472L1031.09 128.944L1026.39 125.528H1032.2L1034 120Z" fill="white"/>
<path d="M1066 120L1067.8 125.528H1073.61L1068.91 128.944L1070.7 134.472L1066 131.056L1061.3 134.472L1063.09 128.944L1058.39 125.528H1064.2L1066 120Z" fill="white"/>
<path d="M1098 120L1099.8 125.528H1105.61L1100.91 128.944L1102.7 134.472L1098 131.056L1093.3 134.472L1095.09 128.944L1090.39 125.528H1096.2L1098 120Z" fill="white"/>
<path d="M1130 120L1131.8 125.528H1137.61L1132.91 128.944L1134.7 134.472L1130 131.056L1125.3 134.472L1127.09 128.944L1122.39 125.528H1128.2L1130 120Z" fill="white"/>
<path d="M794 51L795.796 56.5279H801.608L796.906 59.9443L798.702 65.4721L794 62.0557L789.298 65.4721L791.094 59.9443L786.392 56.5279H792.204L794 51Z" fill="white"/>
<path d="M826 51L827.796 56.5279H833.608L828.906 59.9443L830.702 65.4721L826 62.0557L821.298 65.4721L823.094 59.9443L818.392 56.5279H824.204L826 51Z" fill="white"/>
<path d="M858 51L859.796 56.5279H865.608L860.906 59.9443L862.702 65.4721L858 62.0557L853.298 65.4721L855.094 59.9443L850.392 56.5279H856.204L858 51Z" fill="white"/>
<path d="M890 51L891.796 56.5279H897.608L892.906 59.9443L894.702 65.4721L890 62.0557L885.298 65.4721L887.094 59.9443L882.392 56.5279H888.204L890 51Z" fill="white"/>
<path d="M922 51L923.796 56.5279H929.608L924.906 59.9443L926.702 65.4721L922 62.0557L917.298 65.4721L919.094 59.9443L914.392 56.5279H920.204L922 51Z" fill="white"/>
<path d="M954 51L955.796 56.5279H961.608L956.906 59.9443L958.702 65.4721L954 62.0557L949.298 65.4721L951.094 59.9443L946.392 56.5279H952.204L954 51Z" fill="white"/>
<path d="M986 51L987.796 56.5279H993.608L988.906 59.9443L990.702 65.4721L986 62.0557L981.298 65.4721L983.094 59.9443L978.392 56.5279H984.204L986 51Z" fill="white"/>
<path d="M1018 51L1019.8 56.5279H1025.61L1020.91 59.9443L1022.7 65.4721L1018 62.0557L1013.3 65.4721L1015.09 59.9443L1010.39 56.5279H1016.2L1018 51Z" fill="white"/>
<path d="M1050 51L1051.8 56.5279H1057.61L1052.91 59.9443L1054.7 65.4721L1050 62.0557L1045.3 65.4721L1047.09 59.9443L1042.39 56.5279H1048.2L1050 51Z" fill="white"/>
<path d="M1082 51L1083.8 56.5279H1089.61L1084.91 59.9443L1086.7 65.4721L1082 62.0557L1077.3 65.4721L1079.09 59.9443L1074.39 56.5279H1080.2L1082 51Z" fill="white"/>
<path d="M1114 51L1115.8 56.5279H1121.61L1116.91 59.9443L1118.7 65.4721L1114 62.0557L1109.3 65.4721L1111.09 59.9443L1106.39 56.5279H1112.2L1114 51Z" fill="white"/>
<path d="M794 97L795.796 102.528H801.608L796.906 105.944L798.702 111.472L794 108.056L789.298 111.472L791.094 105.944L786.392 102.528H792.204L794 97Z" fill="white"/>
<path d="M826 97L827.796 102.528H833.608L828.906 105.944L830.702 111.472L826 108.056L821.298 111.472L823.094 105.944L818.392 102.528H824.204L826 97Z" fill="white"/>
<path d="M858 97L859.796 102.528H865.608L860.906 105.944L862.702 111.472L858 108.056L853.298 111.472L855.094 105.944L850.392 102.528H856.204L858 97Z" fill="white"/>
<path d="M890 97L891.796 102.528H897.608L892.906 105.944L894.702 111.472L890 108.056L885.298 111.472L887.094 105.944L882.392 102.528H888.204L890 97Z" fill="white"/>
<path d="M922 97L923.796 102.528H929.608L924.906 105.944L926.702 111.472L922 108.056L917.298 111.472L919.094 105.944L914.392 102.528H920.204L922 97Z" fill="white"/>
<path d="M954 97L955.796 102.528H961.608L956.906 105.944L958.702 111.472L954 108.056L949.298 111.472L951.094 105.944L946.392 102.528H952.204L954 97Z" fill="white"/>
<path d="M986 97L987.796 102.528H993.608L988.906 105.944L990.702 111.472L986 108.056L981.298 111.472L983.094 105.944L978.392 102.528H984.204L986 97Z" fill="white"/>
<path d="M1018 97L1019.8 102.528H1025.61L1020.91 105.944L1022.7 111.472L1018 108.056L1013.3 111.472L1015.09 105.944L1010.39 102.528H1016.2L1018 97Z" fill="white"/>
<path d="M1050 97L1051.8 102.528H1057.61L1052.91 105.944L1054.7 111.472L1050 108.056L1045.3 111.472L1047.09 105.944L1042.39 102.528H1048.2L1050 97Z" fill="white"/>
<path d="M1082 97L1083.8 102.528H1089.61L1084.91 105.944L1086.7 111.472L1082 108.056L1077.3 111.472L1079.09 105.944L1074.39 102.528H1080.2L1082 97Z" fill="white"/>
<path d="M1114 97L1115.8 102.528H1121.61L1116.91 105.944L1118.7 111.472L1114 108.056L1109.3 111.472L1111.09 105.944L1106.39 102.528H1112.2L1114 97Z" fill="white"/>
<defs>
<filter id="filter0_d_0_1" x="-55" y="0" width="2115" height="174" filterUnits="userSpaceOnUse" color-interpolation-filters="sRGB">
<feFlood flood-opacity="0" result="BackgroundImageFix"/>
<feColorMatrix in="SourceAlpha" type="matrix" values="0 0 0 0 0 0 0 0 0 0 0 0 0 0 0 0 0 0 127 0" result="hardAlpha"/>
<feOffset dy="4"/>
<feGaussianBlur stdDeviation="2"/>
<feComposite in2="hardAlpha" operator="out"/>
<feColorMatrix type="matrix" values="0 0 0 0 0 0 0 0 0 0 0 0 0 0 0 0 0 0 0.25 0"/>
<feBlend mode="normal" in2="BackgroundImageFix" result="effect1_dropShadow_0_1"/>
<feBlend mode="normal" in="SourceGraphic" in2="effect1_dropShadow_0_1" result="shape"/>
</filter>
<filter id="filter1_d_0_1" x="700" y="0" width="507" height="174" filterUnits="userSpaceOnUse" color-interpolation-filters="sRGB">
<feFlood flood-opacity="0" result="BackgroundImageFix"/>
<feColorMatrix in="SourceAlpha" type="matrix" values="0 0 0 0 0 0 0 0 0 0 0 0 0 0 0 0 0 0 127 0" result="hardAlpha"/>
<feOffset dy="4"/>
<feGaussianBlur stdDeviation="2"/>
<feComposite in2="hardAlpha" operator="out"/>
<feColorMatrix type="matrix" values="0 0 0 0 0 0 0 0 0 0 0 0 0 0 0 0 0 0 0.25 0"/>
<feBlend mode="normal" in2="BackgroundImageFix" result="effect1_dropShadow_0_1"/>
<feBlend mode="normal" in="SourceGraphic" in2="effect1_dropShadow_0_1" result="shape"/>
</filter>
</defs>
</svg>
