<svg width="400" height="162" viewBox="0 0 400 162" fill="none" xmlns="http://www.w3.org/2000/svg">
<rect y="0.379761" width="400" height="161.244" fill="#002868"/>
<path d="M21 24L22.7961 29.5279H28.6085L23.9062 32.9443L25.7023 38.4721L21 35.0557L16.2977 38.4721L18.0938 32.9443L13.3915 29.5279H19.2039L21 24Z" fill="white"/>
<path d="M53 24L54.7961 29.5279H60.6085L55.9062 32.9443L57.7023 38.4721L53 35.0557L48.2977 38.4721L50.0938 32.9443L45.3915 29.5279H51.2039L53 24Z" fill="white"/>
<path d="M85 24L86.7961 29.5279H92.6085L87.9062 32.9443L89.7023 38.4721L85 35.0557L80.2977 38.4721L82.0938 32.9443L77.3915 29.5279H83.2039L85 24Z" fill="white"/>
<path d="M117 24L118.796 29.5279H124.608L119.906 32.9443L121.702 38.4721L117 35.0557L112.298 38.4721L114.094 32.9443L109.392 29.5279H115.204L117 24Z" fill="white"/>
<path d="M149 24L150.796 29.5279H156.608L151.906 32.9443L153.702 38.4721L149 35.0557L144.298 38.4721L146.094 32.9443L141.392 29.5279H147.204L149 24Z" fill="white"/>
<path d="M181 24L182.796 29.5279H188.608L183.906 32.9443L185.702 38.4721L181 35.0557L176.298 38.4721L178.094 32.9443L173.392 29.5279H179.204L181 24Z" fill="white"/>
<path d="M213 24L214.796 29.5279H220.608L215.906 32.9443L217.702 38.4721L213 35.0557L208.298 38.4721L210.094 32.9443L205.392 29.5279H211.204L213 24Z" fill="white"/>
<path d="M245 24L246.796 29.5279H252.608L247.906 32.9443L249.702 38.4721L245 35.0557L240.298 38.4721L242.094 32.9443L237.392 29.5279H243.204L245 24Z" fill="white"/>
<path d="M277 24L278.796 29.5279H284.608L279.906 32.9443L281.702 38.4721L277 35.0557L272.298 38.4721L274.094 32.9443L269.392 29.5279H275.204L277 24Z" fill="white"/>
<path d="M309 24L310.796 29.5279H316.608L311.906 32.9443L313.702 38.4721L309 35.0557L304.298 38.4721L306.094 32.9443L301.392 29.5279H307.204L309 24Z" fill="white"/>
<path d="M341 24L342.796 29.5279H348.608L343.906 32.9443L345.702 38.4721L341 35.0557L336.298 38.4721L338.094 32.9443L333.392 29.5279H339.204L341 24Z" fill="white"/>
<path d="M373 24L374.796 29.5279H380.608L375.906 32.9443L377.702 38.4721L373 35.0557L368.298 38.4721L370.094 32.9443L365.392 29.5279H371.204L373 24Z" fill="white"/>
<path d="M21 70L22.7961 75.5279H28.6085L23.9062 78.9443L25.7023 84.4721L21 81.0557L16.2977 84.4721L18.0938 78.9443L13.3915 75.5279H19.2039L21 70Z" fill="white"/>
<path d="M53 70L54.7961 75.5279H60.6085L55.9062 78.9443L57.7023 84.4721L53 81.0557L48.2977 84.4721L50.0938 78.9443L45.3915 75.5279H51.2039L53 70Z" fill="white"/>
<path d="M85 70L86.7961 75.5279H92.6085L87.9062 78.9443L89.7023 84.4721L85 81.0557L80.2977 84.4721L82.0938 78.9443L77.3915 75.5279H83.2039L85 70Z" fill="white"/>
<path d="M117 70L118.796 75.5279H124.608L119.906 78.9443L121.702 84.4721L117 81.0557L112.298 84.4721L114.094 78.9443L109.392 75.5279H115.204L117 70Z" fill="white"/>
<path d="M149 70L150.796 75.5279H156.608L151.906 78.9443L153.702 84.4721L149 81.0557L144.298 84.4721L146.094 78.9443L141.392 75.5279H147.204L149 70Z" fill="white"/>
<path d="M181 70L182.796 75.5279H188.608L183.906 78.9443L185.702 84.4721L181 81.0557L176.298 84.4721L178.094 78.9443L173.392 75.5279H179.204L181 70Z" fill="white"/>
<path d="M213 70L214.796 75.5279H220.608L215.906 78.9443L217.702 84.4721L213 81.0557L208.298 84.4721L210.094 78.9443L205.392 75.5279H211.204L213 70Z" fill="white"/>
<path d="M245 70L246.796 75.5279H252.608L247.906 78.9443L249.702 84.4721L245 81.0557L240.298 84.4721L242.094 78.9443L237.392 75.5279H243.204L245 70Z" fill="white"/>
<path d="M277 70L278.796 75.5279H284.608L279.906 78.9443L281.702 84.4721L277 81.0557L272.298 84.4721L274.094 78.9443L269.392 75.5279H275.204L277 70Z" fill="white"/>
<path d="M309 70L310.796 75.5279H316.608L311.906 78.9443L313.702 84.4721L309 81.0557L304.298 84.4721L306.094 78.9443L301.392 75.5279H307.204L309 70Z" fill="white"/>
<path d="M341 70L342.796 75.5279H348.608L343.906 78.9443L345.702 84.4721L341 81.0557L336.298 84.4721L338.094 78.9443L333.392 75.5279H339.204L341 70Z" fill="white"/>
<path d="M373 70L374.796 75.5279H380.608L375.906 78.9443L377.702 84.4721L373 81.0557L368.298 84.4721L370.094 78.9443L365.392 75.5279H371.204L373 70Z" fill="white"/>
<path d="M21 116L22.7961 121.528H28.6085L23.9062 124.944L25.7023 130.472L21 127.056L16.2977 130.472L18.0938 124.944L13.3915 121.528H19.2039L21 116Z" fill="white"/>
<path d="M53 116L54.7961 121.528H60.6085L55.9062 124.944L57.7023 130.472L53 127.056L48.2977 130.472L50.0938 124.944L45.3915 121.528H51.2039L53 116Z" fill="white"/>
<path d="M85 116L86.7961 121.528H92.6085L87.9062 124.944L89.7023 130.472L85 127.056L80.2977 130.472L82.0938 124.944L77.3915 121.528H83.2039L85 116Z" fill="white"/>
<path d="M117 116L118.796 121.528H124.608L119.906 124.944L121.702 130.472L117 127.056L112.298 130.472L114.094 124.944L109.392 121.528H115.204L117 116Z" fill="white"/>
<path d="M149 116L150.796 121.528H156.608L151.906 124.944L153.702 130.472L149 127.056L144.298 130.472L146.094 124.944L141.392 121.528H147.204L149 116Z" fill="white"/>
<path d="M181 116L182.796 121.528H188.608L183.906 124.944L185.702 130.472L181 127.056L176.298 130.472L178.094 124.944L173.392 121.528H179.204L181 116Z" fill="white"/>
<path d="M213 116L214.796 121.528H220.608L215.906 124.944L217.702 130.472L213 127.056L208.298 130.472L210.094 124.944L205.392 121.528H211.204L213 116Z" fill="white"/>
<path d="M245 116L246.796 121.528H252.608L247.906 124.944L249.702 130.472L245 127.056L240.298 130.472L242.094 124.944L237.392 121.528H243.204L245 116Z" fill="white"/>
<path d="M277 116L278.796 121.528H284.608L279.906 124.944L281.702 130.472L277 127.056L272.298 130.472L274.094 124.944L269.392 121.528H275.204L277 116Z" fill="white"/>
<path d="M309 116L310.796 121.528H316.608L311.906 124.944L313.702 130.472L309 127.056L304.298 130.472L306.094 124.944L301.392 121.528H307.204L309 116Z" fill="white"/>
<path d="M341 116L342.796 121.528H348.608L343.906 124.944L345.702 130.472L341 127.056L336.298 130.472L338.094 124.944L333.392 121.528H339.204L341 116Z" fill="white"/>
<path d="M373 116L374.796 121.528H380.608L375.906 124.944L377.702 130.472L373 127.056L368.298 130.472L370.094 124.944L365.392 121.528H371.204L373 116Z" fill="white"/>
<path d="M37 47L38.7961 52.5279H44.6085L39.9062 55.9443L41.7023 61.4721L37 58.0557L32.2977 61.4721L34.0938 55.9443L29.3915 52.5279H35.2039L37 47Z" fill="white"/>
<path d="M69 47L70.7961 52.5279H76.6085L71.9062 55.9443L73.7023 61.4721L69 58.0557L64.2977 61.4721L66.0938 55.9443L61.3915 52.5279H67.2039L69 47Z" fill="white"/>
<path d="M101 47L102.796 52.5279H108.608L103.906 55.9443L105.702 61.4721L101 58.0557L96.2977 61.4721L98.0938 55.9443L93.3915 52.5279H99.2039L101 47Z" fill="white"/>
<path d="M133 47L134.796 52.5279H140.608L135.906 55.9443L137.702 61.4721L133 58.0557L128.298 61.4721L130.094 55.9443L125.392 52.5279H131.204L133 47Z" fill="white"/>
<path d="M165 47L166.796 52.5279H172.608L167.906 55.9443L169.702 61.4721L165 58.0557L160.298 61.4721L162.094 55.9443L157.392 52.5279H163.204L165 47Z" fill="white"/>
<path d="M197 47L198.796 52.5279H204.608L199.906 55.9443L201.702 61.4721L197 58.0557L192.298 61.4721L194.094 55.9443L189.392 52.5279H195.204L197 47Z" fill="white"/>
<path d="M229 47L230.796 52.5279H236.608L231.906 55.9443L233.702 61.4721L229 58.0557L224.298 61.4721L226.094 55.9443L221.392 52.5279H227.204L229 47Z" fill="white"/>
<path d="M261 47L262.796 52.5279H268.608L263.906 55.9443L265.702 61.4721L261 58.0557L256.298 61.4721L258.094 55.9443L253.392 52.5279H259.204L261 47Z" fill="white"/>
<path d="M293 47L294.796 52.5279H300.608L295.906 55.9443L297.702 61.4721L293 58.0557L288.298 61.4721L290.094 55.9443L285.392 52.5279H291.204L293 47Z" fill="white"/>
<path d="M325 47L326.796 52.5279H332.608L327.906 55.9443L329.702 61.4721L325 58.0557L320.298 61.4721L322.094 55.9443L317.392 52.5279H323.204L325 47Z" fill="white"/>
<path d="M357 47L358.796 52.5279H364.608L359.906 55.9443L361.702 61.4721L357 58.0557L352.298 61.4721L354.094 55.9443L349.392 52.5279H355.204L357 47Z" fill="white"/>
<path d="M37 93L38.7961 98.5279H44.6085L39.9062 101.944L41.7023 107.472L37 104.056L32.2977 107.472L34.0938 101.944L29.3915 98.5279H35.2039L37 93Z" fill="white"/>
<path d="M69 93L70.7961 98.5279H76.6085L71.9062 101.944L73.7023 107.472L69 104.056L64.2977 107.472L66.0938 101.944L61.3915 98.5279H67.2039L69 93Z" fill="white"/>
<path d="M101 93L102.796 98.5279H108.608L103.906 101.944L105.702 107.472L101 104.056L96.2977 107.472L98.0938 101.944L93.3915 98.5279H99.2039L101 93Z" fill="white"/>
<path d="M133 93L134.796 98.5279H140.608L135.906 101.944L137.702 107.472L133 104.056L128.298 107.472L130.094 101.944L125.392 98.5279H131.204L133 93Z" fill="white"/>
<path d="M165 93L166.796 98.5279H172.608L167.906 101.944L169.702 107.472L165 104.056L160.298 107.472L162.094 101.944L157.392 98.5279H163.204L165 93Z" fill="white"/>
<path d="M197 93L198.796 98.5279H204.608L199.906 101.944L201.702 107.472L197 104.056L192.298 107.472L194.094 101.944L189.392 98.5279H195.204L197 93Z" fill="white"/>
<path d="M229 93L230.796 98.5279H236.608L231.906 101.944L233.702 107.472L229 104.056L224.298 107.472L226.094 101.944L221.392 98.5279H227.204L229 93Z" fill="white"/>
<path d="M261 93L262.796 98.5279H268.608L263.906 101.944L265.702 107.472L261 104.056L256.298 107.472L258.094 101.944L253.392 98.5279H259.204L261 93Z" fill="white"/>
<path d="M293 93L294.796 98.5279H300.608L295.906 101.944L297.702 107.472L293 104.056L288.298 107.472L290.094 101.944L285.392 98.5279H291.204L293 93Z" fill="white"/>
<path d="M325 93L326.796 98.5279H332.608L327.906 101.944L329.702 107.472L325 104.056L320.298 107.472L322.094 101.944L317.392 98.5279H323.204L325 93Z" fill="white"/>
<path d="M357 93L358.796 98.5279H364.608L359.906 101.944L361.702 107.472L357 104.056L352.298 107.472L354.094 101.944L349.392 98.5279H355.204L357 93Z" fill="white"/>
</svg>
