<svg width="400" height="112" viewBox="0 0 400 112" fill="none" xmlns="http://www.w3.org/2000/svg">
<rect width="400" height="112" fill="#002868"/>
<path d="M24 16L25.7961 21.5279H31.6085L26.9062 24.9443L28.7023 30.4721L24 27.0557L19.2977 30.4721L21.0938 24.9443L16.3915 21.5279H22.2039L24 16Z" fill="white"/>
<path d="M56 16L57.7961 21.5279H63.6085L58.9062 24.9443L60.7023 30.4721L56 27.0557L51.2977 30.4721L53.0938 24.9443L48.3915 21.5279H54.2039L56 16Z" fill="white"/>
<path d="M88 16L89.7961 21.5279H95.6085L90.9062 24.9443L92.7023 30.4721L88 27.0557L83.2977 30.4721L85.0938 24.9443L80.3915 21.5279H86.2039L88 16Z" fill="white"/>
<path d="M120 16L121.796 21.5279H127.608L122.906 24.9443L124.702 30.4721L120 27.0557L115.298 30.4721L117.094 24.9443L112.392 21.5279H118.204L120 16Z" fill="white"/>
<path d="M152 16L153.796 21.5279H159.608L154.906 24.9443L156.702 30.4721L152 27.0557L147.298 30.4721L149.094 24.9443L144.392 21.5279H150.204L152 16Z" fill="white"/>
<path d="M184 16L185.796 21.5279H191.608L186.906 24.9443L188.702 30.4721L184 27.0557L179.298 30.4721L181.094 24.9443L176.392 21.5279H182.204L184 16Z" fill="white"/>
<path d="M216 16L217.796 21.5279H223.608L218.906 24.9443L220.702 30.4721L216 27.0557L211.298 30.4721L213.094 24.9443L208.392 21.5279H214.204L216 16Z" fill="white"/>
<path d="M248 16L249.796 21.5279H255.608L250.906 24.9443L252.702 30.4721L248 27.0557L243.298 30.4721L245.094 24.9443L240.392 21.5279H246.204L248 16Z" fill="white"/>
<path d="M280 16L281.796 21.5279H287.608L282.906 24.9443L284.702 30.4721L280 27.0557L275.298 30.4721L277.094 24.9443L272.392 21.5279H278.204L280 16Z" fill="white"/>
<path d="M312 16L313.796 21.5279H319.608L314.906 24.9443L316.702 30.4721L312 27.0557L307.298 30.4721L309.094 24.9443L304.392 21.5279H310.204L312 16Z" fill="white"/>
<path d="M344 16L345.796 21.5279H351.608L346.906 24.9443L348.702 30.4721L344 27.0557L339.298 30.4721L341.094 24.9443L336.392 21.5279H342.204L344 16Z" fill="white"/>
<path d="M376 16L377.796 21.5279H383.608L378.906 24.9443L380.702 30.4721L376 27.0557L371.298 30.4721L373.094 24.9443L368.392 21.5279H374.204L376 16Z" fill="white"/>
<path d="M24 48L25.7961 53.5279H31.6085L26.9062 56.9443L28.7023 62.4721L24 59.0557L19.2977 62.4721L21.0938 56.9443L16.3915 53.5279H22.2039L24 48Z" fill="white"/>
<path d="M56 48L57.7961 53.5279H63.6085L58.9062 56.9443L60.7023 62.4721L56 59.0557L51.2977 62.4721L53.0938 56.9443L48.3915 53.5279H54.2039L56 48Z" fill="white"/>
<path d="M88 48L89.7961 53.5279H95.6085L90.9062 56.9443L92.7023 62.4721L88 59.0557L83.2977 62.4721L85.0938 56.9443L80.3915 53.5279H86.2039L88 48Z" fill="white"/>
<path d="M120 48L121.796 53.5279H127.608L122.906 56.9443L124.702 62.4721L120 59.0557L115.298 62.4721L117.094 56.9443L112.392 53.5279H118.204L120 48Z" fill="white"/>
<path d="M152 48L153.796 53.5279H159.608L154.906 56.9443L156.702 62.4721L152 59.0557L147.298 62.4721L149.094 56.9443L144.392 53.5279H150.204L152 48Z" fill="white"/>
<path d="M184 48L185.796 53.5279H191.608L186.906 56.9443L188.702 62.4721L184 59.0557L179.298 62.4721L181.094 56.9443L176.392 53.5279H182.204L184 48Z" fill="white"/>
<path d="M216 48L217.796 53.5279H223.608L218.906 56.9443L220.702 62.4721L216 59.0557L211.298 62.4721L213.094 56.9443L208.392 53.5279H214.204L216 48Z" fill="white"/>
<path d="M248 48L249.796 53.5279H255.608L250.906 56.9443L252.702 62.4721L248 59.0557L243.298 62.4721L245.094 56.9443L240.392 53.5279H246.204L248 48Z" fill="white"/>
<path d="M280 48L281.796 53.5279H287.608L282.906 56.9443L284.702 62.4721L280 59.0557L275.298 62.4721L277.094 56.9443L272.392 53.5279H278.204L280 48Z" fill="white"/>
<path d="M312 48L313.796 53.5279H319.608L314.906 56.9443L316.702 62.4721L312 59.0557L307.298 62.4721L309.094 56.9443L304.392 53.5279H310.204L312 48Z" fill="white"/>
<path d="M344 48L345.796 53.5279H351.608L346.906 56.9443L348.702 62.4721L344 59.0557L339.298 62.4721L341.094 56.9443L336.392 53.5279H342.204L344 48Z" fill="white"/>
<path d="M376 48L377.796 53.5279H383.608L378.906 56.9443L380.702 62.4721L376 59.0557L371.298 62.4721L373.094 56.9443L368.392 53.5279H374.204L376 48Z" fill="white"/>
<path d="M24 80L25.7961 85.5279H31.6085L26.9062 88.9443L28.7023 94.4721L24 91.0557L19.2977 94.4721L21.0938 88.9443L16.3915 85.5279H22.2039L24 80Z" fill="white"/>
<path d="M56 80L57.7961 85.5279H63.6085L58.9062 88.9443L60.7023 94.4721L56 91.0557L51.2977 94.4721L53.0938 88.9443L48.3915 85.5279H54.2039L56 80Z" fill="white"/>
<path d="M88 80L89.7961 85.5279H95.6085L90.9062 88.9443L92.7023 94.4721L88 91.0557L83.2977 94.4721L85.0938 88.9443L80.3915 85.5279H86.2039L88 80Z" fill="white"/>
<path d="M120 80L121.796 85.5279H127.608L122.906 88.9443L124.702 94.4721L120 91.0557L115.298 94.4721L117.094 88.9443L112.392 85.5279H118.204L120 80Z" fill="white"/>
<path d="M152 80L153.796 85.5279H159.608L154.906 88.9443L156.702 94.4721L152 91.0557L147.298 94.4721L149.094 88.9443L144.392 85.5279H150.204L152 80Z" fill="white"/>
<path d="M184 80L185.796 85.5279H191.608L186.906 88.9443L188.702 94.4721L184 91.0557L179.298 94.4721L181.094 88.9443L176.392 85.5279H182.204L184 80Z" fill="white"/>
<path d="M216 80L217.796 85.5279H223.608L218.906 88.9443L220.702 94.4721L216 91.0557L211.298 94.4721L213.094 88.9443L208.392 85.5279H214.204L216 80Z" fill="white"/>
<path d="M248 80L249.796 85.5279H255.608L250.906 88.9443L252.702 94.4721L248 91.0557L243.298 94.4721L245.094 88.9443L240.392 85.5279H246.204L248 80Z" fill="white"/>
<path d="M280 80L281.796 85.5279H287.608L282.906 88.9443L284.702 94.4721L280 91.0557L275.298 94.4721L277.094 88.9443L272.392 85.5279H278.204L280 80Z" fill="white"/>
<path d="M312 80L313.796 85.5279H319.608L314.906 88.9443L316.702 94.4721L312 91.0557L307.298 94.4721L309.094 88.9443L304.392 85.5279H310.204L312 80Z" fill="white"/>
<path d="M344 80L345.796 85.5279H351.608L346.906 88.9443L348.702 94.4721L344 91.0557L339.298 94.4721L341.094 88.9443L336.392 85.5279H342.204L344 80Z" fill="white"/>
<path d="M376 80L377.796 85.5279H383.608L378.906 88.9443L380.702 94.4721L376 91.0557L371.298 94.4721L373.094 88.9443L368.392 85.5279H374.204L376 80Z" fill="white"/>
</svg>
