<svg width="60" height="60" viewBox="0 0 60 60" fill="none" xmlns="http://www.w3.org/2000/svg">
<circle cx="30" cy="30" r="29" stroke="white" stroke-width="2"/>
<path fill-rule="evenodd" clip-rule="evenodd" d="M33.5557 16.9701V16.6154C33.5557 15.4983 34.6757 14.7004 35.7068 15.1082C41.7335 17.3957 46.0001 23.1941 46.0001 30.0032C46.0001 36.8124 41.7335 42.6108 35.7068 44.8982C34.6757 45.2883 33.5557 44.5081 33.5557 43.391V43.0363C33.5557 42.3625 33.9823 41.7774 34.6223 41.5291C39.209 39.7027 42.4446 35.2165 42.4446 30.0032C42.4446 24.79 39.209 20.3037 34.6223 18.4773C34.0001 18.2291 33.5557 17.6439 33.5557 16.9701ZM14 26.4568V33.5496C14 34.5249 14.8 35.3229 15.7778 35.3229H21.1111L26.96 41.1567C28.08 42.2739 30 41.4759 30 39.8977V20.0909C30 18.5128 28.08 17.7148 26.96 18.8319L21.1111 24.6836H15.7778C14.8 24.6836 14 25.4815 14 26.4568ZM38.0001 30.0032C38.0001 26.8646 36.1868 24.1693 33.5557 22.8572V37.1316C36.1868 35.8371 38.0001 33.1418 38.0001 30.0032Z" fill="white"/>
</svg>
