<svg width="78" height="63" viewBox="0 0 78 63" fill="none" xmlns="http://www.w3.org/2000/svg">
<path d="M44.2702 60.3019L42.4119 59.8192C42.069 60.1847 41.7753 60.9969 41.5309 62.2559L18.418 56.252L32.5831 1.72176L34.4415 2.20449C34.707 1.81885 34.9805 1.08402 35.2621 0L58.375 6.00397L44.2702 60.3019ZM43.4255 58.7807L56.9118 6.86371L36.1218 1.46316L22.6355 53.3801L43.4255 58.7807ZM41.878 56.147L25.3854 51.8627L37.7855 4.12702L54.2782 8.41126L41.878 56.147ZM51.771 15.1989L52.7365 11.4823L49.3683 10.6073L48.4028 14.324C48.9247 14.5422 49.418 14.7117 49.8825 14.8324L50.3471 14.953C50.8117 15.0737 51.2864 15.1557 51.771 15.1989ZM48.6315 8.43223C48.1282 8.30149 47.6903 7.9191 47.3177 7.28507C46.6349 7.68628 46.0612 7.82655 45.5966 7.70587C46.0496 8.03018 46.1117 8.66622 45.7829 9.61399C46.0167 9.50941 46.3272 9.50741 46.7143 9.60798C47.2563 9.74877 47.5653 9.91169 47.6412 10.0967L47.6865 9.9225C47.8474 9.30305 48.1624 8.8063 48.6315 8.43223ZM43.5211 7.10472C43.2501 7.03432 42.9512 6.8327 42.6244 6.49984C42.2976 6.16698 42.0618 5.96107 41.917 5.88213C41.3402 6.35223 40.8684 6.49828 40.5013 6.32028C40.7949 7.09912 40.8133 7.74446 40.5563 8.25631C40.674 8.12156 40.9264 8.10447 41.3135 8.20504C41.662 8.29555 41.9903 8.46349 42.2985 8.70887L42.3589 8.47657C42.4997 7.93456 42.8871 7.47728 43.5211 7.10472ZM44.8786 11.4248C44.3365 11.284 43.9388 10.7467 43.6855 9.81304C43.4858 10.4224 42.8719 10.7176 41.8437 10.6984C42.2866 11.0614 42.4578 11.4365 42.3573 11.8237C42.2884 11.9298 42.1456 12.1613 41.9289 12.5183C42.3462 12.5027 42.7871 12.5553 43.2517 12.676C43.5614 12.7564 43.7837 12.8555 43.9184 12.9731L44.0542 12.4505C44.1849 11.9472 44.4597 11.6053 44.8786 11.4248ZM49.81 22.7484L50.7452 19.1479L47.377 18.2729L46.4417 21.8734L49.81 22.7484ZM46.7609 15.6332C46.596 15.6317 46.4555 15.6159 46.3393 15.5857C45.836 15.455 45.5587 15.011 45.5075 14.2538C45.2576 15.0567 44.6688 15.2551 43.7411 14.8488C44.1941 15.1731 44.2512 15.8285 43.9123 16.815C44.1748 16.7592 44.5189 16.7866 44.9448 16.8972C45.4481 17.028 45.7234 17.1615 45.7706 17.2977L45.8159 17.1235C45.9768 16.5041 46.2918 16.0073 46.7609 15.6332ZM39.7682 10.0973C39.2176 9.83028 38.8199 9.29303 38.5751 8.48553C38.3096 8.87117 37.7688 9.12331 36.9528 9.24195C36.8738 9.38675 36.9203 9.60547 37.0923 9.8981C37.313 10.1621 37.3889 10.3471 37.32 10.4532L36.8034 11.2489C37.1061 11.0382 37.4704 10.9882 37.8962 11.0988C38.0124 11.129 38.1816 11.1936 38.4038 11.2926C38.626 11.3917 38.7952 11.4563 38.9114 11.4865C38.8928 11.399 38.8985 11.2972 38.9287 11.181C39.0293 10.7939 39.3091 10.4326 39.7682 10.0973ZM41.6505 14.3057C41.0311 14.1448 40.6133 13.685 40.3971 12.9263C39.8304 13.3577 39.2416 13.556 38.6307 13.5213C38.8484 14.1151 38.8668 14.7604 38.6858 15.4573C39.0156 15.4603 39.3547 15.5071 39.7032 15.5976C40.0129 15.6781 40.2545 15.7822 40.4279 15.9099C40.53 15.3578 40.9375 14.8231 41.6505 14.3057ZM42.9929 18.6839C42.4609 18.5044 42.0288 18.0202 41.6965 17.2313C41.4853 18.0443 40.9158 18.2476 39.9882 17.8414C40.3251 18.1355 40.4231 18.5536 40.2823 19.0956C40.222 19.3279 40.1473 19.5358 40.0583 19.7193C40.4756 19.7037 40.9166 19.7563 41.3811 19.877C41.6909 19.9574 41.9131 20.0565 42.0478 20.1741L42.1836 19.6515C42.3144 19.1482 42.5841 18.8256 42.9929 18.6839ZM47.821 30.1666L48.7562 26.5661L45.4461 25.7062L44.5108 29.3067L47.821 30.1666ZM44.8903 22.8342C44.2709 22.6733 43.8337 22.2085 43.5788 21.4397C43.4682 21.8656 42.8837 22.127 41.8253 22.224C42.1607 22.6831 42.2328 23.2804 42.0417 24.016C42.3429 23.9703 42.687 23.9977 43.0742 24.0982C43.5775 24.229 43.8528 24.3625 43.9 24.4987C43.9016 24.3338 43.9224 24.1739 43.9626 24.0191C44.033 23.7481 44.1708 23.5359 44.376 23.3825C44.66 23.0844 44.8315 22.9016 44.8903 22.8342ZM37.8976 17.2983C37.3556 17.1575 36.9378 16.6977 36.6441 15.9188C36.1634 16.4965 35.7489 16.7401 35.4005 16.6496L35.2496 17.2303C35.2179 17.5114 35.182 17.7294 35.1417 17.8842C35.0814 18.1165 34.9974 18.2807 34.8898 18.3767C35.2971 18.3998 35.6749 18.4567 36.0234 18.5472C36.4492 18.6578 36.7439 18.7963 36.9073 18.9628L36.9525 18.7885C37.1134 18.1691 37.4285 17.6724 37.8976 17.2983ZM39.5476 21.4464C39.0258 21.2282 38.6854 20.7885 38.5265 20.1273C37.9598 20.5587 37.3711 20.757 36.7602 20.7223C36.8431 21.1985 36.8615 21.8438 36.8152 22.6583C36.9901 22.6211 37.3293 22.6679 37.8326 22.7986C38.181 22.8891 38.4226 22.9932 38.5574 23.1109L38.6026 22.9367C38.7032 22.5495 39.0182 22.0528 39.5476 21.4464ZM41.1374 25.8268C40.6054 25.6473 40.1683 25.1824 39.8259 24.4323C39.6147 25.2453 39.0453 25.4486 38.1176 25.0424C38.5706 25.3667 38.6277 26.0221 38.2888 27.0086C38.6875 26.9055 39.322 27.0083 40.1923 27.3171C40.1737 27.2296 40.1846 27.1084 40.2248 26.9535C40.3254 26.5664 40.6296 26.1908 41.1374 25.8268ZM42.9443 30.3256C42.3093 29.7474 41.9166 29.1908 41.7663 28.6558C41.5969 29.149 40.9829 29.4442 39.9245 29.5412C40.366 30.0691 40.5364 30.5267 40.4359 30.9138C40.4157 30.9913 40.3712 31.083 40.3024 31.1891C40.5648 31.1333 40.8896 31.1557 41.2768 31.2563C41.6252 31.3468 41.8374 31.4845 41.9133 31.6696C41.8374 31.4845 41.8195 31.3146 41.8598 31.1597C41.8899 31.0436 42.2515 30.7656 42.9443 30.3256ZM36.0119 24.5574C35.3925 24.3965 34.9797 23.9173 34.7736 23.1198C34.2929 23.6975 33.8783 23.9411 33.5299 23.8506L33.379 24.4313C33.3473 24.7124 33.3114 24.9304 33.2711 25.0852C33.2108 25.3175 33.1268 25.4817 33.0192 25.5777C33.2616 25.5993 33.5376 25.6504 33.8473 25.7308L34.4861 25.8968C34.7471 26.0059 34.955 26.0806 35.1099 26.1208C35.1013 25.9946 35.1222 25.8347 35.1725 25.6411C35.3535 24.9443 35.6333 24.583 36.0119 24.5574ZM37.8339 28.9981C37.2477 28.3912 36.9209 28.0584 36.8535 27.9995C36.6212 27.9392 36.3781 28 36.1242 28.182C35.5435 28.0312 35.1068 28.0417 34.8142 28.2137C35.1882 28.6828 35.2174 29.207 34.9016 29.7862L35.5404 29.9521C35.8215 29.9838 36.0201 30.0147 36.1362 30.0449C36.4072 30.1153 36.5907 30.2043 36.6868 30.3119L36.7019 30.2538C36.8326 29.7505 37.21 29.332 37.8339 28.9981ZM46.3403 36.1051L46.4761 35.5825C46.5968 35.1179 46.6888 34.6045 46.7522 34.0424L31.8856 30.1805L30.9352 33.8391L45.8018 37.701C46.0401 37.1016 46.2196 36.5697 46.3403 36.1051ZM44.4094 43.5384L44.5452 43.0157C44.6658 42.5512 44.7579 42.0378 44.8212 41.4757L29.9546 37.6138L29.0043 41.2724L43.8709 45.1343C44.1092 44.5349 44.2887 44.003 44.4094 43.5384ZM42.4332 51.1459L42.5539 50.6813C42.6846 50.178 42.7817 49.6453 42.8451 49.0832L27.9785 45.2214L27.0432 48.8219L41.9098 52.6837C42.128 52.1618 42.3025 51.6492 42.4332 51.1459Z" fill="white"/>
<path d="M23.016 15.116C22.168 17.884 20.624 20.18 18.384 22.004C16.064 23.908 13.488 24.8601 10.656 24.8601C8.4 24.8601 6.4 24.252 4.656 23.036C2.928 21.82 1.648 20.1481 0.816 18.0201C0.272 16.6441 0 15.348 0 14.132C0 13.892 0 13.772 0 13.772C0.016 13.388 0.024 13.22 0.024 13.268V12.404C0.024 12.02 0.112 11.484 0.288 10.796C0.688 9.22805 1.432 7.73205 2.52 6.30805C3.624 4.86805 4.88 3.73205 6.288 2.90005C7.04 2.45205 7.88 2.12405 8.808 1.91605C8.84 1.91605 9.728 1.73205 11.472 1.36405C12.176 1.22005 12.68 1.14805 12.984 1.14805C15.672 1.14805 18.088 2.36405 20.232 4.79605C22.312 7.14805 23.352 9.68405 23.352 12.404C23.352 13.476 23.24 14.38 23.016 15.116ZM22.8 12.884C22.8 10.884 22.4 9.08405 21.6 7.48405C20.752 5.78805 19.512 4.43605 17.88 3.42805C16.104 2.34005 14.2 1.79605 12.168 1.79605C9.416 1.79605 7.136 2.56405 5.328 4.10005C3.6 5.55605 2.384 7.64405 1.68 10.364C1.536 10.924 1.464 11.5 1.464 12.092C1.464 13.756 1.944 15.5 2.904 17.324C3.8 19.052 4.92 20.492 6.264 21.644C7.8 22.956 9.368 23.612 10.968 23.612C11.304 23.612 11.64 23.58 11.976 23.5161C12.072 23.4841 12.232 23.444 12.456 23.396C13.08 23.396 13.728 23.3241 14.4 23.18C16.96 22.636 19 21.444 20.52 19.604C22.04 17.748 22.8 15.508 22.8 12.884ZM21.912 12.692C21.912 14.788 21.384 16.6441 20.328 18.26C19.24 19.9401 17.736 21.1481 15.816 21.8841C14.648 22.3321 13.536 22.556 12.48 22.556C12.288 22.556 12.192 22.556 12.192 22.556C11.856 22.54 11.712 22.532 11.76 22.532H11.016C10.44 22.532 9.584 22.316 8.448 21.8841C6.512 21.1481 4.992 19.932 3.888 18.236C2.8 16.588 2.256 14.716 2.256 12.62C2.256 9.69205 3.208 7.30005 5.112 5.44405C7.032 3.57205 9.464 2.63605 12.408 2.63605C15.24 2.63605 17.544 3.61205 19.32 5.56405C21.048 7.46805 21.912 9.84405 21.912 12.692ZM19.032 5.90005C18.824 5.67605 18.472 5.34005 17.976 4.89205C17.544 4.52405 17.112 4.34005 16.68 4.34005C16.536 4.34005 16.392 4.36405 16.248 4.41205V5.90005H19.032ZM15.768 3.64405H14.52C14.76 3.86805 14.864 4.07605 14.832 4.26805C14.928 4.22005 15.056 4.19605 15.216 4.19605C15.36 4.19605 15.456 4.22805 15.504 4.29205C15.456 4.22805 15.432 4.16405 15.432 4.10005C15.432 4.05205 15.544 3.90005 15.768 3.64405ZM20.952 8.90005C20.792 8.48405 20.528 7.97205 20.16 7.36405H16.272V8.90005H20.952ZM13.656 3.64405C13.512 3.64405 13.304 3.50805 13.032 3.23605C12.904 3.47605 12.728 3.62005 12.504 3.66805C12.696 3.81205 12.768 4.02005 12.72 4.29205C12.816 4.24405 12.936 4.22005 13.08 4.22005C13.24 4.22005 13.36 4.24405 13.44 4.29205V4.10005C13.44 3.90805 13.512 3.75605 13.656 3.64405ZM14.616 5.08405C14.408 5.05205 14.232 4.91605 14.088 4.67605C13.912 4.90005 13.704 5.03605 13.464 5.08405C13.608 5.29205 13.68 5.54005 13.68 5.82805C13.808 5.79605 13.944 5.78005 14.088 5.78005C14.216 5.78005 14.32 5.79605 14.4 5.82805V5.73205C14.4 5.58805 14.472 5.37205 14.616 5.08405ZM15.768 6.54805C15.512 6.54805 15.296 6.40405 15.12 6.11605C15.12 6.45205 14.92 6.58805 14.52 6.52405C14.712 6.60405 14.8 6.85205 14.784 7.26805C14.848 7.23605 14.96 7.22005 15.12 7.22005C15.312 7.22005 15.456 7.22805 15.552 7.24405V7.07605C15.552 6.77205 15.624 6.59605 15.768 6.54805ZM21.576 10.46H16.272V11.9H21.552C21.504 11.372 21.48 11.068 21.48 10.988C21.48 10.764 21.512 10.588 21.576 10.46ZM11.544 3.66805C11.4 3.65205 11.192 3.50805 10.92 3.23605C10.824 3.47605 10.648 3.61205 10.392 3.64405C10.536 3.77205 10.608 3.98805 10.608 4.29205C10.704 4.24405 10.832 4.22005 10.992 4.22005C11.136 4.22005 11.248 4.24405 11.328 4.29205C11.312 4.21205 11.304 4.14005 11.304 4.07605C11.304 3.88405 11.384 3.74805 11.544 3.66805ZM12.504 5.13205C12.456 5.14805 12.408 5.15605 12.36 5.15605C12.2 5.15605 12.072 4.99605 11.976 4.67605C11.96 5.01205 11.752 5.14805 11.352 5.08405C11.544 5.16405 11.632 5.41205 11.616 5.82805C11.68 5.79605 11.792 5.78005 11.952 5.78005C12.144 5.78005 12.288 5.78805 12.384 5.80405C12.368 5.69205 12.36 5.58005 12.36 5.46805C12.36 5.27605 12.408 5.16405 12.504 5.13205ZM13.656 6.52405C13.448 6.52405 13.272 6.38805 13.128 6.11605C12.952 6.34005 12.744 6.47605 12.504 6.52405C12.648 6.95605 12.72 7.19605 12.72 7.24405C12.848 7.19605 13.016 7.17205 13.224 7.17205C13.336 7.17205 13.408 7.18805 13.44 7.22005C13.424 7.17205 13.416 7.12405 13.416 7.07605C13.416 6.90005 13.496 6.71605 13.656 6.52405ZM14.616 8.08405C14.28 7.90805 14.112 7.73205 14.112 7.55605C13.968 7.76405 13.752 7.94005 13.464 8.08405C13.656 8.22805 13.728 8.43605 13.68 8.70805C13.744 8.67605 13.88 8.66005 14.088 8.66005C14.232 8.66005 14.336 8.67605 14.4 8.70805C14.384 8.62805 14.376 8.55605 14.376 8.49205C14.376 8.30005 14.456 8.16405 14.616 8.08405ZM15.768 9.50005C15.512 9.43605 15.296 9.26805 15.12 8.99605C15.12 9.23605 14.92 9.40405 14.52 9.50005C14.76 9.72405 14.856 9.93205 14.808 10.124C14.904 10.108 15.016 10.1 15.144 10.1C15.304 10.1 15.44 10.108 15.552 10.124V10.004C15.552 9.84405 15.624 9.67605 15.768 9.50005ZM9.528 3.64405H9.24C9.096 3.62805 8.992 3.62005 8.928 3.62005H8.76C8.664 3.62005 8.568 3.62805 8.472 3.64405C8.552 3.80405 8.592 4.02005 8.592 4.29205C8.672 4.24405 8.776 4.22005 8.904 4.22005C9.048 4.22005 9.184 4.23605 9.312 4.26805V4.14805C9.312 3.98805 9.384 3.82005 9.528 3.64405ZM10.488 5.08405C10.264 5.06805 10.056 4.93205 9.864 4.67605C9.784 4.86805 9.608 5.00405 9.336 5.08405C9.496 5.38805 9.568 5.63605 9.552 5.82805C9.632 5.78005 9.752 5.75605 9.912 5.75605C10.088 5.75605 10.208 5.78005 10.272 5.82805V5.70805C10.272 5.48405 10.344 5.27605 10.488 5.08405ZM11.544 6.52405C11.336 6.52405 11.16 6.38805 11.016 6.11605C10.84 6.34005 10.632 6.47605 10.392 6.52405C10.536 6.73205 10.608 6.98005 10.608 7.26805C10.736 7.23605 10.872 7.22005 11.016 7.22005C11.144 7.22005 11.248 7.23605 11.328 7.26805V7.17205C11.328 7.02805 11.4 6.81205 11.544 6.52405ZM21.48 13.772C21.48 13.66 21.472 13.556 21.456 13.46H15.504C15.392 14.052 15.224 14.54 15 14.924H21.456V14.18C21.472 14.004 21.48 13.868 21.48 13.772ZM12.6 8.06005C12.328 8.06005 12.12 7.92405 11.976 7.65205C11.832 7.92405 11.624 8.06005 11.352 8.06005C11.528 8.20405 11.616 8.42005 11.616 8.70805C11.712 8.67605 11.84 8.66005 12 8.66005C12.192 8.66005 12.32 8.67605 12.384 8.70805V8.58805C12.384 8.38005 12.456 8.20405 12.6 8.06005ZM8.376 5.08405C8.168 5.08405 7.992 4.94805 7.848 4.67605C7.672 4.90005 7.464 5.03605 7.224 5.08405C7.288 5.24405 7.36 5.49205 7.44 5.82805C7.568 5.79605 7.704 5.78005 7.848 5.78005C7.976 5.78005 8.08 5.79605 8.16 5.82805V5.75605C8.16 5.46805 8.232 5.24405 8.376 5.08405ZM9.432 6.57205C9.384 6.58805 9.336 6.59605 9.288 6.59605C9.128 6.59605 9 6.43605 8.904 6.11605C8.888 6.45205 8.68 6.58805 8.28 6.52405C8.472 6.60405 8.56 6.85205 8.544 7.26805C8.608 7.23605 8.72 7.22005 8.88 7.22005C9.072 7.22005 9.216 7.22805 9.312 7.24405C9.296 7.13205 9.288 7.02005 9.288 6.90805C9.288 6.71605 9.336 6.60405 9.432 6.57205ZM10.488 8.06005C10.36 7.96405 10.144 7.82805 9.84 7.65205C9.76 7.81205 9.592 7.95605 9.336 8.08405C9.496 8.18005 9.576 8.30005 9.576 8.44405C9.576 8.34805 9.568 8.43605 9.552 8.70805C9.632 8.67605 9.728 8.66005 9.84 8.66005H9.984C10.128 8.66005 10.224 8.67605 10.272 8.70805V8.56405C10.272 8.40405 10.344 8.23605 10.488 8.06005ZM6.36 5.08405C6.072 5.08405 5.744 5.33205 5.376 5.82805C5.472 5.71605 5.568 5.66005 5.664 5.66005C5.728 5.66005 5.856 5.71605 6.048 5.82805C6.032 5.60405 6.136 5.35605 6.36 5.08405ZM7.416 6.52405C7.192 6.50805 6.984 6.37205 6.792 6.11605C6.712 6.30805 6.536 6.44405 6.264 6.52405C6.424 6.82805 6.496 7.07605 6.48 7.26805C6.56 7.22005 6.68 7.19605 6.84 7.19605C7.016 7.19605 7.136 7.22005 7.2 7.26805V7.14805C7.2 6.92405 7.272 6.71605 7.416 6.52405ZM15.168 12.332C15.168 11.388 14.904 10.604 14.376 9.98005C13.816 9.29205 13.072 8.94805 12.144 8.94805C11.232 8.94805 10.504 9.29205 9.96 9.98005C9.464 10.604 9.216 11.388 9.216 12.332C9.216 13.292 9.464 14.14 9.96 14.876C10.536 15.708 11.28 16.1241 12.192 16.1241C13.104 16.1241 13.848 15.708 14.424 14.876C14.92 14.14 15.168 13.292 15.168 12.332ZM8.376 8.08405C8.104 7.95605 7.896 7.81205 7.752 7.65205C7.672 7.81205 7.496 7.95605 7.224 8.08405C7.416 8.22805 7.488 8.42805 7.44 8.68405C7.52 8.66805 7.616 8.66005 7.728 8.66005H7.872C8 8.66005 8.096 8.67605 8.16 8.70805C8.144 8.62805 8.136 8.55605 8.136 8.49205C8.136 8.30005 8.216 8.16405 8.376 8.08405ZM9.528 9.50005C9.272 9.43605 9.056 9.26805 8.88 8.99605C8.88 9.23605 8.68 9.41205 8.28 9.52405C8.536 9.70005 8.632 9.90005 8.568 10.124C8.664 10.108 8.776 10.1 8.904 10.1C9.064 10.1 9.2 10.108 9.312 10.124V10.004C9.312 9.84405 9.384 9.67605 9.528 9.50005ZM5.304 6.52405C5.096 6.52405 4.92 6.45205 4.776 6.30805C4.552 6.64405 4.432 6.96405 4.416 7.26805C4.576 7.18805 4.72 7.14805 4.848 7.14805C4.944 7.14805 5.024 7.17205 5.088 7.22005C5.072 6.91605 5.144 6.68405 5.304 6.52405ZM6.264 8.08405C6.024 7.95605 5.848 7.78005 5.736 7.55605C5.72 7.70005 5.512 7.87605 5.112 8.08405C5.288 8.22805 5.376 8.43605 5.376 8.70805C5.52 8.66005 5.648 8.63605 5.76 8.63605C5.888 8.63605 5.984 8.66005 6.048 8.70805C6.048 8.43605 6.12 8.22805 6.264 8.08405ZM7.416 9.50005C7.208 9.43605 7 9.30005 6.792 9.09205C6.712 9.25205 6.536 9.39605 6.264 9.52405C6.424 9.62005 6.504 9.74005 6.504 9.88405C6.504 9.80405 6.496 9.89205 6.48 10.148C6.56 10.116 6.656 10.1 6.768 10.1H6.936C7.048 10.1 7.136 10.116 7.2 10.148V10.052C7.184 9.87605 7.256 9.69205 7.416 9.50005ZM8.376 10.94C8.232 10.908 8.112 10.852 8.016 10.772C7.92 10.692 7.824 10.612 7.728 10.532C7.632 10.756 7.464 10.892 7.224 10.94C7.384 11.196 7.456 11.436 7.44 11.66C7.504 11.644 7.6 11.636 7.728 11.636C7.888 11.636 8.032 11.652 8.16 11.684C8.176 11.588 8.248 11.34 8.376 10.94ZM8.808 12.38H8.64L8.52 13.1H8.688L8.808 12.38ZM4.248 8.08405C4.072 7.98805 3.888 7.94005 3.696 7.94005L3.408 8.58805C3.456 8.57205 3.512 8.56405 3.576 8.56405C3.72 8.56405 3.872 8.61205 4.032 8.70805V8.61205C4.016 8.43605 4.088 8.26005 4.248 8.08405ZM5.304 9.52405C5.032 9.39605 4.824 9.25205 4.68 9.09205C4.568 9.33205 4.392 9.46805 4.152 9.50005C4.312 9.75605 4.384 9.99605 4.368 10.22C4.512 10.14 4.696 10.1 4.92 10.1C5 10.1 5.056 10.116 5.088 10.148C5.072 10.068 5.064 9.99605 5.064 9.93205C5.064 9.74005 5.144 9.60405 5.304 9.52405ZM20.952 16.508H3.288L4.08 18.0201H20.16C20.512 17.4121 20.776 16.908 20.952 16.508ZM6.36 10.964C6.12 10.964 5.912 10.82 5.736 10.532C5.56 10.756 5.352 10.892 5.112 10.94C5.256 11.164 5.328 11.412 5.328 11.684C5.44 11.572 5.56 11.516 5.688 11.516C5.816 11.516 5.968 11.572 6.144 11.684C6.128 11.62 6.12 11.556 6.12 11.492C6.12 11.188 6.2 11.012 6.36 10.964ZM7.416 12.38C7.192 12.364 6.984 12.228 6.792 11.972C6.712 12.164 6.536 12.3 6.264 12.38C6.408 12.828 6.48 13.076 6.48 13.124C6.608 13.044 6.744 13.004 6.888 13.004C7.032 13.004 7.136 13.044 7.2 13.124V13.028C7.2 12.788 7.272 12.5721 7.416 12.38ZM4.248 10.94C3.992 10.94 3.776 10.804 3.6 10.532C3.6 10.868 3.4 11.004 3 10.94C3.16 11.02 3.24 11.172 3.24 11.396C3.24 11.4921 3.232 11.58 3.216 11.66C3.392 11.612 3.56 11.588 3.72 11.588C3.864 11.588 3.968 11.62 4.032 11.684V11.54C4.032 11.332 4.104 11.132 4.248 10.94ZM5.304 12.404C5.16 12.372 5.04 12.316 4.944 12.236C4.768 12.076 4.672 11.988 4.656 11.972C4.56 12.196 4.392 12.332 4.152 12.38C4.328 12.6521 4.4 12.9 4.368 13.124C4.4 13.06 4.52 13.028 4.728 13.028C4.856 13.028 4.976 13.044 5.088 13.076V12.86C5.088 12.636 5.16 12.484 5.304 12.404ZM19.032 19.484H5.304C6.312 20.492 6.944 20.996 7.2 20.996H17.064C17.176 20.996 17.832 20.492 19.032 19.484ZM9.24 14.924C9.08 14.6521 8.912 14.18 8.736 13.508H2.784C2.768 13.62 2.76 13.732 2.76 13.844V14.924H9.24ZM3.288 12.404C3.08 12.388 2.864 12.276 2.64 12.068C2.672 12.324 2.784 12.676 2.976 13.124C2.944 13.06 2.928 12.996 2.928 12.932C2.928 12.644 3.048 12.468 3.288 12.404Z" fill="white"/>
<path d="M77.016 53.1161C76.168 55.8841 74.624 58.18 72.384 60.0041C70.064 61.9081 67.488 62.8601 64.656 62.8601C62.4 62.8601 60.4 62.252 58.656 61.036C56.928 59.82 55.648 58.148 54.816 56.0201C54.272 54.6441 54 53.348 54 52.132C54 51.8921 54 51.772 54 51.772C54.016 51.3881 54.024 51.2201 54.024 51.2681V50.404C54.024 50.0201 54.112 49.484 54.288 48.796C54.688 47.228 55.432 45.732 56.52 44.308C57.624 42.868 58.88 41.732 60.288 40.9C61.04 40.452 61.88 40.1241 62.808 39.916C62.84 39.916 63.728 39.732 65.472 39.364C66.176 39.22 66.68 39.148 66.984 39.148C69.672 39.148 72.088 40.364 74.232 42.796C76.312 45.148 77.352 47.684 77.352 50.404C77.352 51.476 77.24 52.3801 77.016 53.1161ZM76.8 50.884C76.8 48.884 76.4 47.084 75.6 45.484C74.752 43.788 73.512 42.4361 71.88 41.4281C70.104 40.34 68.2 39.796 66.168 39.796C63.416 39.796 61.136 40.564 59.328 42.1C57.6 43.556 56.384 45.644 55.68 48.364C55.536 48.924 55.464 49.5 55.464 50.092C55.464 51.7561 55.944 53.5 56.904 55.3241C57.8 57.0521 58.92 58.4921 60.264 59.6441C61.8 60.9561 63.368 61.612 64.968 61.612C65.304 61.612 65.64 61.58 65.976 61.516C66.072 61.484 66.232 61.444 66.456 61.396C67.08 61.396 67.728 61.3241 68.4 61.18C70.96 60.6361 73 59.444 74.52 57.604C76.04 55.7481 76.8 53.508 76.8 50.884ZM75.912 50.692C75.912 52.788 75.384 54.644 74.328 56.26C73.24 57.94 71.736 59.148 69.816 59.884C68.648 60.332 67.536 60.556 66.48 60.556C66.288 60.556 66.192 60.556 66.192 60.556C65.856 60.5401 65.712 60.5321 65.76 60.5321H65.016C64.44 60.5321 63.584 60.316 62.448 59.884C60.512 59.148 58.992 57.932 57.888 56.236C56.8 54.5881 56.256 52.716 56.256 50.62C56.256 47.692 57.208 45.3 59.112 43.444C61.032 41.572 63.464 40.636 66.408 40.636C69.24 40.636 71.544 41.612 73.32 43.564C75.048 45.468 75.912 47.844 75.912 50.692ZM73.032 43.9C72.824 43.676 72.472 43.34 71.976 42.892C71.544 42.524 71.112 42.34 70.68 42.34C70.536 42.34 70.392 42.364 70.248 42.412V43.9H73.032ZM69.768 41.644H68.52C68.76 41.868 68.864 42.076 68.832 42.268C68.928 42.22 69.056 42.196 69.216 42.196C69.36 42.196 69.456 42.2281 69.504 42.292C69.456 42.2281 69.432 42.164 69.432 42.1C69.432 42.052 69.544 41.9 69.768 41.644ZM74.952 46.9C74.792 46.484 74.528 45.972 74.16 45.364H70.272V46.9H74.952ZM67.656 41.644C67.512 41.644 67.304 41.508 67.032 41.236C66.904 41.4761 66.728 41.62 66.504 41.668C66.696 41.812 66.768 42.0201 66.72 42.292C66.816 42.244 66.936 42.2201 67.08 42.2201C67.24 42.2201 67.36 42.244 67.44 42.292V42.1C67.44 41.908 67.512 41.756 67.656 41.644ZM68.616 43.084C68.408 43.052 68.232 42.916 68.088 42.676C67.912 42.9 67.704 43.036 67.464 43.084C67.608 43.292 67.68 43.54 67.68 43.828C67.808 43.7961 67.944 43.78 68.088 43.78C68.216 43.78 68.32 43.7961 68.4 43.828V43.732C68.4 43.588 68.472 43.372 68.616 43.084ZM69.768 44.548C69.512 44.548 69.296 44.4041 69.12 44.1161C69.12 44.452 68.92 44.588 68.52 44.524C68.712 44.604 68.8 44.852 68.784 45.268C68.848 45.236 68.96 45.2201 69.12 45.2201C69.312 45.2201 69.456 45.2281 69.552 45.244V45.076C69.552 44.772 69.624 44.5961 69.768 44.548ZM75.576 48.46H70.272V49.9H75.552C75.504 49.372 75.48 49.068 75.48 48.988C75.48 48.764 75.512 48.5881 75.576 48.46ZM65.544 41.668C65.4 41.652 65.192 41.508 64.92 41.236C64.824 41.4761 64.648 41.612 64.392 41.644C64.536 41.772 64.608 41.988 64.608 42.292C64.704 42.244 64.832 42.2201 64.992 42.2201C65.136 42.2201 65.248 42.244 65.328 42.292C65.312 42.2121 65.304 42.14 65.304 42.076C65.304 41.884 65.384 41.748 65.544 41.668ZM66.504 43.132C66.456 43.148 66.408 43.156 66.36 43.156C66.2 43.156 66.072 42.996 65.976 42.676C65.96 43.012 65.752 43.148 65.352 43.084C65.544 43.1641 65.632 43.412 65.616 43.828C65.68 43.7961 65.792 43.78 65.952 43.78C66.144 43.78 66.288 43.7881 66.384 43.8041C66.368 43.6921 66.36 43.58 66.36 43.468C66.36 43.276 66.408 43.164 66.504 43.132ZM67.656 44.524C67.448 44.524 67.272 44.3881 67.128 44.1161C66.952 44.34 66.744 44.476 66.504 44.524C66.648 44.956 66.72 45.196 66.72 45.244C66.848 45.196 67.016 45.172 67.224 45.172C67.336 45.172 67.408 45.188 67.44 45.2201C67.424 45.1721 67.416 45.1241 67.416 45.076C67.416 44.9001 67.496 44.716 67.656 44.524ZM68.616 46.084C68.28 45.9081 68.112 45.732 68.112 45.556C67.968 45.764 67.752 45.94 67.464 46.084C67.656 46.2281 67.728 46.4361 67.68 46.708C67.744 46.676 67.88 46.66 68.088 46.66C68.232 46.66 68.336 46.676 68.4 46.708C68.384 46.6281 68.376 46.556 68.376 46.4921C68.376 46.3 68.456 46.164 68.616 46.084ZM69.768 47.5C69.512 47.4361 69.296 47.268 69.12 46.996C69.12 47.236 68.92 47.404 68.52 47.5C68.76 47.724 68.856 47.932 68.808 48.1241C68.904 48.1081 69.016 48.1 69.144 48.1C69.304 48.1 69.44 48.1081 69.552 48.1241V48.004C69.552 47.844 69.624 47.676 69.768 47.5ZM63.528 41.644H63.24C63.096 41.628 62.992 41.62 62.928 41.62H62.76C62.664 41.62 62.568 41.628 62.472 41.644C62.552 41.804 62.592 42.0201 62.592 42.292C62.672 42.244 62.776 42.2201 62.904 42.2201C63.048 42.2201 63.184 42.236 63.312 42.268V42.148C63.312 41.988 63.384 41.82 63.528 41.644ZM64.488 43.084C64.264 43.0681 64.056 42.932 63.864 42.676C63.784 42.868 63.608 43.0041 63.336 43.084C63.496 43.3881 63.568 43.636 63.552 43.828C63.632 43.78 63.752 43.7561 63.912 43.7561C64.088 43.7561 64.208 43.78 64.272 43.828V43.708C64.272 43.4841 64.344 43.2761 64.488 43.084ZM65.544 44.524C65.336 44.524 65.16 44.3881 65.016 44.1161C64.84 44.34 64.632 44.476 64.392 44.524C64.536 44.732 64.608 44.98 64.608 45.268C64.736 45.236 64.872 45.2201 65.016 45.2201C65.144 45.2201 65.248 45.236 65.328 45.268V45.172C65.328 45.028 65.4 44.812 65.544 44.524ZM75.48 51.772C75.48 51.66 75.472 51.556 75.456 51.46H69.504C69.392 52.052 69.224 52.5401 69 52.924H75.456V52.18C75.472 52.0041 75.48 51.868 75.48 51.772ZM66.6 46.06C66.328 46.06 66.12 45.924 65.976 45.6521C65.832 45.924 65.624 46.06 65.352 46.06C65.528 46.204 65.616 46.4201 65.616 46.708C65.712 46.676 65.84 46.66 66 46.66C66.192 46.66 66.32 46.676 66.384 46.708V46.588C66.384 46.38 66.456 46.204 66.6 46.06ZM62.376 43.084C62.168 43.084 61.992 42.948 61.848 42.676C61.672 42.9 61.464 43.036 61.224 43.084C61.288 43.244 61.36 43.4921 61.44 43.828C61.568 43.7961 61.704 43.78 61.848 43.78C61.976 43.78 62.08 43.7961 62.16 43.828V43.7561C62.16 43.468 62.232 43.244 62.376 43.084ZM63.432 44.572C63.384 44.588 63.336 44.5961 63.288 44.5961C63.128 44.5961 63 44.4361 62.904 44.1161C62.888 44.452 62.68 44.588 62.28 44.524C62.472 44.604 62.56 44.852 62.544 45.268C62.608 45.236 62.72 45.2201 62.88 45.2201C63.072 45.2201 63.216 45.2281 63.312 45.244C63.296 45.132 63.288 45.0201 63.288 44.9081C63.288 44.716 63.336 44.604 63.432 44.572ZM64.488 46.06C64.36 45.964 64.144 45.828 63.84 45.6521C63.76 45.812 63.592 45.956 63.336 46.084C63.496 46.18 63.576 46.3 63.576 46.444C63.576 46.348 63.568 46.4361 63.552 46.708C63.632 46.676 63.728 46.66 63.84 46.66H63.984C64.128 46.66 64.224 46.676 64.272 46.708V46.564C64.272 46.404 64.344 46.236 64.488 46.06ZM60.36 43.084C60.072 43.084 59.744 43.332 59.376 43.828C59.472 43.716 59.568 43.66 59.664 43.66C59.728 43.66 59.856 43.716 60.048 43.828C60.032 43.604 60.136 43.356 60.36 43.084ZM61.416 44.524C61.192 44.508 60.984 44.3721 60.792 44.1161C60.712 44.3081 60.536 44.444 60.264 44.524C60.424 44.828 60.496 45.076 60.48 45.268C60.56 45.22 60.68 45.196 60.84 45.196C61.016 45.196 61.136 45.22 61.2 45.268V45.148C61.2 44.924 61.272 44.716 61.416 44.524ZM69.168 50.3321C69.168 49.3881 68.904 48.604 68.376 47.98C67.816 47.292 67.072 46.948 66.144 46.948C65.232 46.948 64.504 47.292 63.96 47.98C63.464 48.604 63.216 49.3881 63.216 50.3321C63.216 51.292 63.464 52.14 63.96 52.876C64.536 53.708 65.28 54.1241 66.192 54.1241C67.104 54.1241 67.848 53.708 68.424 52.876C68.92 52.14 69.168 51.292 69.168 50.3321ZM62.376 46.084C62.104 45.956 61.896 45.812 61.752 45.6521C61.672 45.812 61.496 45.956 61.224 46.084C61.416 46.2281 61.488 46.428 61.44 46.684C61.52 46.668 61.616 46.66 61.728 46.66H61.872C62 46.66 62.096 46.676 62.16 46.708C62.144 46.6281 62.136 46.556 62.136 46.4921C62.136 46.3 62.216 46.164 62.376 46.084ZM63.528 47.5C63.272 47.4361 63.056 47.268 62.88 46.996C62.88 47.236 62.68 47.412 62.28 47.524C62.536 47.7 62.632 47.9001 62.568 48.1241C62.664 48.1081 62.776 48.1 62.904 48.1C63.064 48.1 63.2 48.1081 63.312 48.1241V48.004C63.312 47.844 63.384 47.676 63.528 47.5ZM59.304 44.524C59.096 44.524 58.92 44.452 58.776 44.308C58.552 44.644 58.432 44.964 58.416 45.268C58.576 45.188 58.72 45.148 58.848 45.148C58.944 45.148 59.024 45.1721 59.088 45.2201C59.072 44.916 59.144 44.684 59.304 44.524ZM60.264 46.084C60.024 45.956 59.848 45.78 59.736 45.556C59.72 45.7001 59.512 45.876 59.112 46.084C59.288 46.2281 59.376 46.4361 59.376 46.708C59.52 46.66 59.648 46.636 59.76 46.636C59.888 46.636 59.984 46.66 60.048 46.708C60.048 46.4361 60.12 46.2281 60.264 46.084ZM61.416 47.5C61.208 47.4361 61 47.3 60.792 47.092C60.712 47.252 60.536 47.396 60.264 47.524C60.424 47.62 60.504 47.74 60.504 47.884C60.504 47.804 60.496 47.892 60.48 48.148C60.56 48.1161 60.656 48.1 60.768 48.1H60.936C61.048 48.1 61.136 48.1161 61.2 48.148V48.052C61.184 47.876 61.256 47.6921 61.416 47.5ZM62.376 48.94C62.232 48.908 62.112 48.8521 62.016 48.772C61.92 48.692 61.824 48.612 61.728 48.532C61.632 48.756 61.464 48.892 61.224 48.94C61.384 49.196 61.456 49.4361 61.44 49.66C61.504 49.6441 61.6 49.636 61.728 49.636C61.888 49.636 62.032 49.652 62.16 49.684C62.176 49.588 62.248 49.34 62.376 48.94ZM62.808 50.3801H62.64L62.52 51.1H62.688L62.808 50.3801ZM58.248 46.084C58.072 45.988 57.888 45.94 57.696 45.94L57.408 46.588C57.456 46.572 57.512 46.564 57.576 46.564C57.72 46.564 57.872 46.612 58.032 46.708V46.612C58.016 46.4361 58.088 46.26 58.248 46.084ZM59.304 47.524C59.032 47.396 58.824 47.252 58.68 47.092C58.568 47.3321 58.392 47.468 58.152 47.5C58.312 47.7561 58.384 47.9961 58.368 48.2201C58.512 48.1401 58.696 48.1 58.92 48.1C59 48.1 59.056 48.1161 59.088 48.148C59.072 48.068 59.064 47.996 59.064 47.932C59.064 47.74 59.144 47.604 59.304 47.524ZM74.952 54.508H57.288L58.08 56.0201H74.16C74.512 55.412 74.776 54.9081 74.952 54.508ZM60.36 48.9641C60.12 48.9641 59.912 48.82 59.736 48.532C59.56 48.756 59.352 48.892 59.112 48.94C59.256 49.164 59.328 49.412 59.328 49.684C59.44 49.572 59.56 49.516 59.688 49.516C59.816 49.516 59.968 49.572 60.144 49.684C60.128 49.62 60.12 49.556 60.12 49.4921C60.12 49.188 60.2 49.0121 60.36 48.9641ZM61.416 50.3801C61.192 50.3641 60.984 50.2281 60.792 49.972C60.712 50.1641 60.536 50.3 60.264 50.3801C60.408 50.828 60.48 51.076 60.48 51.1241C60.608 51.0441 60.744 51.004 60.888 51.004C61.032 51.004 61.136 51.0441 61.2 51.1241V51.028C61.2 50.788 61.272 50.5721 61.416 50.3801ZM58.248 48.94C57.992 48.94 57.776 48.804 57.6 48.532C57.6 48.868 57.4 49.004 57 48.94C57.16 49.0201 57.24 49.1721 57.24 49.396C57.24 49.4921 57.232 49.58 57.216 49.66C57.392 49.612 57.56 49.588 57.72 49.588C57.864 49.588 57.968 49.62 58.032 49.684V49.5401C58.032 49.3321 58.104 49.132 58.248 48.94ZM59.304 50.404C59.16 50.372 59.04 50.316 58.944 50.236C58.768 50.076 58.672 49.988 58.656 49.972C58.56 50.196 58.392 50.3321 58.152 50.3801C58.328 50.6521 58.4 50.9001 58.368 51.1241C58.4 51.0601 58.52 51.028 58.728 51.028C58.856 51.028 58.976 51.044 59.088 51.076V50.8601C59.088 50.6361 59.16 50.484 59.304 50.404ZM73.032 57.4841H59.304C60.312 58.4921 60.944 58.996 61.2 58.996H71.064C71.176 58.996 71.832 58.4921 73.032 57.4841ZM63.24 52.924C63.08 52.6521 62.912 52.18 62.736 51.508H56.784C56.768 51.62 56.76 51.732 56.76 51.844V52.924H63.24ZM57.288 50.404C57.08 50.3881 56.864 50.2761 56.64 50.0681C56.672 50.3241 56.784 50.676 56.976 51.1241C56.944 51.0601 56.928 50.996 56.928 50.932C56.928 50.6441 57.048 50.468 57.288 50.404Z" fill="white"/>
</svg>
