<svg width="60" height="60" viewBox="0 0 60 60" fill="none" xmlns="http://www.w3.org/2000/svg">
<circle cx="30" cy="30" r="29" stroke="white" stroke-width="2"/>
<path fill-rule="evenodd" clip-rule="evenodd" d="M15.12 17.9498C14.4267 17.274 14.4267 16.1825 15.12 15.5068C15.8311 14.8311 16.9511 14.8311 17.6444 15.5068L44.8622 42.0502C45.5556 42.726 45.5556 43.8175 44.8622 44.4932C44.1689 45.1689 43.0489 45.1689 42.3556 44.4932L39.9733 42.1715C38.7822 43.1071 37.4489 43.8695 36.0267 44.4412C34.8533 44.909 33.5556 44.112 33.5556 42.8646C33.5556 42.1889 33.9467 41.5305 34.5867 41.2706C35.6178 40.8721 36.56 40.335 37.4311 39.6939L30 32.4516V39.6766C30 41.2186 28.08 41.9983 26.96 40.9067L21.1111 35.2065H15.7778C14.8 35.2065 14 34.4268 14 33.4739V26.5435C14 25.5905 14.8 24.8109 15.7778 24.8109H21.1111L21.6267 24.2911L15.12 17.9498ZM41.7154 34.063C42.1776 32.7982 42.4443 31.4294 42.4443 30.0087C42.4443 24.9148 39.2088 20.5487 34.6399 18.7468C33.9999 18.5042 33.5554 17.9324 33.5554 17.2741V16.9449C33.5554 15.8533 34.6754 15.0563 35.7243 15.4548C41.7332 17.6899 45.9999 23.3728 45.9999 30.0087C45.9999 32.417 45.431 34.6867 44.4354 36.7138L41.7154 34.063ZM26.9599 19.1107L26.6577 19.4052L29.9999 22.6625V20.3235C29.9999 18.7815 28.0799 18.0191 26.9599 19.1107ZM33.5554 23.0263C36.1865 24.3084 37.9999 26.942 37.9999 30.0087C37.9999 30.1473 37.9821 30.2859 37.9643 30.4245L37.9643 30.4245L33.5554 26.1277V23.0263Z" fill="white"/>
</svg>
