<svg width="539" height="120" viewBox="0 0 539 120" fill="none" xmlns="http://www.w3.org/2000/svg">
<path d="M123.2 112.68C122.4 112.44 120.8 112.32 118.4 112.32C118.32 112.56 118.28 112.88 118.28 113.28C118.28 114.32 118.68 115.72 119.48 117.48H68.6C68.92 116.52 69.08 115.52 69.08 114.48C69.08 112.08 68.24 109.88 66.56 107.88C64.88 105.88 62.84 104.88 60.44 104.88C57 104.88 55.2 107.32 55.04 112.2C52.48 112.12 51.04 113.88 50.72 117.48H0.44L35.6 5.76C37.04 5.76 38.16 5.24 38.96 4.19999C39.2 3.79999 39.68 2.55999 40.4 0.479992H86.72L123.2 112.68ZM119.96 109.8L84.8 3.11999H41.84L8.12 109.8H53.12L56 97.92H71.6C72.32 99.76 73.44 103.72 74.96 109.8H119.96ZM114.2 105.48H78.32C77.68 102.84 76.56 98.88 74.96 93.6H52.64C51.28 97.2 50.32 101.16 49.76 105.48H13.88L45.2 7.2H81.92L114.2 105.48ZM85.4 22.92C84.28 20.12 83.44 17.48 82.88 15H72.08V22.92H85.4ZM69.56 11.16C69.24 11.24 68.96 11.28 68.72 11.28C67.68 11.28 66.92 10.56 66.44 9.12C66.36 10.8 65.32 11.48 63.32 11.16C64.36 12.52 64.88 13.76 64.88 14.88C65.28 14.64 65.88 14.52 66.68 14.52C67.56 14.52 68.16 14.64 68.48 14.88V14.4C68.48 13.12 68.84 12.04 69.56 11.16ZM90.2 38.28C89.8 36.36 88.96 33.84 87.68 30.72H72.08V38.28H90.2ZM59 11.28C57.8 11.28 56.76 10.56 55.88 9.12C54.68 10.72 53.64 11.4 52.76 11.16C53.8 11.64 54.24 12.88 54.08 14.88C54.48 14.56 55.08 14.4 55.88 14.4C57 14.4 57.68 14.56 57.92 14.88C57.84 14.64 57.8 14.36 57.8 14.04C57.8 12.52 58.2 11.6 59 11.28ZM63.8 18.96C63.24 18.8 62.64 18.44 62 17.88C61.36 17.32 60.88 16.96 60.56 16.8C60.16 17.84 59.32 18.56 58.04 18.96C58.92 19.84 59.28 21.04 59.12 22.56C59.76 22.16 60.52 21.96 61.4 21.96C62.04 21.96 62.48 22.08 62.72 22.32C62.64 21.92 62.6 21.6 62.6 21.36C62.6 20.16 63 19.36 63.8 18.96ZM69.56 26.04C69.24 26.12 68.96 26.16 68.72 26.16C67.68 26.16 66.92 25.44 66.44 24C66.36 25.68 65.32 26.36 63.32 26.04C64.36 26.44 64.8 27.68 64.64 29.76C64.96 29.6 65.52 29.52 66.32 29.52C67.36 29.52 68.08 29.6 68.48 29.76V29.28C68.48 28 68.84 26.92 69.56 26.04ZM48.44 11.16H45.68C45.44 11.48 45.32 11.84 45.32 12.24C45.32 12.96 45.84 13.84 46.88 14.88V14.76C46.88 13.64 47.4 12.44 48.44 11.16ZM95.48 53.64L92.96 46.08H72.08V53.64H95.48ZM53.24 18.96C52.44 18.8 51.4 18.08 50.12 16.8C49.32 18 48.28 18.72 47 18.96C48.12 19.44 48.72 20.28 48.8 21.48C49.12 21.48 50.24 21.76 52.16 22.32V21.24C52.16 20.12 52.52 19.36 53.24 18.96ZM58.52 26.28C58.28 26.36 58.04 26.4 57.8 26.4C57 26.4 56.36 25.6 55.88 24C55.8 25.68 54.76 26.36 52.76 26.04C53.8 26.44 54.24 27.68 54.08 29.76C54.48 29.44 55.08 29.28 55.88 29.28C57 29.28 57.68 29.44 57.92 29.76C57.76 29.2 57.68 28.64 57.68 28.08C57.68 27.04 57.96 26.44 58.52 26.28ZM63.8 33.84C63.08 33.68 62.48 33.4 62 33C61.2 32.2 60.72 31.76 60.56 31.68C60.48 33.36 59.48 34.04 57.56 33.72C58.68 34.2 59.24 35.08 59.24 36.36C60.12 36.52 61.28 36.8 62.72 37.2V36.12C62.72 35 63.08 34.24 63.8 33.84ZM69.56 40.92L66.68 39.84C65.88 39.92 65.48 40.28 65.48 40.92C65.48 42.6 66.48 43.84 68.48 44.64C68.4 44.32 68.36 44 68.36 43.68C68.36 43.12 68.52 42.64 68.84 42.24C69.24 41.52 69.48 41.08 69.56 40.92ZM100.76 69C99.48 65.88 98.64 63.4 98.24 61.56H69.56L71.12 69H100.76ZM48.44 26.16C47.24 26.16 46.2 25.44 45.32 24C44.12 25.6 43.08 26.28 42.2 26.04C43.24 26.52 43.68 27.76 43.52 29.76C44.08 29.44 44.72 29.28 45.44 29.28C46.4 29.28 47.04 29.44 47.36 29.76C47.28 29.52 47.24 29.2 47.24 28.8C47.24 27.28 47.64 26.4 48.44 26.16ZM53.24 33.72C52.12 33.64 51.04 32.96 50 31.68C50 33.36 49.16 34.08 47.48 33.84C48.36 34.08 48.8 34.68 48.8 35.64C48.8 35.8 48.76 36.08 48.68 36.48C48.6 36.88 48.56 37.16 48.56 37.32V37.44C49.2 37.12 49.92 36.96 50.72 36.96C51.44 36.96 51.92 37.12 52.16 37.44V37.08C52.16 35.8 52.52 34.68 53.24 33.72ZM59 41.04C57.72 41.04 56.64 40.32 55.76 38.88C55.76 40.56 54.76 41.24 52.76 40.92C53.8 41.32 54.24 42.56 54.08 44.64C54.56 44.4 55.24 44.28 56.12 44.28C57.16 44.28 57.76 44.4 57.92 44.64C57.84 44.4 57.8 44.12 57.8 43.8C57.8 42.2 58.2 41.28 59 41.04ZM60.68 47.76V46.56C60.6 48.24 59.56 48.92 57.56 48.6C58.2 48.92 58.88 49.52 59.6 50.4C60.32 50.4 60.68 49.52 60.68 47.76ZM69.56 69C68.2 63.16 66.36 54.4 64.04 42.72L58.52 69H69.56ZM42.68 33.72C41.56 33.64 40.52 32.96 39.56 31.68C38.52 33.68 38 35.56 38 37.32V37.44C38.4 37.12 38.96 36.96 39.68 36.96C40.72 36.96 41.36 37.12 41.6 37.44L41.48 37.08C41.48 35.88 41.88 34.76 42.68 33.72ZM48.44 40.92C47.16 40.92 46.12 40.24 45.32 38.88C44.2 40.4 43.2 41.08 42.32 40.92C42.96 43.08 43.28 44.28 43.28 44.52C43.84 44.44 44.52 44.4 45.32 44.4C45.96 44.4 46.48 44.48 46.88 44.64C46.8 43.52 47.32 42.28 48.44 40.92ZM53.24 48.6C53.08 48.6 52 47.92 50 46.56C49.92 48.24 48.92 48.92 47 48.6C48.12 49.08 48.68 49.96 48.68 51.24C49.56 51.4 50.72 51.76 52.16 52.32V51.96C52.16 50.68 52.52 49.56 53.24 48.6ZM59 55.92C57.72 55.92 56.64 55.2 55.76 53.76C55.76 55.44 54.76 56.12 52.76 55.8C53.8 56.2 54.24 57.44 54.08 59.52C54.56 59.28 55.24 59.16 56.12 59.16C57.16 59.16 57.76 59.28 57.92 59.52C57.84 59.28 57.8 59 57.8 58.68C57.8 57.08 58.2 56.16 59 55.92ZM110.84 99.72C109.56 96.6 108.72 94.12 108.32 92.28H76.76C77.16 93.96 77.84 96.44 78.8 99.72H110.84ZM37.28 40.92H36.56L35.84 44.52H36.56L37.28 40.92ZM42.68 48.6C41.56 48.52 40.48 47.84 39.44 46.56C39.44 48.24 38.44 48.92 36.44 48.6C37.48 49.88 38 51.12 38 52.32C38.64 51.92 39.32 51.72 40.04 51.72C40.76 51.72 41.28 51.92 41.6 52.32V51.96C41.6 50.68 41.96 49.56 42.68 48.6ZM48.44 55.8C47.16 55.8 46.12 55.12 45.32 53.76C44.44 54.88 43.4 55.56 42.2 55.8C42.92 56.84 43.28 58.08 43.28 59.52C43.92 59.36 44.6 59.28 45.32 59.28C45.96 59.28 46.48 59.36 46.88 59.52C46.8 58.4 47.32 57.16 48.44 55.8ZM105.56 84.36L103.04 76.8H24.56C24.16 78.88 23.32 81.4 22.04 84.36H105.56ZM37.4 55.8C36.28 55.64 35.4 54.96 34.76 53.76C33.88 54.88 32.84 55.56 31.64 55.8C32.36 57.96 32.72 59.16 32.72 59.4C33.28 59.32 33.96 59.28 34.76 59.28C35.4 59.28 35.92 59.36 36.32 59.52V59.28C36.32 58.48 36.68 57.32 37.4 55.8ZM57.56 64.2C57.56 63.08 57.44 62.16 57.2 61.44H29.84C28.72 64.24 27.88 66.68 27.32 68.76H57.2C57.44 66.12 57.56 64.6 57.56 64.2ZM50.84 92.28H19.76C19.28 93.96 18.44 96.44 17.24 99.72H49.28L50.84 92.28ZM241.628 41.4L241.148 61.2C241.148 61.68 241.188 62.44 241.268 63.48C241.428 64.44 241.508 65.16 241.508 65.64C241.508 74.6 237.748 83.6 230.228 92.64C224.148 100 216.708 106.24 207.908 111.36C198.148 117.04 188.988 119.88 180.428 119.88C176.588 119.88 173.028 119.24 169.748 117.96L154.268 111.96C149.148 109.96 144.588 106.84 140.588 102.6C130.428 91.88 125.348 78.8 125.348 63.36C125.348 52.24 128.068 41.68 133.508 31.68C138.948 21.6 146.348 13.76 155.708 8.15999C164.668 2.8 174.428 0.119997 184.988 0.119997C196.828 0.119997 207.628 3.48 217.388 10.2C226.748 16.6 234.028 25.32 239.228 36.36C238.108 36.68 236.348 37.48 233.948 38.76V39.12C233.948 40.8 234.828 41.64 236.588 41.64C237.068 41.64 237.748 41.6 238.628 41.52C239.508 41.36 240.188 41.28 240.668 41.28C241.068 41.28 241.388 41.32 241.628 41.4ZM238.748 62.16V43.32C234.028 43.4 230.428 43.44 227.948 43.44C223.148 43.44 220.748 43.12 220.748 42.48C222.188 40.96 224.668 39.52 228.188 38.16C232.028 36.64 234.588 35.4 235.868 34.44C232.428 24.52 225.868 16.64 216.188 10.8C207.148 5.27999 197.148 2.51999 186.188 2.51999C170.348 2.51999 157.348 7.64 147.188 17.88C137.028 28.04 131.948 41.04 131.948 56.88C131.948 68.64 135.068 79.12 141.308 88.32C147.628 97.76 156.228 104.44 167.108 108.36C172.628 110.36 176.588 111.36 178.988 111.36H192.428C203.868 111.36 214.508 106 224.348 95.28C233.948 84.8 238.748 73.76 238.748 62.16ZM234.548 64.32C234.548 75.68 228.908 85.84 217.628 94.8C207.068 103.2 195.908 107.4 184.148 107.4C173.748 107.4 163.948 103.68 154.748 96.24C145.628 88.88 139.908 80.08 137.588 69.84C136.708 66 136.268 62.12 136.268 58.2C136.268 48.68 138.708 39.72 143.588 31.32C148.468 22.92 155.068 16.36 163.388 11.64C169.868 7.96 176.388 6.12 182.948 6.12C184.788 6.12 186.828 6.32 189.068 6.72C211.548 10.8 225.228 19.56 230.108 33L199.628 45.12C194.108 40.64 189.108 38.4 184.628 38.4C179.748 38.4 175.948 40.72 173.228 45.36C170.908 49.28 169.748 53.84 169.748 59.04C169.748 63.84 170.828 68 172.988 71.52C175.468 75.68 178.988 77.76 183.548 77.76C187.788 77.76 192.588 75.92 197.948 72.24C197.788 72.08 197.268 72 196.388 72C195.188 72 191.108 72.12 184.148 72.36V47.52H234.308C234.388 47.76 234.428 48 234.428 48.24C234.428 48.88 234.348 49.84 234.188 51.12C234.108 52.32 234.068 53.24 234.068 53.88C234.068 55.08 234.148 56.84 234.308 59.16C234.468 61.4 234.548 63.12 234.548 64.32ZM221.948 22.92C217.628 17.88 211.908 15.36 204.788 15.36C203.828 15.36 202.708 15.4 201.428 15.48V22.92H221.948ZM198.908 11.16C198.188 11.16 197.348 10.88 196.388 10.32C196.228 10.32 195.988 10.6 195.668 11.16H193.148C193.628 12.12 194.068 13.36 194.468 14.88C195.188 14.64 195.828 14.52 196.388 14.52C197.028 14.52 197.508 14.64 197.828 14.88C197.828 13.84 198.188 12.6 198.908 11.16ZM228.188 31.68C226.988 31.12 222.828 30.76 215.708 30.6L201.908 30.24C201.668 31.44 201.548 32.84 201.548 34.44C201.548 36.04 201.668 37.32 201.908 38.28C203.108 38.52 204.348 38.64 205.628 38.64C209.468 38.64 213.308 37.84 217.148 36.24L228.188 31.68ZM188.828 11.16C187.548 11.16 186.468 10.48 185.588 9.12C185.588 9.99999 184.588 10.8 182.588 11.52C183.548 12.56 184.068 13.68 184.148 14.88C184.628 14.64 185.228 14.52 185.948 14.52C186.988 14.52 187.588 14.64 187.748 14.88C187.668 14.56 187.628 14.24 187.628 13.92C187.708 13.6 188.108 12.68 188.828 11.16ZM193.628 18.84C192.508 18.76 191.468 18.08 190.508 16.8C190.108 17.76 189.228 18.44 187.868 18.84C188.668 20.36 189.028 21.6 188.948 22.56C189.348 22.32 189.948 22.2 190.748 22.2C191.628 22.2 192.228 22.32 192.548 22.56V22.2C192.548 20.92 192.908 19.8 193.628 18.84ZM198.908 26.04C197.788 25.88 196.908 25.2 196.268 24C195.068 25.6 194.028 26.28 193.148 26.04C193.868 27 194.228 28.24 194.228 29.76C194.868 29.6 195.548 29.52 196.268 29.52C196.908 29.52 197.428 29.6 197.828 29.76V29.52C197.828 28.72 198.188 27.56 198.908 26.04ZM232.868 53.16V49.56H201.428V53.16H232.868ZM178.268 11.16C177.228 11.16 176.188 10.64 175.148 9.6C174.828 10.24 173.788 10.96 172.028 11.76C172.908 12.48 173.348 13.52 173.348 14.88C173.908 14.64 174.628 14.52 175.508 14.52C176.468 14.52 177.028 14.64 177.188 14.88C177.108 14.56 177.068 14.24 177.068 13.92C177.148 13.6 177.548 12.68 178.268 11.16ZM183.068 18.84C182.908 18.84 181.828 18.16 179.828 16.8C179.428 17.76 178.588 18.44 177.308 18.84C178.108 20.36 178.468 21.6 178.388 22.56C178.788 22.32 179.388 22.2 180.188 22.2C181.068 22.2 181.668 22.32 181.988 22.56V22.2C181.988 20.92 182.348 19.8 183.068 18.84ZM188.348 26.28C188.108 26.36 187.868 26.4 187.628 26.4C186.828 26.4 186.188 25.6 185.708 24C185.628 25.68 184.588 26.36 182.588 26.04C183.628 26.44 184.068 27.68 183.908 29.76C184.228 29.6 184.788 29.52 185.588 29.52C186.628 29.52 187.348 29.56 187.748 29.64C187.668 29 187.628 28.44 187.628 27.96C187.628 27 187.868 26.44 188.348 26.28ZM193.628 33.72C192.828 33.64 191.788 32.96 190.508 31.68C189.468 33.12 188.428 33.84 187.388 33.84C188.348 34.72 190.068 35.72 192.548 36.84V35.88C192.548 35 192.908 34.28 193.628 33.72ZM166.748 14.76C166.508 14.52 166.388 14.08 166.388 13.44C166.388 12.8 166.508 12.36 166.748 12.12C165.148 12.6 163.708 13.48 162.428 14.76C162.908 14.6 163.508 14.52 164.228 14.52C164.548 14.52 164.948 14.56 165.428 14.64C165.988 14.72 166.428 14.76 166.748 14.76ZM172.508 18.96C171.948 18.8 171.348 18.44 170.708 17.88C170.068 17.32 169.588 16.96 169.268 16.8C168.868 18 168.028 18.68 166.748 18.84C167.628 20.2 167.988 21.4 167.828 22.44C168.468 22.2 169.308 22.08 170.348 22.08C170.908 22.08 171.268 22.16 171.428 22.32C171.348 22 171.308 21.68 171.308 21.36C171.308 20.24 171.708 19.44 172.508 18.96ZM178.268 26.16C176.988 26.16 175.948 25.44 175.148 24C174.748 24.96 173.868 25.64 172.508 26.04C173.308 27.64 173.588 28.84 173.348 29.64C173.828 29.48 174.508 29.4 175.388 29.4C176.428 29.4 177.028 29.52 177.188 29.76C177.108 29.52 177.068 29.24 177.068 28.92C177.068 27.32 177.468 26.4 178.268 26.16ZM183.068 33.72C182.908 33.72 181.828 33.04 179.828 31.68C179.428 32.72 178.588 33.4 177.308 33.72C178.268 35.24 178.628 36.44 178.388 37.32C179.028 37 179.948 36.84 181.148 36.84C181.548 36.84 181.828 36.88 181.988 36.96V36C181.988 35.12 182.348 34.36 183.068 33.72ZM232.268 64.44C232.268 63.16 232.148 62.04 231.908 61.08H185.588V68.52H231.908C232.148 67.16 232.268 65.8 232.268 64.44ZM192.308 51V50.28L188.948 49.32V50.04L192.308 51ZM198.908 55.32C197.788 55.16 196.908 54.48 196.268 53.28C196.188 54.88 195.188 55.56 193.268 55.32C193.668 56.28 194.068 57.52 194.468 59.04C195.188 58.8 195.828 58.68 196.388 58.68C197.028 58.68 197.508 58.8 197.828 59.04V58.8C197.748 58 198.108 56.84 198.908 55.32ZM161.948 18.96C161.388 18.8 160.788 18.44 160.148 17.88C159.508 17.32 159.028 16.96 158.708 16.8C158.308 18 157.468 18.68 156.188 18.84C157.068 20.2 157.428 21.4 157.268 22.44C157.908 22.2 158.748 22.08 159.788 22.08C160.348 22.08 160.708 22.16 160.868 22.32C160.788 22 160.748 21.68 160.748 21.36C160.748 20.24 161.148 19.44 161.948 18.96ZM167.708 26.16C166.428 26.16 165.388 25.44 164.588 24C164.188 24.96 163.308 25.64 161.948 26.04C162.748 27.64 163.028 28.84 162.788 29.64C163.268 29.48 163.948 29.4 164.828 29.4C165.868 29.4 166.468 29.52 166.628 29.76C166.548 29.52 166.508 29.24 166.508 28.92C166.508 27.32 166.908 26.4 167.708 26.16ZM172.508 33.72C171.708 33.56 171.108 33.28 170.708 32.88C169.828 32.16 169.348 31.76 169.268 31.68C168.868 32.72 168.028 33.4 166.748 33.72C167.708 35.24 168.068 36.44 167.828 37.32C168.308 37.08 168.908 36.96 169.628 36.96C170.348 36.96 170.948 37.12 171.428 37.44C171.428 35.92 171.788 34.68 172.508 33.72ZM175.508 39.72V39.36C175.348 39.52 174.748 39.84 173.708 40.32C172.748 40.8 172.188 41 172.028 40.92L173.708 42.72C174.908 41.52 175.508 40.52 175.508 39.72ZM188.828 55.92C187.228 55.12 186.148 54.24 185.588 53.28C185.748 55.2 185.868 56.28 185.948 56.52C186.188 57.64 186.788 58.48 187.748 59.04V58.44C187.748 57.48 188.108 56.64 188.828 55.92ZM156.668 26.28C156.428 26.36 156.188 26.4 155.948 26.4C155.228 26.4 154.588 25.6 154.028 24C153.628 24.96 152.748 25.64 151.388 26.04C152.188 27.56 152.548 28.8 152.468 29.76C152.948 29.52 153.548 29.4 154.268 29.4C155.308 29.4 155.908 29.52 156.068 29.76C155.908 29.2 155.828 28.68 155.828 28.2C155.828 27.08 156.108 26.44 156.668 26.28ZM161.948 33.72C161.148 33.56 160.548 33.28 160.148 32.88C159.268 32.16 158.788 31.76 158.708 31.68C158.308 32.72 157.468 33.4 156.188 33.72C157.148 35.24 157.508 36.44 157.268 37.32C157.748 37.08 158.348 36.96 159.068 36.96C159.788 36.96 160.388 37.12 160.868 37.44C160.868 35.92 161.228 34.68 161.948 33.72ZM167.708 41.04C166.588 40.96 165.508 40.24 164.468 38.88C164.468 40.56 163.468 41.24 161.468 40.92C162.508 41.4 162.948 42.64 162.788 44.64C163.188 44.32 163.788 44.16 164.588 44.16C165.708 44.16 166.388 44.32 166.628 44.64C166.548 44.4 166.508 44.12 166.508 43.8C166.508 42.28 166.908 41.36 167.708 41.04ZM170.228 48C170.228 47.28 170.108 46.8 169.868 46.56C168.908 47.6 167.868 48.12 166.748 48.12C167.228 49.08 167.668 50.32 168.068 51.84C169.508 51.28 170.228 50 170.228 48ZM151.388 33.72C150.588 33.56 149.988 33.28 149.588 32.88C148.708 32.16 148.228 31.76 148.148 31.68C147.668 32.88 146.828 33.56 145.628 33.72C146.508 35.08 146.868 36.28 146.708 37.32C147.188 37.08 147.788 36.96 148.508 36.96C149.228 36.96 149.828 37.12 150.308 37.44C150.308 36.16 150.668 34.92 151.388 33.72ZM157.148 40.92C156.828 41 156.548 41.04 156.308 41.04C155.268 41.04 154.508 40.32 154.028 38.88C153.948 40.56 152.908 41.24 150.908 40.92C151.948 42.28 152.468 43.52 152.468 44.64C152.868 44.32 153.428 44.16 154.148 44.16C155.188 44.16 155.828 44.32 156.068 44.64L155.948 44.28C155.868 43.08 156.268 41.96 157.148 40.92ZM161.948 48.12C160.908 48.12 159.868 47.6 158.828 46.56C157.948 47.76 157.108 48.28 156.308 48.12C156.948 50.36 157.268 51.6 157.268 51.84C157.588 51.68 158.148 51.6 158.948 51.6C159.748 51.6 160.388 51.64 160.868 51.72C160.788 51.4 160.748 51.08 160.748 50.76C160.828 50.36 161.228 49.48 161.948 48.12ZM167.708 55.32C166.428 55.32 165.348 54.64 164.468 53.28C164.468 54.32 163.468 55.2 161.468 55.92C162.348 56.64 162.788 57.68 162.788 59.04C163.348 58.8 164.068 58.68 164.948 58.68C165.908 58.68 166.468 58.8 166.628 59.04C166.468 58.64 166.388 58.28 166.388 57.96L167.708 55.32ZM230.108 76.32H199.748C198.868 76.32 196.988 77 194.108 78.36C191.228 79.64 188.748 80.28 186.668 80.28C183.468 80.28 180.468 79.52 177.668 78C175.988 77.12 174.828 76.56 174.188 76.32H141.308C142.028 78.08 143.188 80.64 144.788 84H226.148C227.988 80.96 229.308 78.4 230.108 76.32ZM146.588 40.92C145.468 40.84 144.428 40.16 143.468 38.88C142.268 40.48 141.228 41.16 140.348 40.92C141.388 41.4 141.828 42.64 141.668 44.64C142.068 44.32 142.668 44.16 143.468 44.16C144.588 44.16 145.268 44.32 145.508 44.64V44.28C145.508 43 145.868 41.88 146.588 40.92ZM151.388 48.12C150.348 48.12 149.308 47.6 148.268 46.56C147.388 47.76 146.548 48.24 145.748 48C145.748 48.4 145.908 49.04 146.228 49.92C146.548 50.72 146.708 51.36 146.708 51.84C147.028 51.68 147.588 51.6 148.388 51.6C149.188 51.6 149.828 51.68 150.308 51.84V51.48C150.308 49.96 150.668 48.84 151.388 48.12ZM157.148 55.92C156.268 55.52 155.228 54.8 154.028 53.76C153.708 54.4 152.668 55.12 150.908 55.92C151.788 56.64 152.228 57.68 152.228 59.04C152.788 58.8 153.468 58.68 154.268 58.68C155.308 58.68 155.908 58.8 156.068 59.04C155.988 58.88 155.948 58.68 155.948 58.44C155.948 57.48 156.348 56.64 157.148 55.92ZM220.028 91.32H150.908C151.468 92.2 153.068 93.76 155.708 96C158.428 98.24 160.148 99.36 160.868 99.36H209.708C210.348 99.36 212.108 98.2 214.988 95.88C217.948 93.56 219.628 92.04 220.028 91.32ZM139.748 51.72L139.508 48.12H138.668L138.908 51.72H139.748ZM169.628 61.56H138.788C138.708 61.96 138.668 62.36 138.668 62.76V68.52H169.508V66.36C169.508 65.56 169.508 64.88 169.508 64.32C169.428 63.84 169.388 63.76 169.388 64.08V63.36C169.388 62.72 169.468 62.12 169.628 61.56ZM146.588 55.92C145.068 55.2 144.028 54.32 143.468 53.28C143.148 54.24 142.268 55.08 140.828 55.8C141.468 56.6 141.788 57.36 141.788 58.08C141.788 58.4 141.748 58.68 141.668 58.92C142.308 58.84 143.028 58.8 143.828 58.8C144.628 58.8 145.188 58.88 145.508 59.04V58.44C145.508 57.56 145.868 56.72 146.588 55.92ZM368.708 112.68C367.908 112.44 366.308 112.32 363.908 112.32C363.828 112.56 363.788 112.88 363.788 113.28C363.788 114.32 364.188 115.72 364.988 117.48H314.108C314.428 116.52 314.588 115.52 314.588 114.48C314.588 112.08 313.748 109.88 312.068 107.88C310.388 105.88 308.348 104.88 305.948 104.88C302.508 104.88 300.708 107.32 300.548 112.2C297.988 112.12 296.548 113.88 296.228 117.48H245.948L281.108 5.76C282.548 5.76 283.668 5.24 284.468 4.19999C284.708 3.79999 285.188 2.55999 285.908 0.479992H332.228L368.708 112.68ZM365.468 109.8L330.308 3.11999H287.348L253.628 109.8H298.628L301.508 97.92H317.108C317.828 99.76 318.948 103.72 320.468 109.8H365.468ZM359.708 105.48H323.828C323.188 102.84 322.068 98.88 320.468 93.6H298.148C296.788 97.2 295.828 101.16 295.268 105.48H259.388L290.708 7.2H327.428L359.708 105.48ZM330.908 22.92C329.788 20.12 328.948 17.48 328.388 15H317.588V22.92H330.908ZM315.068 11.16C314.748 11.24 314.468 11.28 314.228 11.28C313.188 11.28 312.428 10.56 311.948 9.12C311.868 10.8 310.828 11.48 308.828 11.16C309.868 12.52 310.388 13.76 310.388 14.88C310.788 14.64 311.388 14.52 312.188 14.52C313.068 14.52 313.668 14.64 313.988 14.88V14.4C313.988 13.12 314.348 12.04 315.068 11.16ZM335.708 38.28C335.308 36.36 334.468 33.84 333.188 30.72H317.588V38.28H335.708ZM304.508 11.28C303.308 11.28 302.268 10.56 301.388 9.12C300.188 10.72 299.148 11.4 298.268 11.16C299.308 11.64 299.748 12.88 299.588 14.88C299.988 14.56 300.588 14.4 301.388 14.4C302.508 14.4 303.188 14.56 303.428 14.88C303.348 14.64 303.308 14.36 303.308 14.04C303.308 12.52 303.708 11.6 304.508 11.28ZM309.308 18.96C308.748 18.8 308.148 18.44 307.508 17.88C306.868 17.32 306.388 16.96 306.068 16.8C305.668 17.84 304.828 18.56 303.548 18.96C304.428 19.84 304.788 21.04 304.628 22.56C305.268 22.16 306.028 21.96 306.908 21.96C307.548 21.96 307.988 22.08 308.228 22.32C308.148 21.92 308.108 21.6 308.108 21.36C308.108 20.16 308.508 19.36 309.308 18.96ZM315.068 26.04C314.748 26.12 314.468 26.16 314.228 26.16C313.188 26.16 312.428 25.44 311.948 24C311.868 25.68 310.828 26.36 308.828 26.04C309.868 26.44 310.308 27.68 310.148 29.76C310.468 29.6 311.028 29.52 311.828 29.52C312.868 29.52 313.588 29.6 313.988 29.76V29.28C313.988 28 314.348 26.92 315.068 26.04ZM293.948 11.16H291.188C290.948 11.48 290.828 11.84 290.828 12.24C290.828 12.96 291.348 13.84 292.388 14.88V14.76C292.388 13.64 292.908 12.44 293.948 11.16ZM340.988 53.64L338.468 46.08H317.588V53.64H340.988ZM298.748 18.96C297.948 18.8 296.908 18.08 295.628 16.8C294.828 18 293.788 18.72 292.508 18.96C293.628 19.44 294.228 20.28 294.308 21.48C294.628 21.48 295.748 21.76 297.668 22.32V21.24C297.668 20.12 298.028 19.36 298.748 18.96ZM304.028 26.28C303.788 26.36 303.548 26.4 303.308 26.4C302.508 26.4 301.868 25.6 301.388 24C301.308 25.68 300.268 26.36 298.268 26.04C299.308 26.44 299.748 27.68 299.588 29.76C299.988 29.44 300.588 29.28 301.388 29.28C302.508 29.28 303.188 29.44 303.428 29.76C303.268 29.2 303.188 28.64 303.188 28.08C303.188 27.04 303.468 26.44 304.028 26.28ZM309.308 33.84C308.588 33.68 307.988 33.4 307.508 33C306.708 32.2 306.228 31.76 306.068 31.68C305.988 33.36 304.988 34.04 303.068 33.72C304.188 34.2 304.748 35.08 304.748 36.36C305.628 36.52 306.788 36.8 308.228 37.2V36.12C308.228 35 308.588 34.24 309.308 33.84ZM315.068 40.92L312.188 39.84C311.388 39.92 310.988 40.28 310.988 40.92C310.988 42.6 311.988 43.84 313.988 44.64C313.908 44.32 313.868 44 313.868 43.68C313.868 43.12 314.028 42.64 314.348 42.24C314.748 41.52 314.988 41.08 315.068 40.92ZM346.268 69C344.988 65.88 344.148 63.4 343.748 61.56H315.068L316.628 69H346.268ZM293.948 26.16C292.748 26.16 291.708 25.44 290.828 24C289.628 25.6 288.588 26.28 287.708 26.04C288.748 26.52 289.188 27.76 289.028 29.76C289.588 29.44 290.228 29.28 290.948 29.28C291.908 29.28 292.548 29.44 292.868 29.76C292.788 29.52 292.748 29.2 292.748 28.8C292.748 27.28 293.148 26.4 293.948 26.16ZM298.748 33.72C297.628 33.64 296.548 32.96 295.508 31.68C295.508 33.36 294.668 34.08 292.988 33.84C293.868 34.08 294.308 34.68 294.308 35.64C294.308 35.8 294.268 36.08 294.188 36.48C294.108 36.88 294.068 37.16 294.068 37.32V37.44C294.708 37.12 295.428 36.96 296.228 36.96C296.948 36.96 297.428 37.12 297.668 37.44V37.08C297.668 35.8 298.028 34.68 298.748 33.72ZM304.508 41.04C303.228 41.04 302.148 40.32 301.268 38.88C301.268 40.56 300.268 41.24 298.268 40.92C299.308 41.32 299.748 42.56 299.588 44.64C300.068 44.4 300.748 44.28 301.628 44.28C302.668 44.28 303.268 44.4 303.428 44.64C303.348 44.4 303.308 44.12 303.308 43.8C303.308 42.2 303.708 41.28 304.508 41.04ZM306.188 47.76V46.56C306.108 48.24 305.068 48.92 303.068 48.6C303.708 48.92 304.388 49.52 305.108 50.4C305.828 50.4 306.188 49.52 306.188 47.76ZM315.068 69C313.708 63.16 311.868 54.4 309.548 42.72L304.028 69H315.068ZM288.188 33.72C287.068 33.64 286.028 32.96 285.068 31.68C284.028 33.68 283.508 35.56 283.508 37.32V37.44C283.908 37.12 284.468 36.96 285.188 36.96C286.228 36.96 286.868 37.12 287.108 37.44L286.988 37.08C286.988 35.88 287.388 34.76 288.188 33.72ZM293.948 40.92C292.668 40.92 291.628 40.24 290.828 38.88C289.708 40.4 288.708 41.08 287.828 40.92C288.468 43.08 288.788 44.28 288.788 44.52C289.348 44.44 290.028 44.4 290.828 44.4C291.468 44.4 291.988 44.48 292.388 44.64C292.308 43.52 292.828 42.28 293.948 40.92ZM298.748 48.6C298.588 48.6 297.508 47.92 295.508 46.56C295.428 48.24 294.428 48.92 292.508 48.6C293.628 49.08 294.188 49.96 294.188 51.24C295.068 51.4 296.228 51.76 297.668 52.32V51.96C297.668 50.68 298.028 49.56 298.748 48.6ZM304.508 55.92C303.228 55.92 302.148 55.2 301.268 53.76C301.268 55.44 300.268 56.12 298.268 55.8C299.308 56.2 299.748 57.44 299.588 59.52C300.068 59.28 300.748 59.16 301.628 59.16C302.668 59.16 303.268 59.28 303.428 59.52C303.348 59.28 303.308 59 303.308 58.68C303.308 57.08 303.708 56.16 304.508 55.92ZM356.348 99.72C355.068 96.6 354.228 94.12 353.828 92.28H322.268C322.668 93.96 323.348 96.44 324.308 99.72H356.348ZM282.788 40.92H282.068L281.348 44.52H282.068L282.788 40.92ZM288.188 48.6C287.068 48.52 285.988 47.84 284.948 46.56C284.948 48.24 283.948 48.92 281.948 48.6C282.988 49.88 283.508 51.12 283.508 52.32C284.148 51.92 284.828 51.72 285.548 51.72C286.268 51.72 286.788 51.92 287.108 52.32V51.96C287.108 50.68 287.468 49.56 288.188 48.6ZM293.948 55.8C292.668 55.8 291.628 55.12 290.828 53.76C289.948 54.88 288.908 55.56 287.708 55.8C288.428 56.84 288.788 58.08 288.788 59.52C289.428 59.36 290.108 59.28 290.828 59.28C291.468 59.28 291.988 59.36 292.388 59.52C292.308 58.4 292.828 57.16 293.948 55.8ZM351.068 84.36L348.548 76.8H270.068C269.668 78.88 268.828 81.4 267.548 84.36H351.068ZM282.908 55.8C281.788 55.64 280.908 54.96 280.268 53.76C279.388 54.88 278.348 55.56 277.148 55.8C277.868 57.96 278.228 59.16 278.228 59.4C278.788 59.32 279.468 59.28 280.268 59.28C280.908 59.28 281.428 59.36 281.828 59.52V59.28C281.828 58.48 282.188 57.32 282.908 55.8ZM303.068 64.2C303.068 63.08 302.948 62.16 302.708 61.44H275.348C274.228 64.24 273.388 66.68 272.828 68.76H302.708C302.948 66.12 303.068 64.6 303.068 64.2ZM296.348 92.28H265.268C264.788 93.96 263.948 96.44 262.748 99.72H294.788L296.348 92.28ZM423.656 113.28H419.816C419.336 114.16 419.176 115.88 419.336 118.44H371.576V5.76H375.416C375.736 4.88 375.896 3.32 375.896 1.08H423.656V113.28ZM421.256 110.76V3.48H378.296V110.76H421.256ZM416.936 106.44H382.856V7.8H416.936V106.44ZM415.496 22.2V14.52H408.536V22.2C409.656 22.36 410.696 22.44 411.656 22.44H412.616C413.576 22.44 414.536 22.36 415.496 22.2ZM406.016 10.68C404.976 10.68 403.936 10.16 402.896 9.12C401.776 10.24 400.736 10.8 399.776 10.8C400.816 11.2 401.256 12.4 401.096 14.4C401.496 14.08 402.096 13.92 402.896 13.92C404.016 13.92 404.696 14.08 404.936 14.4V14.04C404.936 12.76 405.296 11.64 406.016 10.68ZM395.456 10.68C394.896 10.68 394.216 10.44 393.416 9.96C392.616 9.48 392.056 9.19999 391.736 9.12C390.856 10.32 390.016 10.84 389.216 10.68C390.176 12.04 390.536 13.28 390.296 14.4C390.456 14.08 390.936 13.92 391.736 13.92C392.456 13.92 393.176 14.08 393.896 14.4V13.92C393.896 12.8 394.416 11.72 395.456 10.68ZM400.256 18.36C399.136 18.36 398.096 17.52 397.136 15.84C397.056 17.12 396.016 18 394.016 18.48C395.056 18.96 395.576 19.6 395.576 20.4C395.496 20.64 395.336 21.16 395.096 21.96C395.896 21.72 396.776 21.6 397.736 21.6C398.376 21.6 398.856 21.68 399.176 21.84V20.76C399.176 19.72 399.536 18.92 400.256 18.36ZM415.496 37.8V30.36H408.536V37.8H415.496ZM406.016 25.56C405.696 25.64 405.416 25.68 405.176 25.68C404.136 25.68 403.376 24.96 402.896 23.52C402.816 25.2 401.776 25.88 399.776 25.56C400.816 25.96 401.256 27.2 401.096 29.28C401.576 29.04 402.256 28.92 403.136 28.92C404.176 28.92 404.776 29.04 404.936 29.28V28.92C404.936 27.64 405.296 26.52 406.016 25.56ZM389.696 18.36C388.496 18.12 387.456 17.28 386.576 15.84C386.256 16.72 385.336 17.48 383.816 18.12C383.736 18.44 383.936 18.84 384.416 19.32C384.976 19.72 385.216 20.04 385.136 20.28L384.536 22.08C385.016 21.52 385.696 21.24 386.576 21.24C386.816 21.24 387.176 21.28 387.656 21.36C388.136 21.44 388.496 21.48 388.736 21.48C388.656 21.32 388.616 21.12 388.616 20.88C388.616 20.08 388.976 19.24 389.696 18.36ZM395.456 25.56C394.176 25.56 393.136 24.88 392.336 23.52C391.456 24.64 390.416 25.32 389.216 25.56C389.936 26.6 390.296 27.84 390.296 29.28C390.936 29.12 391.616 29.04 392.336 29.04C392.976 29.04 393.496 29.12 393.896 29.28C393.816 28.16 394.336 26.92 395.456 25.56ZM400.256 33.36C399.136 33.28 398.056 32.56 397.016 31.2C397.016 32.88 396.016 33.56 394.016 33.24C394.816 33.64 395.216 34.4 395.216 35.52C395.216 36 395.176 36.44 395.096 36.84C395.896 36.6 396.776 36.48 397.736 36.48C398.376 36.48 398.856 36.56 399.176 36.72V35.64C399.176 34.6 399.536 33.84 400.256 33.36ZM415.376 53.16V45.72H408.536V53.16H415.376ZM406.016 40.44C404.736 40.44 403.656 39.76 402.776 38.4C402.776 39.28 401.776 40.08 399.776 40.8C400.656 41.52 401.096 42.64 401.096 44.16C401.656 43.92 402.336 43.8 403.136 43.8C404.176 43.8 404.776 43.92 404.936 44.16C404.856 43.84 404.816 43.52 404.816 43.2C404.816 42.64 404.976 42.16 405.296 41.76C405.696 41.04 405.936 40.6 406.016 40.44ZM389.696 33.24C388.576 33.24 387.536 32.56 386.576 31.2C385.936 32.56 385.256 33.24 384.536 33.24V34.44C384.616 35 384.656 35.44 384.656 35.76C384.656 36.24 384.576 36.6 384.416 36.84C385.216 36.68 385.976 36.6 386.696 36.6C387.576 36.6 388.216 36.72 388.616 36.96V36.6C388.616 35.32 388.976 34.2 389.696 33.24ZM394.976 40.44C393.856 40.28 392.976 39.6 392.336 38.4C391.456 39.52 390.416 40.2 389.216 40.44C389.616 41.32 389.976 42.56 390.296 44.16C390.616 44 391.296 43.92 392.336 43.92C393.056 43.92 393.576 44 393.896 44.16V43.8C393.896 43 394.256 41.88 394.976 40.44ZM400.256 48.12C399.136 48.04 398.056 47.36 397.016 46.08C397.016 47.76 396.016 48.44 394.016 48.12C395.056 48.52 395.496 49.76 395.336 51.84C396.056 51.44 397.336 51.32 399.176 51.48C399.096 51.32 399.056 51.08 399.056 50.76C399.056 49.96 399.456 49.08 400.256 48.12ZM406.016 55.92C404.496 55.12 403.456 54.24 402.896 53.28C402.816 54.32 401.776 55.2 399.776 55.92C400.896 56.72 401.456 57.52 401.456 58.32C401.456 58.48 401.416 58.68 401.336 58.92C401.816 58.68 402.456 58.56 403.256 58.56C403.976 58.56 404.456 58.72 404.696 59.04C404.456 58.72 404.336 58.4 404.336 58.08C404.336 57.84 404.896 57.12 406.016 55.92ZM389.696 48.24C388.416 48.24 387.376 47.52 386.576 46.08C385.936 47.44 385.256 48.12 384.536 48.12V49.32C384.616 49.88 384.656 50.32 384.656 50.64C384.656 51.12 384.576 51.48 384.416 51.72C384.896 51.64 385.456 51.6 386.096 51.6H387.416C387.976 51.68 388.416 51.72 388.736 51.72C388.656 51.48 388.616 51.16 388.616 50.76C388.616 49.32 388.976 48.48 389.696 48.24ZM395.456 55.92C394.016 55.04 393.216 54.56 393.056 54.48C392.576 54.48 392.136 54.72 391.736 55.2C390.536 55.2 389.696 55.44 389.216 55.92C390.176 56.64 390.496 57.64 390.176 58.92H391.496C392.056 58.84 392.456 58.8 392.696 58.8C393.256 58.8 393.656 58.88 393.896 59.04V58.92C393.896 57.88 394.416 56.88 395.456 55.92ZM415.496 65.4V64.32C415.496 63.36 415.416 62.32 415.256 61.2H384.536V68.76H415.256C415.416 67.48 415.496 66.36 415.496 65.4ZM415.496 80.76V79.68C415.496 78.72 415.416 77.68 415.256 76.56H384.536V84.12H415.256C415.416 82.84 415.496 81.72 415.496 80.76ZM415.496 96.48V95.52C415.496 94.48 415.416 93.4 415.256 92.28H384.536V99.72H415.256C415.416 98.6 415.496 97.52 415.496 96.48ZM538.826 113.76H534.146C533.826 114.64 533.666 116.4 533.666 119.04H489.746L479.546 101.28V113.76H474.626C474.306 114.64 474.146 116.36 474.146 118.92H427.346V5.76H432.146C432.466 4.88 432.626 3.08 432.626 0.359994H476.546L486.746 18.24V5.76H491.666C492.066 4.56 492.226 2.76 492.146 0.359994H538.826V113.76ZM536.546 111.24V3H494.186V34.2C493.626 34.28 493.146 34.32 492.746 34.32C491.866 34.32 491.186 34 490.706 33.36C490.546 33.04 489.826 31.24 488.546 27.96C485.746 20.76 481.266 12.4 475.106 2.88H435.506V111.24H477.146V81.48C477.386 81.32 478.106 80.88 479.306 80.16L496.946 111.24H536.546ZM532.226 106.92H499.346L472.466 57.6C471.986 58.48 471.746 59.6 471.746 60.96C471.746 62 471.906 63.56 472.226 65.64C472.626 67.64 472.826 69.16 472.826 70.2V106.92H439.826V7.2H472.706L500.786 59.04C500.706 56.96 500.266 52.2 499.466 44.76L498.746 37.8V7.32H532.226V106.92ZM530.306 22.44V14.52H500.786V22.44H530.306ZM530.306 37.8V30.36H500.786V37.8H530.306ZM530.306 53.64V45.72H501.746C501.586 46.44 501.506 47.32 501.506 48.36C501.506 48.92 501.546 49.8 501.626 51C501.706 52.2 501.746 53.08 501.746 53.64H530.306ZM472.826 10.8C471.386 10.08 470.506 9.35999 470.186 8.63999C469.866 9.28 468.826 9.96 467.066 10.68C467.786 11.8 468.146 13.04 468.146 14.4C468.626 13.84 469.306 13.56 470.186 13.56C470.426 13.56 470.786 13.6 471.266 13.68C471.746 13.76 472.106 13.8 472.346 13.8C472.266 13.64 472.226 13.4 472.226 13.08C472.226 12.36 472.426 11.6 472.826 10.8ZM477.026 21.24C477.026 20.76 476.506 18.96 475.466 15.84C474.666 16.96 473.626 17.64 472.346 17.88C473.066 20.76 473.426 22 473.426 21.6C473.746 21.36 474.946 21.24 477.026 21.24ZM482.306 28.68C481.826 27.8 480.786 26.64 479.186 25.2C479.106 25.52 479.066 26 479.066 26.64V27.24C479.066 27.96 479.106 28.64 479.186 29.28C480.146 28.8 480.906 28.56 481.466 28.56C481.786 28.56 482.066 28.6 482.306 28.68ZM485.426 36.48L483.386 33.12L482.786 33.36L484.826 36.72L485.426 36.48ZM462.266 10.2C462.026 10.2 460.946 9.68 459.026 8.63999C458.786 9.2 457.786 9.92 456.026 10.8C457.066 11.04 457.586 12.2 457.586 14.28V14.4C458.146 14.08 458.786 13.92 459.506 13.92C460.146 13.92 460.706 14.08 461.186 14.4C461.186 13.84 461.546 12.44 462.266 10.2ZM467.426 17.88C467.186 17.96 466.946 18 466.706 18C465.666 18 464.906 17.28 464.426 15.84C464.346 16.72 463.306 17.52 461.306 18.24C462.186 18.96 462.626 20.08 462.626 21.6C463.106 21.44 463.746 21.36 464.546 21.36C465.506 21.36 466.146 21.4 466.466 21.48C466.386 21.16 466.346 20.84 466.346 20.52C466.346 20.12 466.506 19.6 466.826 18.96C467.226 18.24 467.426 17.88 467.426 17.88ZM472.826 25.8C472.586 25.88 472.346 25.92 472.106 25.92C471.386 25.92 470.746 25.12 470.186 23.52C469.306 24.64 468.266 25.32 467.066 25.56C467.786 26.6 468.146 27.84 468.146 29.28C468.946 29.04 469.706 28.92 470.426 28.92C471.226 28.92 471.826 29.04 472.226 29.28C472.066 28.64 471.986 28.04 471.986 27.48C471.986 26.52 472.266 25.96 472.826 25.8ZM478.586 33.24C478.346 33.32 478.106 33.36 477.866 33.36C477.306 33.36 476.706 33.04 476.066 32.4C475.506 31.68 475.106 31.28 474.866 31.2C474.466 32.4 473.626 33.08 472.346 33.24C473.226 34.6 473.546 35.8 473.306 36.84C473.946 36.76 474.666 36.72 475.466 36.72C476.186 36.72 476.746 36.76 477.146 36.84C476.906 36.52 476.786 36.2 476.786 35.88C476.786 35.08 477.386 34.2 478.586 33.24ZM483.866 40.44C482.826 40.44 481.786 39.92 480.746 38.88C479.866 40.08 479.026 40.6 478.226 40.44C478.866 42.76 479.186 44 479.186 44.16C479.346 44.08 479.626 44.04 480.026 44.04C481.146 44.04 482.066 44.24 482.786 44.64C482.786 44.08 483.146 42.68 483.866 40.44ZM530.306 69.12V61.56H503.066C503.226 61.88 503.306 62.2 503.306 62.52C503.306 63 503.066 63.24 502.586 63.24C502.186 63.24 501.506 62.96 500.546 62.4C499.586 61.76 499.066 61.44 498.986 61.44H476.186C477.146 63.84 478.466 66.4 480.146 69.12H530.306ZM489.026 48.12C488.786 48.2 488.546 48.24 488.306 48.24C487.266 48.24 486.506 47.52 486.026 46.08C485.946 47.12 484.906 48 482.906 48.72C483.226 48.96 483.586 49.44 483.986 50.16C484.386 50.88 484.506 51.4 484.346 51.72C484.746 51.64 485.306 51.6 486.026 51.6C487.066 51.6 487.746 51.68 488.066 51.84C487.986 51.44 487.946 51.08 487.946 50.76C487.946 50.36 488.106 49.84 488.426 49.2C488.826 48.48 489.026 48.12 489.026 48.12ZM451.706 10.8C450.266 9.92 449.466 9.44 449.306 9.35999C448.906 9.35999 448.466 9.59999 447.986 10.08H445.466C446.186 12.64 446.546 14.08 446.546 14.4C447.426 13.92 448.226 13.68 448.946 13.68C449.346 13.68 449.746 13.76 450.146 13.92V13.8C450.146 12.76 450.666 11.76 451.706 10.8ZM494.906 55.8C493.786 55.72 492.746 55.04 491.786 53.76C490.906 54.96 489.866 55.68 488.666 55.92C489.706 56.32 490.146 57.52 489.986 59.52C490.386 59.2 490.986 59.04 491.786 59.04C492.906 59.04 493.586 59.2 493.826 59.52V59.16C493.826 57.88 494.186 56.76 494.906 55.8ZM456.506 17.88C455.386 17.8 454.346 17.12 453.386 15.84C452.906 16.96 452.026 17.64 450.746 17.88C451.466 19.32 451.826 20.56 451.826 21.6C452.306 21.36 452.946 21.24 453.746 21.24C454.466 21.24 455.026 21.36 455.426 21.6C455.346 21.28 455.306 21 455.306 20.76C455.306 19.64 455.706 18.68 456.506 17.88ZM462.266 25.56C462.106 25.56 461.026 24.88 459.026 23.52C458.946 25.2 457.946 25.88 456.026 25.56C457.066 26.92 457.586 28.16 457.586 29.28C458.146 28.96 458.986 28.8 460.106 28.8C460.666 28.8 461.026 28.88 461.186 29.04C461.106 28.8 461.066 28.56 461.066 28.32C461.066 27.44 461.466 26.52 462.266 25.56ZM467.546 33.24C466.426 33.16 465.386 32.48 464.426 31.2C463.546 32.4 462.506 33.12 461.306 33.36C462.346 33.76 462.786 34.96 462.626 36.96C462.946 36.8 463.506 36.72 464.306 36.72C465.346 36.72 466.066 36.8 466.466 36.96V36.48C466.466 35.28 466.826 34.2 467.546 33.24ZM473.306 40.44C472.026 40.44 470.986 39.76 470.186 38.4C469.546 39.28 468.506 40.16 467.066 41.04C468.106 41.36 468.626 41.96 468.626 42.84C468.626 43.4 468.466 44 468.146 44.64C468.626 43.92 469.226 43.56 469.946 43.56C470.426 43.56 471.186 43.88 472.226 44.52C471.986 44.12 471.866 43.72 471.866 43.32L473.306 40.44ZM530.306 84.96V76.92H484.826C486.026 79.88 487.346 82.56 488.786 84.96H530.306ZM478.106 48.12C476.986 47.96 476.106 47.28 475.466 46.08C474.586 47.2 473.546 47.88 472.346 48.12C472.746 49 473.106 50.24 473.426 51.84C473.746 51.68 474.426 51.6 475.466 51.6C476.186 51.6 476.706 51.68 477.026 51.84V51.48C477.026 50.68 477.386 49.56 478.106 48.12ZM445.946 17.88C444.666 17.88 443.626 17.2 442.826 15.84C441.786 17.52 441.266 19 441.266 20.28C441.266 20.84 441.466 21.28 441.866 21.6C442.666 21.36 443.266 21.24 443.666 21.24C443.906 21.24 444.306 21.32 444.866 21.48C444.786 21.16 444.746 20.84 444.746 20.52C444.826 20.2 445.226 19.32 445.946 17.88ZM484.346 55.8C484.106 55.88 483.866 55.92 483.626 55.92C483.066 55.92 482.466 55.6 481.826 54.96L480.626 53.76C480.546 55.44 479.546 56.16 477.626 55.92C478.826 56.24 479.426 56.92 479.426 57.96C479.426 58.12 479.386 58.4 479.306 58.8C479.226 59.12 479.186 59.36 479.186 59.52C479.906 59.2 480.786 59.04 481.826 59.04C482.306 59.04 482.626 59.12 482.786 59.28C482.706 57.76 483.226 56.6 484.346 55.8ZM451.706 25.56C451.466 25.64 451.226 25.68 450.986 25.68C450.426 25.68 449.826 25.36 449.186 24.72C448.626 24 448.226 23.6 447.986 23.52C447.506 24.72 446.666 25.4 445.466 25.56C446.186 26.68 446.546 27.92 446.546 29.28C447.026 28.64 447.586 28.32 448.226 28.32C448.626 28.32 449.066 28.48 449.546 28.8C450.106 29.04 450.466 29.16 450.626 29.16V28.2C450.626 26.76 450.986 25.88 451.706 25.56ZM456.506 33.36C455.786 33.2 455.186 32.92 454.706 32.52C453.906 31.72 453.426 31.28 453.266 31.2C453.186 32.88 452.186 33.56 450.266 33.24C451.386 33.72 451.946 34.6 451.946 35.88C452.826 36.04 453.986 36.32 455.426 36.72V35.64C455.426 34.52 455.786 33.76 456.506 33.36ZM462.146 40.44C461.906 40.52 461.666 40.56 461.426 40.56C460.386 40.56 459.626 39.84 459.146 38.4C458.746 39.36 457.866 40.04 456.506 40.44C457.306 41.96 457.666 43.2 457.586 44.16C457.746 44.08 458.026 44.04 458.426 44.04C459.546 44.04 460.466 44.24 461.186 44.64C461.186 44 461.506 42.6 462.146 40.44ZM530.306 100.32V92.76H493.466L497.426 100.32H530.306ZM467.546 48.12L464.666 47.04C463.866 47.6 462.746 48.08 461.306 48.48C462.186 49.2 462.626 50.32 462.626 51.84C463.106 51.68 463.746 51.6 464.546 51.6C465.506 51.6 466.146 51.64 466.466 51.72C466.386 51.4 466.346 51.08 466.346 50.76L467.546 48.12ZM469.586 55.8H468.866L468.146 59.4H468.866L469.586 55.8ZM445.946 33.36C444.746 33.36 443.706 32.64 442.826 31.2C441.786 32.24 441.266 33.84 441.266 36V36.48C441.586 36.32 441.946 36.24 442.346 36.24C443.306 36.24 444.146 36.48 444.866 36.96C444.786 36.64 444.746 36.32 444.746 36C444.746 34.48 445.146 33.6 445.946 33.36ZM451.706 41.04C450.346 40.48 449.306 39.6 448.586 38.4C447.706 39.52 446.666 40.2 445.466 40.44C446.186 43 446.546 44.4 446.546 44.64C447.426 44.16 448.226 43.92 448.946 43.92C449.346 43.92 449.746 44 450.146 44.16C450.066 43.2 450.586 42.16 451.706 41.04ZM456.506 48.12C456.346 48.12 455.266 47.44 453.266 46.08C452.866 47.2 452.026 47.88 450.746 48.12C451.466 49.64 451.826 50.88 451.826 51.84C452.226 51.68 452.786 51.6 453.506 51.6C454.466 51.6 455.106 51.68 455.426 51.84V51.6C455.426 50.08 455.786 48.92 456.506 48.12ZM462.746 55.8C461.866 55.8 460.626 55.12 459.026 53.76C458.946 55.44 457.946 56.12 456.026 55.8C457.066 57.08 457.586 58.32 457.586 59.52C458.226 59.2 458.986 59.04 459.866 59.04C460.506 59.04 460.946 59.12 461.186 59.28C461.106 57.76 461.626 56.6 462.746 55.8ZM445.946 48.72C444.426 48 443.386 47.12 442.826 46.08C441.786 49.28 441.266 51 441.266 51.24C442.546 51.56 443.786 51.72 444.986 51.72C444.906 51.56 444.866 51.36 444.866 51.12C444.866 50.24 445.226 49.44 445.946 48.72ZM451.706 55.8C451.466 55.88 451.226 55.92 450.986 55.92C450.426 55.92 449.826 55.6 449.186 54.96C448.626 54.24 448.226 53.84 447.986 53.76C447.586 54.96 446.746 55.64 445.466 55.8C446.346 57.24 446.706 58.48 446.546 59.52C447.026 58.88 447.586 58.56 448.226 58.56C448.546 58.56 448.986 58.72 449.546 59.04C450.106 59.28 450.466 59.4 450.626 59.4V58.44C450.626 57 450.986 56.12 451.706 55.8ZM470.546 66.48C470.546 65.92 470.506 65.12 470.426 64.08C470.346 62.96 470.306 62.12 470.306 61.56H441.506C441.266 62.6 441.146 63.84 441.146 65.28C441.146 66.72 441.266 68 441.506 69.12H470.306C470.466 68.32 470.546 67.44 470.546 66.48ZM470.786 84.84V76.92H441.746C441.506 78.12 441.386 79.44 441.386 80.88C441.386 82.4 441.506 83.72 441.746 84.84H470.786ZM470.786 100.2V92.52H441.266V100.2H470.786Z" fill="#BF0A30"/>
</svg>
