<svg width="618" height="101" viewBox="0 0 618 101" fill="none" xmlns="http://www.w3.org/2000/svg">
<path d="M102.5 94.9C101.833 94.7 100.5 94.6 98.5 94.6C98.4333 94.8 98.4 95.0667 98.4 95.4C98.4 96.2667 98.7333 97.4333 99.4 98.9H57C57.2667 98.1 57.4 97.2667 57.4 96.4C57.4 94.4 56.7 92.5667 55.3 90.9C53.9 89.2333 52.2 88.4 50.2 88.4C47.3333 88.4 45.8333 90.4333 45.7 94.5C43.5667 94.4333 42.3667 95.9 42.1 98.9H0.2L29.5 5.8C30.7 5.8 31.6333 5.36666 32.3 4.5C32.5 4.16666 32.9 3.13333 33.5 1.39999H72.1L102.5 94.9ZM99.8 92.5L70.5 3.6H34.7L6.6 92.5H44.1L46.5 82.6H59.5C60.1 84.1333 61.0333 87.4333 62.3 92.5H99.8ZM95 88.9H65.1C64.5667 86.7 63.6333 83.4 62.3 79H43.7C42.5667 82 41.7667 85.3 41.3 88.9H11.4L37.5 7H68.1L95 88.9ZM71 20.1C70.0667 17.7667 69.3667 15.5667 68.9 13.5H59.9V20.1H71ZM57.8 10.3C57.5333 10.3667 57.3 10.4 57.1 10.4C56.2333 10.4 55.6 9.8 55.2 8.6C55.1333 10 54.2667 10.5667 52.6 10.3C53.4667 11.4333 53.9 12.4667 53.9 13.4C54.2333 13.2 54.7333 13.1 55.4 13.1C56.1333 13.1 56.6333 13.2 56.9 13.4V13C56.9 11.9333 57.2 11.0333 57.8 10.3ZM75 32.9C74.6667 31.3 73.9667 29.2 72.9 26.6H59.9V32.9H75ZM49 10.4C48 10.4 47.1333 9.8 46.4 8.6C45.4 9.93333 44.5333 10.5 43.8 10.3C44.6667 10.7 45.0333 11.7333 44.9 13.4C45.2333 13.1333 45.7333 13 46.4 13C47.3333 13 47.9 13.1333 48.1 13.4C48.0333 13.2 48 12.9667 48 12.7C48 11.4333 48.3333 10.6667 49 10.4ZM53 16.8C52.5333 16.6667 52.0333 16.3667 51.5 15.9C50.9667 15.4333 50.5667 15.1333 50.3 15C49.9667 15.8667 49.2667 16.4667 48.2 16.8C48.9333 17.5333 49.2333 18.5333 49.1 19.8C49.6333 19.4667 50.2667 19.3 51 19.3C51.5333 19.3 51.9 19.4 52.1 19.6C52.0333 19.2667 52 19 52 18.8C52 17.8 52.3333 17.1333 53 16.8ZM57.8 22.7C57.5333 22.7667 57.3 22.8 57.1 22.8C56.2333 22.8 55.6 22.2 55.2 21C55.1333 22.4 54.2667 22.9667 52.6 22.7C53.4667 23.0333 53.8333 24.0667 53.7 25.8C53.9667 25.6667 54.4333 25.6 55.1 25.6C55.9667 25.6 56.5667 25.6667 56.9 25.8V25.4C56.9 24.3333 57.2 23.4333 57.8 22.7ZM40.2 10.3H37.9C37.7 10.5667 37.6 10.8667 37.6 11.2C37.6 11.8 38.0333 12.5333 38.9 13.4V13.3C38.9 12.3667 39.3333 11.3667 40.2 10.3ZM79.4 45.7L77.3 39.4H59.9V45.7H79.4ZM44.2 16.8C43.5333 16.6667 42.6667 16.0667 41.6 15C40.9333 16 40.0667 16.6 39 16.8C39.9333 17.2 40.4333 17.9 40.5 18.9C40.7667 18.9 41.7 19.1333 43.3 19.6V18.7C43.3 17.7667 43.6 17.1333 44.2 16.8ZM48.6 22.9C48.4 22.9667 48.2 23 48 23C47.3333 23 46.8 22.3333 46.4 21C46.3333 22.4 45.4667 22.9667 43.8 22.7C44.6667 23.0333 45.0333 24.0667 44.9 25.8C45.2333 25.5333 45.7333 25.4 46.4 25.4C47.3333 25.4 47.9 25.5333 48.1 25.8C47.9667 25.3333 47.9 24.8667 47.9 24.4C47.9 23.5333 48.1333 23.0333 48.6 22.9ZM53 29.2C52.4 29.0667 51.9 28.8333 51.5 28.5C50.8333 27.8333 50.4333 27.4667 50.3 27.4C50.2333 28.8 49.4 29.3667 47.8 29.1C48.7333 29.5 49.2 30.2333 49.2 31.3C49.9333 31.4333 50.9 31.6667 52.1 32V31.1C52.1 30.1667 52.4 29.5333 53 29.2ZM57.8 35.1L55.4 34.2C54.7333 34.2667 54.4 34.5667 54.4 35.1C54.4 36.5 55.2333 37.5333 56.9 38.2C56.8333 37.9333 56.8 37.6667 56.8 37.4C56.8 36.9333 56.9333 36.5333 57.2 36.2C57.5333 35.6 57.7333 35.2333 57.8 35.1ZM83.8 58.5C82.7333 55.9 82.0333 53.8333 81.7 52.3H57.8L59.1 58.5H83.8ZM40.2 22.8C39.2 22.8 38.3333 22.2 37.6 21C36.6 22.3333 35.7333 22.9 35 22.7C35.8667 23.1 36.2333 24.1333 36.1 25.8C36.5667 25.5333 37.1 25.4 37.7 25.4C38.5 25.4 39.0333 25.5333 39.3 25.8C39.2333 25.6 39.2 25.3333 39.2 25C39.2 23.7333 39.5333 23 40.2 22.8ZM44.2 29.1C43.2667 29.0333 42.3667 28.4667 41.5 27.4C41.5 28.8 40.8 29.4 39.4 29.2C40.1333 29.4 40.5 29.9 40.5 30.7C40.5 30.8333 40.4667 31.0667 40.4 31.4C40.3333 31.7333 40.3 31.9667 40.3 32.1V32.2C40.8333 31.9333 41.4333 31.8 42.1 31.8C42.7 31.8 43.1 31.9333 43.3 32.2V31.9C43.3 30.8333 43.6 29.9 44.2 29.1ZM49 35.2C47.9333 35.2 47.0333 34.6 46.3 33.4C46.3 34.8 45.4667 35.3667 43.8 35.1C44.6667 35.4333 45.0333 36.4667 44.9 38.2C45.3 38 45.8667 37.9 46.6 37.9C47.4667 37.9 47.9667 38 48.1 38.2C48.0333 38 48 37.7667 48 37.5C48 36.1667 48.3333 35.4 49 35.2ZM50.4 40.8V39.8C50.3333 41.2 49.4667 41.7667 47.8 41.5C48.3333 41.7667 48.9 42.2667 49.5 43C50.1 43 50.4 42.2667 50.4 40.8ZM57.8 58.5C56.6667 53.6333 55.1333 46.3333 53.2 36.6L48.6 58.5H57.8ZM35.4 29.1C34.4667 29.0333 33.6 28.4667 32.8 27.4C31.9333 29.0667 31.5 30.6333 31.5 32.1V32.2C31.8333 31.9333 32.3 31.8 32.9 31.8C33.7667 31.8 34.3 31.9333 34.5 32.2L34.4 31.9C34.4 30.9 34.7333 29.9667 35.4 29.1ZM40.2 35.1C39.1333 35.1 38.2667 34.5333 37.6 33.4C36.6667 34.6667 35.8333 35.2333 35.1 35.1C35.6333 36.9 35.9 37.9 35.9 38.1C36.3667 38.0333 36.9333 38 37.6 38C38.1333 38 38.5667 38.0667 38.9 38.2C38.8333 37.2667 39.2667 36.2333 40.2 35.1ZM44.2 41.5C44.0667 41.5 43.1667 40.9333 41.5 39.8C41.4333 41.2 40.6 41.7667 39 41.5C39.9333 41.9 40.4 42.6333 40.4 43.7C41.1333 43.8333 42.1 44.1333 43.3 44.6V44.3C43.3 43.2333 43.6 42.3 44.2 41.5ZM49 47.6C47.9333 47.6 47.0333 47 46.3 45.8C46.3 47.2 45.4667 47.7667 43.8 47.5C44.6667 47.8333 45.0333 48.8667 44.9 50.6C45.3 50.4 45.8667 50.3 46.6 50.3C47.4667 50.3 47.9667 50.4 48.1 50.6C48.0333 50.4 48 50.1667 48 49.9C48 48.5667 48.3333 47.8 49 47.6ZM92.2 84.1C91.1333 81.5 90.4333 79.4333 90.1 77.9H63.8C64.1333 79.3 64.7 81.3667 65.5 84.1H92.2ZM30.9 35.1H30.3L29.7 38.1H30.3L30.9 35.1ZM35.4 41.5C34.4667 41.4333 33.5667 40.8667 32.7 39.8C32.7 41.2 31.8667 41.7667 30.2 41.5C31.0667 42.5667 31.5 43.6 31.5 44.6C32.0333 44.2667 32.6 44.1 33.2 44.1C33.8 44.1 34.2333 44.2667 34.5 44.6V44.3C34.5 43.2333 34.8 42.3 35.4 41.5ZM40.2 47.5C39.1333 47.5 38.2667 46.9333 37.6 45.8C36.8667 46.7333 36 47.3 35 47.5C35.6 48.3667 35.9 49.4 35.9 50.6C36.4333 50.4667 37 50.4 37.6 50.4C38.1333 50.4 38.5667 50.4667 38.9 50.6C38.8333 49.6667 39.2667 48.6333 40.2 47.5ZM87.8 71.3L85.7 65H20.3C19.9667 66.7333 19.2667 68.8333 18.2 71.3H87.8ZM31 47.5C30.0667 47.3667 29.3333 46.8 28.8 45.8C28.0667 46.7333 27.2 47.3 26.2 47.5C26.8 49.3 27.1 50.3 27.1 50.5C27.5667 50.4333 28.1333 50.4 28.8 50.4C29.3333 50.4 29.7667 50.4667 30.1 50.6V50.4C30.1 49.7333 30.4 48.7667 31 47.5ZM47.8 54.5C47.8 53.5667 47.7 52.8 47.5 52.2H24.7C23.7667 54.5333 23.0667 56.5667 22.6 58.3H47.5C47.7 56.1 47.8 54.8333 47.8 54.5ZM42.2 77.9H16.3C15.9 79.3 15.2 81.3667 14.2 84.1H40.9L42.2 77.9ZM223.19 94.9H218.29V95.6C218.29 96.9333 218.457 98.1667 218.79 99.3H180.09C179.957 97.7 179.59 95.3333 178.99 92.2C178.723 92.9333 177.823 94 176.29 95.4C174.823 96.8667 173.89 98.2 173.49 99.4H148.49C147.89 96.5333 146.657 95.1 144.79 95.1C143.457 95.1 142.79 95.8667 142.79 97.4C142.79 98 142.923 98.6333 143.19 99.3H104.39L118.09 6.2C118.557 6.46666 119.023 6.6 119.49 6.6C120.49 6.6 121.257 6.06666 121.79 4.99999C122.39 3.93333 122.59 2.9 122.39 1.9H160.29C161.09 5.36666 162.39 10.5333 164.19 17.4C165.257 14.4667 166.29 10.7333 167.29 6.2C167.89 6.46666 168.423 6.6 168.89 6.6C169.757 6.6 170.423 6 170.89 4.8L171.69 1.79999H209.09L223.19 94.9ZM220.79 92.9L207.09 3.8H173.29L169.89 17.1C168.223 23.6333 166.623 27.4667 165.09 28.6C163.623 24.2 161.357 15.9333 158.29 3.8H124.49L111.19 92.9H145.49C145.823 88.3 146.49 82.2 147.49 74.6C147.89 74.4 148.323 74.3 148.79 74.3C148.99 74.3 149.123 74.3667 149.19 74.5L154.49 93H176.29C176.89 91.3333 177.523 89.3 178.19 86.9C179.39 82.5667 180.123 80.0333 180.39 79.3C181.79 75.4333 183.157 73.4333 184.49 73.3L186.09 92.9H220.79ZM216.39 89.3H189.29L185.79 49L173.89 89.4H157.29L146.19 49L142.29 89.3H115.19L127.29 7.39999H155.89L165.79 48.2L176.09 7.39999H203.89L216.39 89.3ZM204.79 20.5C204.657 18.9667 204.223 16.7333 203.49 13.8H175.69C175.29 15.3333 174.723 17.5667 173.99 20.5H204.79ZM206.29 26.9H174.49C174.29 27.7667 174.19 28.8 174.19 30C174.19 31.2667 174.29 32.3667 174.49 33.3H206.29V26.9ZM208.79 46.1C208.523 44.6333 208.09 42.4 207.49 39.4H174.49C174.29 40.4667 174.19 41.6 174.19 42.8C174.19 44.0667 174.29 45.2 174.49 46.2H184.69C184.823 45.5333 185.057 44.7333 185.39 43.8C186.257 44.0667 186.79 44.3 186.99 44.5C187.19 44.6333 187.29 45.1 187.29 45.9V46.1H208.79ZM210.79 58.7C210.257 55.9667 209.823 53.9 209.49 52.5H188.09V58.7H210.79ZM154.39 10.7C154.257 10.7 153.357 10.1333 151.69 9C151.357 9.93333 150.657 10.5 149.59 10.7C150.19 12.5 150.49 13.5 150.49 13.7C150.957 13.6333 151.49 13.6 152.09 13.6C152.69 13.6 153.157 13.6667 153.49 13.8V13.6C153.49 12.3333 153.79 11.3667 154.39 10.7ZM157.09 19.8C157.09 18.6 156.79 17.1333 156.19 15.4C155.457 16.4 154.59 17 153.59 17.2C154.257 17.4667 154.59 18.0667 154.59 19C154.59 19.4 154.557 19.7667 154.49 20.1C155.223 19.7667 155.823 19.6 156.29 19.6C156.623 19.6 156.89 19.6667 157.09 19.8ZM172.39 35.5C171.257 35.5 170.49 35.3333 170.09 35C170.023 35.6 169.99 36.0333 169.99 36.3C169.99 37.1 170.357 37.8667 171.09 38.6V38.5C171.09 37.5 171.523 36.5 172.39 35.5ZM212.29 71.7C212.09 68.6333 211.69 66.8333 211.09 66.3C210.557 65.7 208.79 65.4 205.79 65.4C201.523 65.4 197.69 65.3667 194.29 65.3C193.69 65.1667 192.79 65.1 191.59 65.1H188.89V65.4C188.823 65.9333 188.823 66.6667 188.89 67.6C188.957 68.6 188.99 69.3333 188.99 69.8C188.99 70.6 188.923 71.2333 188.79 71.7H212.29ZM145.59 10.7C145.457 10.7 144.557 10.1333 142.89 9C142.557 9.93333 141.857 10.5 140.79 10.7C141.39 12.5667 141.657 13.5667 141.59 13.7C142.657 13.5667 143.423 13.5 143.89 13.5C144.29 13.5 144.557 13.5333 144.69 13.6C144.623 12.3333 144.923 11.3667 145.59 10.7ZM149.99 17.1C149.057 17.0333 148.19 16.4667 147.39 15.4C146.657 16.3333 145.79 16.9 144.79 17.1C145.39 17.9667 145.69 19 145.69 20.2C146.423 20 147.09 19.9 147.69 19.9C148.357 19.9 148.823 19.9667 149.09 20.1C148.89 19.8333 148.79 19.5333 148.79 19.2C148.79 18.7333 149.19 18.0333 149.99 17.1ZM154.39 23.1C153.523 23.1 152.79 22.5333 152.19 21.4C151.457 22.3333 150.59 22.9 149.59 23.1C150.19 24.9 150.49 25.9 150.49 26.1C150.757 26.0333 151.19 26 151.79 26C152.523 26 153.09 26.0667 153.49 26.2V26C153.49 24.7333 153.79 23.7667 154.39 23.1ZM158.79 29.5C157.857 29.4333 156.99 28.8667 156.19 27.8C155.457 28.8 154.59 29.3667 153.59 29.5C154.457 30.3667 154.89 31.2667 154.89 32.2C155.29 32 155.723 31.9 156.19 31.9C156.723 31.9 157.157 32 157.49 32.2C157.49 31.2667 157.923 30.3667 158.79 29.5ZM161.49 38.2C161.49 37.2 161.19 35.8667 160.59 34.2C159.857 35.2 159.157 35.6333 158.49 35.5C159.023 37.3 159.29 38.3333 159.29 38.6C160.023 38.2 160.59 38 160.99 38C161.19 38 161.357 38.0667 161.49 38.2ZM136.79 10.7C136.657 10.7 135.757 10.1333 134.09 9C133.757 9.93333 133.057 10.5 131.99 10.7C132.257 11.3667 132.557 12.4 132.89 13.8C133.89 13.5333 134.69 13.4 135.29 13.4C135.623 13.4 135.823 13.4667 135.89 13.6C135.823 13.4 135.79 13.2 135.79 13C135.79 12.2667 136.123 11.5 136.79 10.7ZM172.39 47.9C171.323 47.9 170.457 47.3333 169.79 46.2C169.057 47.1333 168.19 47.7 167.19 47.9C167.79 48.8333 168.09 49.8667 168.09 51C168.357 50.8 168.857 50.7 169.59 50.7C170.19 50.7 170.69 50.8 171.09 51C171.023 50.0667 171.457 49.0333 172.39 47.9ZM214.09 82.3C214.09 81.8333 214.057 81.1 213.99 80.1C213.923 79.1 213.89 78.3667 213.89 77.9H190.29C190.09 78.9 189.99 80 189.99 81.2C189.99 82.4667 190.09 83.6 190.29 84.6H213.89C214.023 83.9333 214.09 83.1667 214.09 82.3ZM141.19 17.1C140.257 17.1 139.39 16.5333 138.59 15.4C137.857 16.3333 136.99 16.9 135.99 17.1C136.59 18.0333 136.89 19.0667 136.89 20.2C137.157 20 137.69 19.9 138.49 19.9C139.023 19.9 139.49 20 139.89 20.2V19.8C139.89 18.8667 140.323 17.9667 141.19 17.1ZM145.59 23.1C145.457 23.1 144.557 22.5333 142.89 21.4C142.557 22.3333 141.857 22.9 140.79 23.1C141.39 24.9 141.69 25.9 141.69 26.1C141.957 26.0333 142.39 26 142.99 26C143.723 26 144.29 26.0667 144.69 26.2V26C144.69 24.7333 144.99 23.7667 145.59 23.1ZM149.99 29.5C149.057 29.4333 148.19 28.8667 147.39 27.8C146.657 28.7333 145.79 29.3 144.79 29.5C145.39 30.3667 145.69 31.4 145.69 32.6C146.29 32.2667 147.29 32.1 148.69 32.1C148.69 31.2333 149.123 30.3667 149.99 29.5ZM154.39 35.5C154.257 35.5 153.357 34.9333 151.69 33.8C151.357 34.7333 150.657 35.3 149.59 35.5C150.19 37.3 150.49 38.3 150.49 38.5C150.757 38.4333 151.19 38.4 151.79 38.4C152.523 38.4 153.09 38.4667 153.49 38.6V38.4C153.49 37.1333 153.79 36.1667 154.39 35.5ZM158.79 41.9C157.857 41.8333 156.99 41.2667 156.19 40.2C155.457 41.2 154.59 41.8 153.59 42C154.457 42.4 154.89 42.9333 154.89 43.6C154.823 43.8 154.69 44.2333 154.49 44.9C155.223 44.7 155.923 44.6 156.59 44.6C157.19 44.6 157.623 44.7333 157.89 45V44.7C157.89 43.6333 158.19 42.7 158.79 41.9ZM163.19 47.9C162.523 47.7667 162.023 47.5333 161.69 47.2C160.957 46.6 160.557 46.2667 160.49 46.2C160.09 47.2 159.39 47.7667 158.39 47.9C158.99 48.7667 159.29 49.8 159.29 51C159.823 50.8667 160.39 50.8 160.99 50.8C161.523 50.8 161.957 50.8667 162.29 51V50.8C162.29 50.1333 162.59 49.1667 163.19 47.9ZM132.39 17.1C131.523 17.1 130.523 16.5333 129.39 15.4C128.99 16.3333 128.257 16.9 127.19 17.1C127.79 18.0333 128.09 19.0667 128.09 20.2C128.357 20 128.89 19.9 129.69 19.9C130.223 19.9 130.69 20 131.09 20.2V19.8C131.09 18.8667 131.523 17.9667 132.39 17.1ZM136.79 23.1C136.657 23.1 135.757 22.5333 134.09 21.4C133.757 22.3333 133.057 22.9 131.99 23.1C132.257 23.7667 132.557 24.8 132.89 26.2C133.223 26 133.723 25.9 134.39 25.9C135.123 25.9 135.623 26 135.89 26.2C135.823 25.9333 135.79 25.6667 135.79 25.4C135.79 25.2 136.123 24.4333 136.79 23.1ZM183.19 52.5H148.39C148.923 55.3667 149.49 57.5333 150.09 59H181.49C181.89 57.5333 182.457 55.3667 183.19 52.5ZM141.19 29.5C140.123 29.5 139.257 28.9333 138.59 27.8C137.857 28.7333 136.99 29.3 135.99 29.5C136.59 30.4333 136.89 31.4667 136.89 32.6C137.09 32.3333 137.49 32.2 138.09 32.2C138.757 32.2 139.357 32.3333 139.89 32.6V32.2C139.89 31.2667 140.323 30.3667 141.19 29.5ZM145.59 35.5C145.457 35.5 144.557 34.9333 142.89 33.8C142.557 34.7333 141.857 35.3 140.79 35.5C141.057 36.1667 141.357 37.2 141.69 38.6C142.623 38.4 143.39 38.3 143.99 38.3C144.323 38.3 144.557 38.3333 144.69 38.4C144.623 37.1333 144.923 36.1667 145.59 35.5ZM149.99 41.9C149.123 41.8333 148.257 41.2667 147.39 40.2C146.657 41.1333 145.79 41.7 144.79 41.9C145.39 42.9667 146.823 43.8667 149.09 44.6V43.8C149.09 43.0667 149.39 42.4333 149.99 41.9ZM154.39 47.9C154.257 47.9 153.357 47.3333 151.69 46.2C151.357 47.2 150.657 47.7667 149.59 47.9C150.323 49.0333 150.59 50.0333 150.39 50.9C151.323 50.7 152.123 50.6 152.79 50.6C153.19 50.6 153.423 50.6667 153.49 50.8C153.423 50.6 153.39 50.4 153.39 50.2C153.39 49.4667 153.723 48.7 154.39 47.9ZM127.09 26.1L126.49 23.1H125.89L126.49 26.1H127.09ZM132.39 29.5C131.457 29.5 130.59 28.9333 129.79 27.8C129.057 28.7333 128.19 29.3 127.19 29.5C127.79 30.4333 128.09 31.4667 128.09 32.6C128.29 32.3333 128.69 32.2 129.29 32.2C129.89 32.2 130.49 32.3333 131.09 32.6C131.157 31.2667 131.59 30.2333 132.39 29.5ZM136.79 35.5C136.657 35.5 135.757 34.9333 134.09 33.8C133.757 34.6 133.057 35.1667 131.99 35.5C132.257 36.1667 132.557 37.2 132.89 38.6C133.89 38.3333 134.69 38.2 135.29 38.2C135.623 38.2 135.823 38.2667 135.89 38.4C135.823 38.2 135.79 38 135.79 37.8C135.79 37.0667 136.123 36.3 136.79 35.5ZM179.09 65.1H151.99C152.257 66.6333 152.823 68.8667 153.69 71.8H177.49C178.557 69.0667 179.09 66.8333 179.09 65.1ZM141.19 41.9C140.257 41.8333 139.39 41.2667 138.59 40.2C137.857 41.1333 136.99 41.7 135.99 41.9C136.59 42.8333 136.89 43.8667 136.89 45C137.09 44.7333 137.49 44.6 138.09 44.6C138.757 44.6 139.357 44.7333 139.89 45V44.6C139.89 43.6667 140.323 42.7667 141.19 41.9ZM144.59 49.4C144.59 48.7333 144.057 47.6667 142.99 46.2C142.59 47.1333 141.857 47.7 140.79 47.9C141.39 49.7667 141.69 50.8 141.69 51C142.29 50.6 142.89 50.4 143.49 50.4C143.823 50.4 144.09 50.4667 144.29 50.6C144.49 50.2 144.59 49.8 144.59 49.4ZM127.99 35.5C127.057 35.4333 126.19 34.8667 125.39 33.8C124.523 35.6 124.09 37.2 124.09 38.6C124.423 38.4 124.923 38.3 125.59 38.3C126.323 38.3 126.823 38.4 127.09 38.6C127.023 38.3333 126.99 38.0667 126.99 37.8C126.99 37.6 127.323 36.8333 127.99 35.5ZM132.39 41.9C131.457 41.9 130.59 41.3333 129.79 40.2C129.057 41.1333 128.19 41.7 127.19 41.9C127.79 42.8333 128.09 43.8667 128.09 45C128.29 44.7333 128.69 44.6 129.29 44.6C129.957 44.6 130.557 44.7333 131.09 45V44.6C131.09 43.6667 131.523 42.7667 132.39 41.9ZM136.79 47.9C136.657 47.9 135.757 47.3333 134.09 46.2C133.757 47 133.057 47.5667 131.99 47.9C132.59 49.7 132.89 50.7 132.89 50.9C133.757 50.7 134.523 50.6 135.19 50.6C135.523 50.6 135.757 50.6667 135.89 50.8C135.823 50.6 135.79 50.4 135.79 50.2C135.79 49.4667 136.123 48.7 136.79 47.9ZM175.59 77.9H155.59C156.057 79.3667 156.623 81.6 157.29 84.6H173.89C174.29 83.0667 174.857 80.8333 175.59 77.9ZM127.99 47.9C127.057 47.8333 126.19 47.2667 125.39 46.2C125.057 47.0667 124.323 47.6333 123.19 47.9C123.923 48.7 124.223 49.7333 124.09 51C124.423 50.8 124.923 50.7 125.59 50.7C126.323 50.7 126.823 50.8 127.09 51V50.7C127.09 49.6333 127.39 48.7 127.99 47.9ZM143.89 58.8V52.7H122.09C121.557 54.8333 121.29 56.3667 121.29 57.3C121.29 57.9667 121.423 58.4667 121.69 58.8H143.89ZM142.89 66.5C142.89 66.0333 142.857 65.5667 142.79 65.1H119.69C119.69 65.5667 119.657 66.3 119.59 67.3C119.523 68.3 119.49 69.0333 119.49 69.5C119.49 70.3 119.557 70.9667 119.69 71.5H142.79V70.7C142.79 70.3 142.823 69.7333 142.89 69V66.5ZM141.79 79.6V78.8C141.79 78.5333 141.757 78.2 141.69 77.8H118.49C117.823 79.4 117.49 80.8667 117.49 82.2C117.49 83.1333 117.69 83.9333 118.09 84.6H141.69V81.4C141.757 79.8 141.79 79.2 141.79 79.6ZM292.993 95H289.793C289.393 95.7333 289.26 97.1667 289.393 99.3H225.993V5.8H229.193C229.46 5.06666 229.593 3.63333 229.593 1.5H292.193V36.1H290.393V59.9C290.86 60.4333 291.726 60.7 292.993 60.7V95ZM290.993 92.9V62.7C289.66 62.7 288.793 62.5667 288.393 62.3V35.5C289.526 35.4333 290.093 34.9333 290.093 34V3.69999H231.593V92.9H290.993ZM287.393 89.3H235.393V7.1H286.593V30.5H263.893V36.8H284.593V59.3H263.893V66H287.393V89.3ZM285.393 19.9V13.5H271.993V19.9H285.393ZM269.893 10.3C268.826 10.3 267.96 9.73333 267.293 8.6C266.56 9.53333 265.693 10.1 264.693 10.3C265.293 12.1 265.593 13.1 265.593 13.3C266.06 13.2333 266.626 13.2 267.293 13.2C267.826 13.2 268.26 13.2667 268.593 13.4C268.526 12.4667 268.96 11.4333 269.893 10.3ZM285.493 28.9C285.493 27.7667 285.326 27 284.993 26.6H271.993V29L283.093 29.2C284.493 29.2 285.293 29.1 285.493 28.9ZM261.093 10.3C260.426 10.3 259.393 9.73333 257.993 8.6C257.66 9.53333 256.96 10.1 255.893 10.3C256.16 10.9667 256.46 12 256.793 13.4C257.326 13.2667 257.926 13.2 258.593 13.2C259.126 13.2 259.526 13.2667 259.793 13.4C259.726 12.4667 260.16 11.4333 261.093 10.3ZM264.693 16.9C264.493 16.9667 264.293 17 264.093 17C263.426 17 262.893 16.3333 262.493 15C262.426 16.4 261.56 16.9667 259.893 16.7C260.76 17.0333 261.126 18.0667 260.993 19.8C261.326 19.5333 261.826 19.4 262.493 19.4C263.426 19.4 263.993 19.5333 264.193 19.8C264.06 19.3333 263.993 18.8667 263.993 18.4C263.993 17.5333 264.226 17.0333 264.693 16.9ZM269.493 22.7C268.56 22.5667 267.826 22 267.293 21C266.56 21.9333 265.693 22.5 264.693 22.7C265.293 24.5667 265.593 25.6 265.593 25.8C265.86 25.6667 266.393 25.6 267.193 25.6C267.86 25.6 268.326 25.6667 268.593 25.8V25.5C268.593 24.8333 268.893 23.9 269.493 22.7ZM251.893 10.3C250.893 10.2333 249.993 9.66667 249.193 8.6C249.193 10 248.36 10.5667 246.693 10.3C247.56 11.4333 247.993 12.4667 247.993 13.4C248.326 13.2 248.826 13.1 249.493 13.1C250.226 13.1 250.726 13.2 250.993 13.4C250.926 13.1333 250.893 12.8667 250.893 12.6C250.893 12.4 251.226 11.6333 251.893 10.3ZM256.293 16.7C255.226 16.7 254.36 16.1333 253.693 15C252.96 15.9333 252.093 16.5 251.093 16.7C251.693 17.5667 251.993 18.6 251.993 19.8C252.526 19.6667 253.093 19.6 253.693 19.6C254.226 19.6 254.66 19.6667 254.993 19.8C254.926 18.8667 255.36 17.8333 256.293 16.7ZM283.393 45.9V39.5H271.993V45.9H283.393ZM260.693 22.7C259.76 22.6333 258.893 22.0667 258.093 21C257.693 21.9333 256.96 22.5 255.893 22.7C256.493 24.5667 256.793 25.6 256.793 25.8C257.06 25.6667 257.493 25.6 258.093 25.6C258.826 25.6 259.393 25.6333 259.793 25.7V25.5C259.793 24.8333 260.093 23.9 260.693 22.7ZM265.093 29.3L262.693 28.2C261.693 28.8667 260.76 29.2 259.893 29.2C260.56 29.4667 260.893 30.0667 260.893 31C260.893 31.4 260.826 31.7667 260.693 32.1C261.16 31.9667 261.793 31.8333 262.593 31.7C262.593 30.3667 262.726 29.5667 262.993 29.3H265.093ZM242.693 10.5C242.493 10.5667 242.293 10.6 242.093 10.6C241.426 10.6 240.893 9.93333 240.493 8.6C240.426 10 239.56 10.5667 237.893 10.3C238.76 11.3667 239.193 12.4 239.193 13.4C239.593 13.2 240.093 13.1 240.693 13.1C241.56 13.1 242.06 13.2 242.193 13.4C242.06 12.9333 241.993 12.5 241.993 12.1C241.993 11.1667 242.226 10.6333 242.693 10.5ZM247.093 16.7C246.96 16.7 246.06 16.1333 244.393 15C244.06 15.9333 243.36 16.5 242.293 16.7C242.893 18.5 243.193 19.5 243.193 19.7C243.726 19.5 244.426 19.4 245.293 19.4C245.76 19.4 246.06 19.4667 246.193 19.6C246.126 19.4 246.093 19.2 246.093 19C246.093 18.2667 246.426 17.5 247.093 16.7ZM251.893 22.7C250.96 22.6333 250.093 22.0667 249.293 21C248.96 21.8 248.226 22.3667 247.093 22.7C247.693 23.9667 247.993 25 247.993 25.8C248.326 25.6667 248.826 25.6 249.493 25.6C250.226 25.6 250.726 25.6667 250.993 25.8C250.926 25.4667 250.893 25.1667 250.893 24.9C250.96 24.5667 251.293 23.8333 251.893 22.7ZM256.293 29.1C255.226 29.1 254.36 28.5333 253.693 27.4C252.76 28.6667 251.926 29.2333 251.193 29.1C251.726 30.9 251.993 31.9 251.993 32.1C252.46 32.0333 253.026 32 253.693 32C254.226 32 254.66 32.0667 254.993 32.2C254.926 31.2667 255.36 30.2333 256.293 29.1ZM260.693 35.1C259.826 35.1 258.96 34.6667 258.093 33.8C257.36 34.8 256.66 35.2333 255.993 35.1C256.526 37.1667 256.793 38.3333 256.793 38.6C257.26 38.0667 258.06 37.8667 259.193 38C259.593 37.3333 260.093 36.3667 260.693 35.1ZM265.093 41.5L262.693 40.6C262.493 40.6 262.126 40.7667 261.593 41.1C261.06 41.3667 260.626 41.5 260.293 41.5C260.96 42.8333 261.193 43.8333 260.993 44.5C261.393 44.3667 261.96 44.3 262.693 44.3C263.56 44.3 264.06 44.4 264.193 44.6C264.126 44.3333 264.093 44.0667 264.093 43.8C264.093 42.9333 264.426 42.1667 265.093 41.5ZM237.993 16.7H237.393L236.793 19.7H237.393L237.993 16.7ZM269.893 47.9C269.026 47.9 268.026 47.3333 266.893 46.2C266.493 47.1333 265.76 47.7 264.693 47.9C265.493 49.1 265.793 50.1333 265.593 51C265.726 50.7333 266.126 50.6 266.793 50.6C267.393 50.6 267.993 50.7333 268.593 51C268.66 49.6667 269.093 48.6333 269.893 47.9ZM243.093 22.7C242.026 22.7 241.16 22.1333 240.493 21C240.16 21.8 239.426 22.3667 238.293 22.7C238.96 23.9667 239.26 25 239.193 25.8C239.593 25.6 240.093 25.5 240.693 25.5C241.56 25.5 242.06 25.6 242.193 25.8C242.126 25.5333 242.093 25.2667 242.093 25C242.16 24.7333 242.493 23.9667 243.093 22.7ZM247.093 29.1C246.96 29.1 246.06 28.5333 244.393 27.4C244.06 28.3333 243.36 28.9 242.293 29.1C242.56 29.7667 242.86 30.8 243.193 32.2C244.126 32 244.893 31.9 245.493 31.9C245.826 31.9 246.06 31.9333 246.193 32C246.126 30.7333 246.426 29.7667 247.093 29.1ZM251.893 35.1C251.626 35.1667 251.393 35.2 251.193 35.2C250.326 35.2 249.693 34.6 249.293 33.4C248.893 34.3333 248.16 34.9 247.093 35.1C247.693 36.3667 247.993 37.4 247.993 38.2C248.26 38.0667 248.593 38 248.993 38C249.86 38 250.526 38.1333 250.993 38.4V38.2C250.993 37 251.293 35.9667 251.893 35.1ZM255.893 41.5C254.96 41.3667 254.226 40.8 253.693 39.8C252.76 41.0667 251.926 41.6333 251.193 41.5C251.726 43.3 251.993 44.3333 251.993 44.6C252.26 44.4667 252.793 44.4 253.593 44.4C254.26 44.4 254.726 44.4667 254.993 44.6V44.3C254.993 43.6333 255.293 42.7 255.893 41.5ZM261.093 47.9C260.226 47.9 259.226 47.3333 258.093 46.2C257.493 47.3333 256.76 47.9 255.893 47.9C256.693 49.1 256.993 50.1 256.793 50.9C257.193 50.7 257.693 50.6 258.293 50.6C258.893 50.6 259.393 50.7333 259.793 51C259.86 49.6667 260.293 48.6333 261.093 47.9ZM237.193 32.1V29.1H236.493V32.1H237.193ZM243.093 35.6C241.826 34.9333 240.96 34.2 240.493 33.4C240.426 34.2667 239.56 35 237.893 35.6C238.626 36.2 238.993 37.0667 238.993 38.2C239.26 38.0667 239.56 38 239.893 38C241.16 38 241.926 38.2 242.193 38.6C242.126 38.4 242.093 38.2 242.093 38C242.093 37.0667 242.426 36.2667 243.093 35.6ZM283.293 58.2V52.3H236.793V59H262.193C262.193 58.4667 262.493 58.2 263.093 58.2H283.293ZM247.093 41.5C246.96 41.5 246.06 40.9333 244.393 39.8C244.06 40.7333 243.36 41.3 242.293 41.5C242.893 43.9 243.193 44.9333 243.193 44.6C243.46 44.4667 243.926 44.4 244.593 44.4C245.26 44.4 245.793 44.4667 246.193 44.6V44.4C246.193 43.1333 246.493 42.1667 247.093 41.5ZM251.893 47.9C251.226 47.8333 250.36 47.2667 249.293 46.2C248.426 47.4 247.56 48 246.693 48C247.56 48.1333 247.993 49.1 247.993 50.9V51C248.46 50.7333 248.993 50.6 249.593 50.6C250.126 50.6 250.593 50.7333 250.993 51C250.993 49.7333 251.293 48.7 251.893 47.9ZM237.193 44.5V41.5H236.493V44.5H237.193ZM286.193 71.6V67.4H262.993C262.46 66.9333 262.193 66.1667 262.193 65.1H236.793V71.6H286.193ZM243.093 47.9C242.16 47.8333 241.293 47.2667 240.493 46.2C239.693 47.2 238.826 47.8 237.893 48C238.76 48.1333 239.193 49.0667 239.193 50.8V51C239.793 50.6667 240.393 50.5 240.993 50.5C241.593 50.5 241.993 50.6667 242.193 51C241.993 50.6667 241.893 50.3333 241.893 50C241.893 49.5333 242.293 48.8333 243.093 47.9ZM286.193 81.2C286.193 80 286.093 78.9333 285.893 78H236.793V84.5H285.893C286.093 83.5 286.193 82.4 286.193 81.2ZM388.791 95.7C387.791 95.5 386.691 95.4 385.491 95.4C384.358 95.4 383.325 95.5 382.391 95.7C382.925 96.5667 383.725 97.9 384.791 99.7H338.091C337.691 98.9 337.058 97.7333 336.191 96.2C335.991 96.8 335.891 97.9667 335.891 99.7H296.491V6.3C297.358 5.96666 298.691 5.8 300.491 5.8C300.758 5.06666 300.891 3.6 300.891 1.39999H342.591C351.191 1.39999 359.025 4.09999 366.091 9.5C373.758 15.3667 377.591 22.4333 377.591 30.7V41.2C377.591 44.1333 376.425 47.5667 374.091 51.5C372.091 54.9 369.791 57.7333 367.191 60L388.791 95.7ZM385.191 93.3L363.991 58.8C372.058 51 376.091 42.8333 376.091 34.3C376.091 25.4333 372.325 17.9667 364.791 11.9C357.725 6.23333 349.658 3.4 340.591 3.4H303.091V93.4H337.891C337.958 93.2 337.991 92.9667 337.991 92.7C337.991 92.2333 337.925 91.5333 337.791 90.6C337.658 89.7333 337.591 89.0667 337.591 88.6C337.591 86.7333 338.291 85.8 339.691 85.8C340.491 87 341.825 89.5 343.691 93.3H385.191ZM378.791 89.7H346.091L334.491 65.4V89.7H306.491V7H341.391C349.325 7 356.458 9.73333 362.791 15.2C369.458 20.9333 372.791 27.7 372.791 35.5C372.791 44.5 367.725 51.8667 357.591 57.6C359.525 58.8 362.258 62.3667 365.791 68.3C368.191 72.3 372.525 79.4333 378.791 89.7ZM365.991 19.7C363.525 15.2333 359.291 13 353.291 13C352.625 13 351.825 13.0333 350.891 13.1V19.7H365.991ZM348.791 10C348.191 9.93333 347.691 9.9 347.291 9.9H345.891C345.758 9.9 344.991 9.93333 343.591 10C344.458 10.3333 344.825 11.3333 344.691 13C345.158 12.7333 345.691 12.6 346.291 12.6C347.091 12.6 347.625 12.7333 347.891 13C347.825 12.8 347.791 12.5333 347.791 12.2C347.791 10.9333 348.125 10.2 348.791 10ZM370.291 32.5C370.291 30.3667 369.891 28.2667 369.091 26.2H350.891V32.5H370.291ZM339.591 9.9C338.725 9.9 337.858 9.46666 336.991 8.6C336.391 9.6 335.691 10.0333 334.891 9.9C335.091 10.5667 335.358 11.6 335.691 13C336.291 12.7333 337.025 12.6 337.891 12.6C338.291 12.6 338.558 12.6667 338.691 12.8C338.625 12.6 338.591 12.4 338.591 12.2C338.591 11.4667 338.925 10.7 339.591 9.9ZM343.991 16.3C343.058 16.2333 342.191 15.6667 341.391 14.6C340.658 15.5333 339.791 16.1 338.791 16.3C339.391 17.1667 339.691 18.2 339.691 19.4C340.358 19.2 340.991 19.1 341.591 19.1C342.258 19.1 342.758 19.2 343.091 19.4V19.1C343.091 18.0333 343.391 17.1 343.991 16.3ZM348.391 22.3C347.458 22.1667 346.725 21.6 346.191 20.6C345.791 21.1333 344.925 21.8 343.591 22.6C344.325 23.2 344.691 24.1333 344.691 25.4C345.158 25.2 345.725 25.1 346.391 25.1C347.258 25.1 347.758 25.2 347.891 25.4C347.825 25.2 347.791 25 347.791 24.8C347.791 23.8 347.991 22.9667 348.391 22.3ZM370.291 39.1H350.891V45.8H369.091C369.891 43.7333 370.291 41.5 370.291 39.1ZM330.791 9.9C329.925 9.9 329.058 9.46666 328.191 8.6C327.058 9.73333 326.325 10.2333 325.991 10.1C326.525 10.3 326.791 10.8667 326.791 11.8C326.791 12.1333 326.758 12.5333 326.691 13C326.958 12.8667 327.425 12.8 328.091 12.8C328.958 12.8 329.558 12.8667 329.891 13V12.6C329.891 11.6 330.191 10.7 330.791 9.9ZM335.191 16.3C334.991 16.3667 334.791 16.4 334.591 16.4C334.125 16.4 333.625 16.1333 333.091 15.6C332.625 15 332.291 14.6667 332.091 14.6C331.758 15.6 331.058 16.1667 329.991 16.3C330.791 17.5 331.091 18.5333 330.891 19.4C331.025 19.1333 331.425 19 332.091 19C332.691 19 333.291 19.1333 333.891 19.4V19C333.891 18.0667 334.325 17.1667 335.191 16.3ZM339.591 22.3C339.458 22.3 338.558 21.7333 336.891 20.6C336.558 21.5333 335.858 22.1 334.791 22.3C335.391 24.1667 335.691 25.2 335.691 25.4C335.958 25.2667 336.391 25.2 336.991 25.2C337.725 25.2 338.291 25.2667 338.691 25.4V25.2C338.691 23.9333 338.991 22.9667 339.591 22.3ZM343.991 28.7C342.925 28.7 342.058 28.1333 341.391 27C341.325 27.1333 340.591 27.8667 339.191 29.2C339.991 29.4667 341.158 29.9333 342.691 30.6C342.691 30.2 343.125 29.5667 343.991 28.7ZM348.791 35.1C347.858 34.9667 346.991 34.2667 346.191 33C345.591 34.8 345.291 36.2333 345.291 37.3C345.758 37.4333 346.525 37.5667 347.591 37.7C347.525 37.6333 347.491 37.5667 347.491 37.5C347.491 36.7667 347.925 35.9667 348.791 35.1ZM321.991 9.9C321.525 9.9 320.991 9.73333 320.391 9.4C319.591 8.93333 319.091 8.66666 318.891 8.6C318.158 9.6 317.491 10.0333 316.891 9.9C317.425 11.7667 317.691 12.7667 317.691 12.9C318.158 12.8333 318.725 12.8 319.391 12.8C319.925 12.8 320.358 12.8667 320.691 13V12.9C320.691 11.9667 321.125 10.9667 321.991 9.9ZM325.991 16.3C325.058 16.2333 324.158 15.6667 323.291 14.6C323.291 16 322.591 16.6 321.191 16.4C321.925 16.6 322.291 17.1 322.291 17.9C322.291 18.0333 322.258 18.2667 322.191 18.6C322.125 18.9333 322.091 19.1667 322.091 19.3V19.4C322.625 19.1333 323.225 19 323.891 19C324.491 19 324.891 19.1333 325.091 19.4V19.1C325.091 18.0333 325.391 17.1 325.991 16.3ZM330.791 22.3C329.725 22.3 328.825 21.7333 328.091 20.6C328.091 21.4667 327.258 22.2 325.591 22.8C326.325 23.4 326.691 24.2667 326.691 25.4C327.158 25.2 327.758 25.1 328.491 25.1C329.291 25.1 329.758 25.2 329.891 25.4C329.825 25.1333 329.791 24.8667 329.791 24.6C329.858 24.3333 330.191 23.5667 330.791 22.3ZM333.591 28.7C333.591 28.3 333.491 27.9667 333.291 27.7L332.591 27C331.858 27.9333 330.991 28.5 329.991 28.7C330.591 30.5667 330.891 31.6 330.891 31.8C331.558 31.4 332.125 31.2 332.591 31.2C332.791 31.2 332.958 31.2667 333.091 31.4C333.091 30.2667 333.258 29.5667 333.591 29.3V28.7ZM312.791 10C311.791 9.86666 310.891 9.4 310.091 8.6C309.558 9.6 308.858 10.0333 307.991 9.9C308.658 11.1667 308.891 12.1667 308.691 12.9C308.958 12.8333 309.425 12.8 310.091 12.8C310.891 12.8 311.491 12.8333 311.891 12.9V12.2C311.891 10.9333 312.191 10.2 312.791 10ZM348.791 47.5C347.858 47.4333 346.991 46.8667 346.191 45.8C345.458 46.7333 344.591 47.3 343.591 47.5C344.191 48.4333 344.491 49.4667 344.491 50.6C344.958 50.1333 345.491 49.9 346.091 49.9C346.625 49.9 347.225 50.1 347.891 50.5C347.691 50.2333 347.591 49.9333 347.591 49.6C347.591 49.1333 347.991 48.4333 348.791 47.5ZM317.191 16.4C316.191 16.4 315.325 15.8 314.591 14.6C313.858 15.5333 312.991 16.1 311.991 16.3C312.591 17.2333 312.891 18.2667 312.891 19.4C313.358 18.9333 313.858 18.7 314.391 18.7C314.925 18.7 315.558 18.9333 316.291 19.4C316.225 19.1333 316.191 18.8667 316.191 18.6C316.191 17.3333 316.525 16.6 317.191 16.4ZM321.591 22.3C320.725 22.3 319.991 21.7333 319.391 20.6C318.658 21.5333 317.791 22.1 316.791 22.3C317.125 23.0333 317.425 24.0667 317.691 25.4C317.958 25.2667 318.425 25.2 319.091 25.2C319.758 25.2 320.291 25.2667 320.691 25.4V25.1C320.691 23.8333 320.991 22.9 321.591 22.3ZM325.991 28.7C325.058 28.6333 324.158 28.0667 323.291 27C323.291 28.4 322.458 28.9667 320.791 28.7C321.658 29.0333 322.025 30.0667 321.891 31.8C322.158 31.6667 322.625 31.6 323.291 31.6C324.158 31.6 324.758 31.6667 325.091 31.8V31.4C325.091 30.4 325.391 29.5 325.991 28.7ZM330.791 35.1C329.458 35.0333 328.591 34.3333 328.191 33C328.125 33.6667 327.258 34.4 325.591 35.2C326.258 35.8 326.558 36.6333 326.491 37.7C326.758 37.7 327.125 37.6667 327.591 37.6C328.125 37.5333 328.525 37.5 328.791 37.5C329.258 37.5 329.558 37.6 329.691 37.8C329.491 37.5333 329.391 37.2667 329.391 37C329.391 36.8 329.858 36.1667 330.791 35.1ZM333.091 43.8C333.091 41.7333 332.925 40.2667 332.591 39.4C331.925 40.3333 331.058 40.9 329.991 41.1C330.325 41.8333 330.625 42.8667 330.891 44.2C331.625 43.8 332.191 43.6 332.591 43.6C332.791 43.6 332.958 43.6667 333.091 43.8ZM339.591 47.6C338.858 47.4667 338.325 47.2 337.991 46.8C337.458 46.2667 337.091 45.9333 336.891 45.8C336.558 46.6667 335.858 47.2333 334.791 47.5C335.591 48.7667 335.891 49.7667 335.691 50.5C336.225 50.2333 336.825 50.1 337.491 50.1C338.091 50.1 338.491 50.2 338.691 50.4C338.625 50.0667 338.591 49.8 338.591 49.6C338.591 48.6667 338.925 48 339.591 47.6ZM312.691 22.3C312.491 22.3667 312.291 22.4 312.091 22.4C311.225 22.4 310.591 21.8 310.191 20.6C309.858 21.4 309.125 21.9667 307.991 22.3C308.658 23.6333 308.891 24.6333 308.691 25.3C309.091 25.1667 309.658 25.1 310.391 25.1C311.258 25.1 311.758 25.2 311.891 25.4C311.758 25.0667 311.691 24.7667 311.691 24.5C311.758 24.1667 312.091 23.4333 312.691 22.3ZM317.191 28.8C316.191 28.8 315.325 28.2 314.591 27C313.591 28.3333 312.725 28.9 311.991 28.7C312.591 29.5 312.891 30.5333 312.891 31.8C313.625 31.6 314.291 31.5 314.891 31.5C315.491 31.5 315.958 31.6 316.291 31.8C316.225 31.5333 316.191 31.2667 316.191 31C316.191 29.7333 316.525 29 317.191 28.8ZM321.591 34.7C320.725 34.7 319.991 34.1333 319.391 33L318.391 34.2C318.058 34.6 317.558 34.7667 316.891 34.7C317.425 36.9 317.691 38.0667 317.691 38.2C318.425 37.8 319.091 37.6 319.691 37.6C320.025 37.6 320.358 37.6667 320.691 37.8V37.5C320.691 36.2333 320.991 35.3 321.591 34.7ZM365.991 71.3C365.125 69.9 363.758 67.8333 361.891 65.1H335.991C336.658 66.2333 337.625 68.3 338.891 71.3H365.991ZM325.891 41.1C325.691 41.1667 325.491 41.2 325.291 41.2C324.425 41.2 323.791 40.6 323.391 39.4C323.058 40.2 322.325 40.7667 321.191 41.1C321.791 42.3667 322.091 43.4 322.091 44.2C322.425 44.0667 322.925 44 323.591 44C324.391 44 324.891 44.0667 325.091 44.2C325.025 43.8667 324.991 43.5667 324.991 43.3C324.991 42.9667 325.125 42.5333 325.391 42C325.725 41.4 325.891 41.1 325.891 41.1ZM364.791 51.9H308.091V58.5H356.391L356.291 58.2C356.225 57.4 356.958 56.5 358.491 55.5C360.025 54.7667 362.125 53.5667 364.791 51.9ZM330.791 47.5C329.858 47.4333 328.991 46.8667 328.191 45.8C327.458 46.8 326.591 47.3667 325.591 47.5C326.125 48.1 326.558 49.1333 326.891 50.6C327.425 50.3333 328.025 50.2 328.691 50.2C329.225 50.2 329.625 50.3333 329.891 50.6V50.3C329.891 49.2333 330.191 48.3 330.791 47.5ZM373.991 84.1C373.191 83.1 371.825 81.0333 369.891 77.9H341.991C342.658 79.2333 343.625 81.3 344.891 84.1H373.991ZM312.791 35.1C311.858 35.1 310.991 34.4 310.191 33C309.725 34 308.991 34.7 307.991 35.1C308.391 35.9 308.591 36.6333 308.591 37.3C308.591 37.6333 308.558 37.9333 308.491 38.2C308.891 37.6667 309.425 37.4 310.091 37.4C310.291 37.4 310.591 37.4667 310.991 37.6C311.458 37.6667 311.791 37.7 311.991 37.7C311.925 37.5667 311.891 37.4 311.891 37.2C311.891 36.5333 312.191 35.8333 312.791 35.1ZM316.791 41.1C315.858 40.9667 315.125 40.4 314.591 39.4C314.191 39.9333 313.325 40.6 311.991 41.4C312.725 42 313.091 42.9333 313.091 44.2C313.558 44.0667 314.091 44 314.691 44C315.425 44 315.958 44.0333 316.291 44.1V43.5C316.291 42.5 316.458 41.7 316.791 41.1ZM321.991 47.5C321.791 47.5667 321.591 47.6 321.391 47.6C320.925 47.6 320.425 47.3333 319.891 46.8C319.425 46.2 319.091 45.8667 318.891 45.8C318.491 46.8 317.791 47.3667 316.791 47.5C317.591 48.7 317.891 49.7333 317.691 50.6C317.825 50.3333 318.225 50.2 318.891 50.2C319.491 50.2 320.091 50.3333 320.691 50.6C320.758 49.2667 321.191 48.2333 321.991 47.5ZM312.791 47.5C311.858 47.4333 310.991 46.8667 310.191 45.8L307.991 48C308.525 48.5333 308.791 49.1333 308.791 49.8C308.791 50.0667 308.758 50.3333 308.691 50.6C309.025 50.3333 309.525 50.2 310.191 50.2C311.125 50.2 311.691 50.3333 311.891 50.6V50.3C311.891 49.2333 312.191 48.3 312.791 47.5ZM333.091 71.3V65.1H308.091V71.3H333.091ZM333.091 84.1V77.9H308.091V84.1H333.091ZM344.491 36C344.358 31.8667 341.291 29.8 335.291 29.8V42.3C341.558 42.3 344.625 40.2 344.491 36ZM435.497 95.4H432.297C431.897 96.1333 431.764 97.5667 431.897 99.7H392.097V5.8H395.297C395.564 5.06666 395.697 3.76667 395.697 1.9H435.497V95.4ZM433.497 93.3V3.9H397.697V93.3H433.497ZM429.897 89.7H401.497V7.5H429.897V89.7ZM428.697 19.5V13.1H422.897V19.5C423.83 19.6333 424.697 19.7 425.497 19.7H426.297C427.097 19.7 427.897 19.6333 428.697 19.5ZM420.797 9.9C419.93 9.9 419.064 9.46666 418.197 8.6C417.264 9.53333 416.397 10 415.597 10C416.464 10.3333 416.83 11.3333 416.697 13C417.03 12.7333 417.53 12.6 418.197 12.6C419.13 12.6 419.697 12.7333 419.897 13V12.7C419.897 11.6333 420.197 10.7 420.797 9.9ZM411.997 9.9C411.53 9.9 410.964 9.7 410.297 9.3C409.63 8.9 409.164 8.66666 408.897 8.6C408.164 9.6 407.464 10.0333 406.797 9.9C407.597 11.0333 407.897 12.0667 407.697 13C407.83 12.7333 408.23 12.6 408.897 12.6C409.497 12.6 410.097 12.7333 410.697 13V12.6C410.697 11.6667 411.13 10.7667 411.997 9.9ZM415.997 16.3C415.064 16.3 414.197 15.6 413.397 14.2C413.33 15.2667 412.464 16 410.797 16.4C411.664 16.8 412.097 17.3333 412.097 18C412.03 18.2 411.897 18.6333 411.697 19.3C412.364 19.1 413.097 19 413.897 19C414.43 19 414.83 19.0667 415.097 19.2V18.3C415.097 17.4333 415.397 16.7667 415.997 16.3ZM428.697 32.5V26.3H422.897V32.5H428.697ZM420.797 22.3C420.53 22.3667 420.297 22.4 420.097 22.4C419.23 22.4 418.597 21.8 418.197 20.6C418.13 22 417.264 22.5667 415.597 22.3C416.464 22.6333 416.83 23.6667 416.697 25.4C417.097 25.2 417.664 25.1 418.397 25.1C419.264 25.1 419.764 25.2 419.897 25.4V25.1C419.897 24.0333 420.197 23.1 420.797 22.3ZM407.197 16.3C406.197 16.1 405.33 15.4 404.597 14.2C404.33 14.9333 403.564 15.5667 402.297 16.1C402.23 16.3667 402.397 16.7 402.797 17.1C403.264 17.4333 403.464 17.7 403.397 17.9L402.897 19.4C403.297 18.9333 403.864 18.7 404.597 18.7C404.797 18.7 405.097 18.7333 405.497 18.8C405.897 18.8667 406.197 18.9 406.397 18.9C406.33 18.7667 406.297 18.6 406.297 18.4C406.297 17.7333 406.597 17.0333 407.197 16.3ZM411.997 22.3C410.93 22.3 410.064 21.7333 409.397 20.6C408.664 21.5333 407.797 22.1 406.797 22.3C407.397 23.1667 407.697 24.2 407.697 25.4C408.23 25.2667 408.797 25.2 409.397 25.2C409.93 25.2 410.364 25.2667 410.697 25.4C410.63 24.4667 411.064 23.4333 411.997 22.3ZM415.997 28.8C415.064 28.7333 414.164 28.1333 413.297 27C413.297 28.4 412.464 28.9667 410.797 28.7C411.464 29.0333 411.797 29.6667 411.797 30.6C411.797 31 411.764 31.3667 411.697 31.7C412.364 31.5 413.097 31.4 413.897 31.4C414.43 31.4 414.83 31.4667 415.097 31.6V30.7C415.097 29.8333 415.397 29.2 415.997 28.8ZM428.597 45.3V39.1H422.897V45.3H428.597ZM420.797 34.7C419.73 34.7 418.83 34.1333 418.097 33C418.097 33.7333 417.264 34.4 415.597 35C416.33 35.6 416.697 36.5333 416.697 37.8C417.164 37.6 417.73 37.5 418.397 37.5C419.264 37.5 419.764 37.6 419.897 37.8C419.83 37.5333 419.797 37.2667 419.797 37C419.797 36.5333 419.93 36.1333 420.197 35.8C420.53 35.2 420.73 34.8333 420.797 34.7ZM407.197 28.7C406.264 28.7 405.397 28.1333 404.597 27C404.064 28.1333 403.497 28.7 402.897 28.7V29.7C402.964 30.1667 402.997 30.5333 402.997 30.8C402.997 31.2 402.93 31.5 402.797 31.7C403.464 31.5667 404.097 31.5 404.697 31.5C405.43 31.5 405.964 31.6 406.297 31.8V31.5C406.297 30.4333 406.597 29.5 407.197 28.7ZM411.597 34.7C410.664 34.5667 409.93 34 409.397 33C408.664 33.9333 407.797 34.5 406.797 34.7C407.13 35.4333 407.43 36.4667 407.697 37.8C407.964 37.6667 408.53 37.6 409.397 37.6C409.997 37.6 410.43 37.6667 410.697 37.8V37.5C410.697 36.8333 410.997 35.9 411.597 34.7ZM415.997 41.1C415.064 41.0333 414.164 40.4667 413.297 39.4C413.297 40.8 412.464 41.3667 410.797 41.1C411.664 41.4333 412.03 42.4667 411.897 44.2C412.497 43.8667 413.564 43.7667 415.097 43.9C415.03 43.7667 414.997 43.5667 414.997 43.3C414.997 42.6333 415.33 41.9 415.997 41.1ZM420.797 47.6C419.53 46.9333 418.664 46.2 418.197 45.4C418.13 46.2667 417.264 47 415.597 47.6C416.53 48.2667 416.997 48.9333 416.997 49.6C416.997 49.7333 416.964 49.9 416.897 50.1C417.297 49.9 417.83 49.8 418.497 49.8C419.097 49.8 419.497 49.9333 419.697 50.2C419.497 49.9333 419.397 49.6667 419.397 49.4C419.397 49.2 419.864 48.6 420.797 47.6ZM407.197 41.2C406.13 41.2 405.264 40.6 404.597 39.4C404.064 40.5333 403.497 41.1 402.897 41.1V42.1C402.964 42.5667 402.997 42.9333 402.997 43.2C402.997 43.6 402.93 43.9 402.797 44.1C403.197 44.0333 403.664 44 404.197 44H405.297C405.764 44.0667 406.13 44.1 406.397 44.1C406.33 43.9 406.297 43.6333 406.297 43.3C406.297 42.1 406.597 41.4 407.197 41.2ZM411.997 47.6C410.797 46.8667 410.13 46.4667 409.997 46.4C409.597 46.4 409.23 46.6 408.897 47C407.897 47 407.197 47.2 406.797 47.6C407.597 48.2 407.864 49.0333 407.597 50.1H408.697C409.164 50.0333 409.497 50 409.697 50C410.164 50 410.497 50.0667 410.697 50.2V50.1C410.697 49.2333 411.13 48.4 411.997 47.6ZM428.697 55.5V54.6C428.697 53.8 428.63 52.9333 428.497 52H402.897V58.3H428.497C428.63 57.2333 428.697 56.3 428.697 55.5ZM428.697 68.3V67.4C428.697 66.6 428.63 65.7333 428.497 64.8H402.897V71.1H428.497C428.63 70.0333 428.697 69.1 428.697 68.3ZM428.697 81.4V80.6C428.697 79.7333 428.63 78.8333 428.497 77.9H402.897V84.1H428.497C428.63 83.1667 428.697 82.2667 428.697 81.4ZM511.672 52C511.672 51.1333 511.572 55.3667 511.372 64.7L510.872 90.1C502.472 97.1 493.072 100.6 482.672 100.6C472.405 100.6 463.172 97.1 454.972 90.1C444.439 81.1667 439.172 68.4333 439.172 51.9C439.172 50.0333 439.239 48.3333 439.372 46.8C440.439 34.4 446.305 23.6 456.972 14.4C467.439 5.4 478.939 0.899994 491.472 0.899994C498.939 0.899994 505.405 2.96666 510.872 7.1L511.672 52ZM509.672 36.8C509.672 37.6 509.572 34.4333 509.372 27.3L508.872 8.29999C502.272 5.1 495.005 3.5 487.072 3.5C479.072 3.5 472.372 5.26666 466.972 8.79999C460.039 13.3333 454.572 19.0333 450.572 25.9C446.372 33.0333 444.272 40.6 444.272 48.6C444.272 57.5333 446.739 65.7 451.672 73.1C456.405 80.2333 462.872 85.8667 471.072 90C476.072 92.5333 479.272 93.8 480.672 93.8H491.872C494.072 93.8 496.972 93.2667 500.572 92.2C504.239 91.1333 507.005 90.0333 508.872 88.9L509.672 36.8ZM505.972 35.8C505.972 38.7333 505.905 40.9 505.772 42.3C499.839 36.6333 494.639 33.8 490.172 33.8C486.305 33.8 482.939 35.2 480.072 38C477.272 40.7333 475.872 44.0333 475.872 47.9C475.872 51.9667 477.305 55.6333 480.172 58.9C483.039 62.1 486.505 63.7 490.572 63.7C495.372 63.7 500.439 61.0333 505.772 55.7C505.839 55.9667 505.872 56.2333 505.872 56.5C505.472 59.3 505.272 62.8 505.272 67C505.272 68.0667 505.405 72.0333 505.672 78.9C506.005 87.2333 500.172 91.4 488.172 91.4C480.905 91.4 474.772 89.9 469.772 86.9C462.972 82.8333 457.639 77.6 453.772 71.2C449.705 64.5333 447.672 57.3667 447.672 49.7C447.672 38.9667 451.172 29.7 458.172 21.9C464.905 14.3 473.605 9.4 484.272 7.2C485.272 7 486.272 6.89999 487.272 6.89999C492.339 6.96666 495.772 7.13333 497.572 7.39999C502.305 8.13333 504.939 9.8 505.472 12.4C505.472 13.7333 505.539 16.1333 505.672 19.6C505.872 25.6667 505.972 31.0667 505.972 35.8ZM503.972 21.2V14.7H491.772V21.2H503.972ZM489.672 11.5C488.739 11.4333 487.872 10.8667 487.072 9.8C486.739 10.6 486.005 11.1667 484.872 11.5C485.539 12.7667 485.839 13.8 485.772 14.6C486.305 14.2667 486.872 14.1 487.472 14.1C488.072 14.1 488.505 14.2667 488.772 14.6V14.3C488.772 13.2333 489.072 12.3 489.672 11.5ZM504.472 33V27.5H492.072C491.939 28.2333 491.872 29.1 491.872 30.1C491.872 31.2333 491.972 32.1667 492.172 32.9C494.839 33.3667 497.339 33.6 499.672 33.6C501.739 33.6 503.339 33.4 504.472 33ZM480.872 11.6C480.139 11.4667 479.605 11.2 479.272 10.8C478.739 10.2667 478.372 9.93333 478.172 9.8C477.772 10.8 477.072 11.3667 476.072 11.5C476.805 12.6333 477.105 13.6333 476.972 14.5C477.505 14.3 478.205 14.2 479.072 14.2C479.539 14.2 479.839 14.2667 479.972 14.4C479.905 14.1333 479.872 13.8667 479.872 13.6C479.872 12.6667 480.205 12 480.872 11.6ZM485.272 17.5C484.205 17.5 483.339 16.9333 482.672 15.8C482.272 16.3333 481.405 17 480.072 17.8C480.805 18.4 481.172 19.3333 481.172 20.6C481.705 20.4 482.205 20.3 482.672 20.3C483.072 20.3 483.505 20.4 483.972 20.6C483.905 19.6667 484.339 18.6333 485.272 17.5ZM489.672 23.5L487.272 22.6C486.472 23.2 485.539 23.5 484.472 23.5C485.272 24.6333 485.705 25.6667 485.772 26.6C486.105 26.4667 486.605 26.4 487.272 26.4C488.072 26.4 488.572 26.4667 488.772 26.6C488.705 26.2667 488.672 25.9667 488.672 25.7C488.672 25.3 488.839 24.8333 489.172 24.3C489.505 23.7667 489.672 23.5 489.672 23.5ZM471.272 12.3C469.805 12.7 468.772 13.4333 468.172 14.5C468.439 14.4333 468.839 14.4 469.372 14.4C470.039 14.4 470.639 14.4667 471.172 14.6V13.8C471.105 13.4 471.072 13.1333 471.072 13C471.072 12.6667 471.139 12.4333 471.272 12.3ZM476.472 17.5C475.405 17.5 474.505 16.9333 473.772 15.8C473.772 16.5333 472.939 17.2 471.272 17.8C472.005 18.4667 472.372 19.4 472.372 20.6C472.772 20.2 473.272 20 473.872 20C474.472 20 474.905 20.2 475.172 20.6C475.039 19.6667 475.472 18.6333 476.472 17.5ZM480.872 23.5C480.005 23.5 479.139 23.0667 478.272 22.2C477.539 23.2 476.839 23.6 476.172 23.4C476.172 23.7333 476.305 24.2667 476.572 25C476.839 25.6667 476.972 26.2 476.972 26.6C477.905 26.4 478.672 26.3 479.272 26.3C479.605 26.3 479.839 26.3333 479.972 26.4V26.2C479.972 25.0667 480.272 24.1667 480.872 23.5ZM484.872 29.9C483.939 29.7667 483.205 29.2 482.672 28.2C481.939 29.1333 481.072 29.7 480.072 29.9C480.672 30.7667 480.972 31.8 480.972 33C481.305 32.8667 481.772 32.8 482.372 32.8C482.972 32.8 483.505 32.8333 483.972 32.9V32.8C483.972 32.0667 484.272 31.1 484.872 29.9ZM467.672 17.5C466.605 17.5 465.739 16.9333 465.072 15.8C464.739 16.6 464.005 17.1667 462.872 17.5C463.539 18.8333 463.772 19.8333 463.572 20.5C463.972 20.3667 464.539 20.3 465.272 20.3C466.139 20.3 466.639 20.4 466.772 20.6C466.705 20.3333 466.672 20.0667 466.672 19.8C466.672 19.5333 466.772 19.1 466.972 18.5C467.239 17.8333 467.472 17.5 467.672 17.5ZM472.072 23.5C471.205 23.5 470.339 23.0667 469.472 22.2C468.739 23.2 468.039 23.6333 467.372 23.5C467.572 24.1667 467.839 25.2 468.172 26.6C468.439 26.4667 468.905 26.4 469.572 26.4C470.305 26.4 470.839 26.4667 471.172 26.6V26.3C471.172 25.0333 471.472 24.1 472.072 23.5ZM476.472 29.9C475.405 29.9 474.539 29.3333 473.872 28.2C472.872 29.5333 472.005 30.1 471.272 29.9C471.872 30.7 472.172 31.7333 472.172 33C472.705 32.8667 473.272 32.8 473.872 32.8C474.405 32.8 474.839 32.8667 475.172 33C475.105 32.0667 475.539 31.0333 476.472 29.9ZM480.472 35.9C480.072 35.9 479.339 35.3333 478.272 34.2C477.872 35.1333 477.139 35.7 476.072 35.9C476.672 37.7667 476.972 38.8 476.972 39C478.105 38.2 479.272 37.1667 480.472 35.9ZM463.272 23.5C462.405 23.5 461.672 22.9333 461.072 21.8C460.139 23.0667 459.305 23.6333 458.572 23.5C458.839 24.2333 459.105 25.2667 459.372 26.6C459.639 26.4667 460.205 26.4 461.072 26.4C461.672 26.4 462.105 26.4667 462.372 26.6V26.4C462.372 25.1333 462.672 24.1667 463.272 23.5ZM467.272 30.1C467.072 30.1667 466.872 30.2 466.672 30.2C466.072 30.2 465.539 29.5333 465.072 28.2C464.739 29 464.005 29.5667 462.872 29.9C463.539 31.2333 463.772 32.2667 463.572 33C463.905 32.7333 464.405 32.6 465.072 32.6C466.005 32.6 466.572 32.7333 466.772 33C466.639 32.5333 466.572 32.0667 466.572 31.6C466.572 30.7333 466.805 30.2333 467.272 30.1ZM472.072 35.9C471.939 35.9 471.039 35.3333 469.372 34.2C469.039 35.1333 468.339 35.7 467.272 35.9C467.872 37.7 468.172 38.7 468.172 38.9C468.705 38.7 469.405 38.6 470.272 38.6C470.739 38.6 471.039 38.6667 471.172 38.8C471.105 38.6 471.072 38.4 471.072 38.2C471.072 37.4667 471.405 36.7 472.072 35.9ZM476.072 42.4C474.939 41.8 474.205 41.2 473.872 40.6C473.272 41.7333 472.405 42.3 471.272 42.3C471.939 42.9667 472.239 43.8667 472.172 45C472.372 44.8 472.839 44.7 473.572 44.7C474.239 44.7 474.772 44.8 475.172 45C475.105 44.6667 475.072 44.3667 475.072 44.1C475.072 43.3 475.405 42.7333 476.072 42.4ZM458.872 29.9C457.939 29.8333 457.072 29.2667 456.272 28.2C455.939 29 455.205 29.5667 454.072 29.9C454.739 31.1667 455.039 32.2 454.972 33C455.305 32.8 455.805 32.7 456.472 32.7C457.205 32.7 457.705 32.8 457.972 33V32.7C457.972 31.6333 458.272 30.7 458.872 29.9ZM463.272 35.9C462.339 35.7667 461.605 35.2 461.072 34.2C460.339 35.1333 459.472 35.7 458.472 35.9C459.072 36.7667 459.372 37.8 459.372 39C459.839 38.8667 460.405 38.8 461.072 38.8C461.605 38.8 462.039 38.8667 462.372 39C462.372 38.7333 462.672 37.7 463.272 35.9ZM467.672 42.3C466.605 42.1 465.705 41.4 464.972 40.2C464.972 41.2 464.139 41.9333 462.472 42.4C462.805 42.6 463.105 43 463.372 43.6C463.705 44.2 463.805 44.6333 463.672 44.9C464.005 44.8333 464.472 44.8 465.072 44.8C465.939 44.8 466.505 44.8667 466.772 45V44.5C466.772 43.7 467.072 42.9667 467.672 42.3ZM472.072 48.3C471.405 48.1667 470.905 47.9333 470.572 47.6C469.839 47 469.439 46.6667 469.372 46.6C468.839 47.7333 468.139 48.3 467.272 48.3C468.005 49.4333 468.305 50.4333 468.172 51.3C468.572 51.1 469.072 51 469.672 51C470.272 51 470.772 51.1333 471.172 51.4C471.172 50.1333 471.472 49.1 472.072 48.3ZM454.472 35.9C453.539 35.7667 452.805 35.2 452.272 34.2C451.472 35.8 450.972 37.4 450.772 39C451.239 38.7333 451.772 38.6 452.372 38.6C453.172 38.6 453.705 38.7333 453.972 39C453.905 38.8 453.872 38.5667 453.872 38.3C453.872 37.3667 454.072 36.5667 454.472 35.9ZM458.872 42.3C457.539 42.2333 456.672 41.5333 456.272 40.2C456.272 40.6 456.005 41.0667 455.472 41.6C454.939 42.0667 454.472 42.3 454.072 42.3C454.739 42.7667 455.072 43.3 455.072 43.9C455.072 43.4333 455.039 43.8 454.972 45C455.305 44.8667 455.805 44.8 456.472 44.8C457.205 44.8 457.705 44.8667 457.972 45V44.7C457.972 43.7667 458.272 42.9667 458.872 42.3ZM463.272 48.3C462.672 48.3 461.805 47.7333 460.672 46.6C460.205 47.6 459.472 48.2 458.472 48.4C459.339 48.6 459.772 49.1 459.772 49.9C459.772 50.3 459.639 50.7667 459.372 51.3C459.772 51.1 460.272 51 460.872 51C461.472 51 461.972 51.1333 462.372 51.4C462.372 50.2667 462.672 49.2333 463.272 48.3ZM504.372 68.1C504.372 67.0333 504.305 66.0333 504.172 65.1H452.472C453.072 66.6333 454.172 68.8667 455.772 71.8H504.172C504.305 70.8 504.372 69.8 504.372 68.8V68.1ZM478.072 58.9C477.405 57.6333 476.439 55.6667 475.172 53H450.172C450.039 53.6667 449.972 54.4 449.972 55.2C449.972 55.6 450.005 56.2333 450.072 57.1C450.139 57.9 450.172 58.5 450.172 58.9H478.072ZM454.872 48.3C453.939 48.2333 453.072 47.6667 452.272 46.6C451.405 47.8 450.539 48.4 449.672 48.4C450.472 48.5333 450.872 49.0333 450.872 49.9C450.872 50.5667 450.739 51.0333 450.472 51.3C451.072 51.0333 452.139 50.9 453.672 50.9C453.605 50.0333 454.005 49.1667 454.872 48.3ZM503.972 84.6V77.9H460.472C462.605 80.3 464.472 81.9667 466.072 82.9C468.072 84.0333 470.505 84.6 473.372 84.6H503.972ZM617.637 94.9C616.97 94.7 615.637 94.6 613.637 94.6C613.57 94.8 613.537 95.0667 613.537 95.4C613.537 96.2667 613.87 97.4333 614.537 98.9H572.137C572.403 98.1 572.537 97.2667 572.537 96.4C572.537 94.4 571.837 92.5667 570.437 90.9C569.037 89.2333 567.337 88.4 565.337 88.4C562.47 88.4 560.97 90.4333 560.837 94.5C558.703 94.4333 557.503 95.9 557.237 98.9H515.337L544.637 5.8C545.837 5.8 546.77 5.36666 547.437 4.5C547.637 4.16666 548.037 3.13333 548.637 1.39999H587.237L617.637 94.9ZM614.937 92.5L585.637 3.6H549.837L521.737 92.5H559.237L561.637 82.6H574.637C575.237 84.1333 576.17 87.4333 577.437 92.5H614.937ZM610.137 88.9H580.237C579.703 86.7 578.77 83.4 577.437 79H558.837C557.703 82 556.903 85.3 556.437 88.9H526.537L552.637 7H583.237L610.137 88.9ZM586.137 20.1C585.203 17.7667 584.503 15.5667 584.037 13.5H575.037V20.1H586.137ZM572.937 10.3C572.67 10.3667 572.437 10.4 572.237 10.4C571.37 10.4 570.737 9.8 570.337 8.6C570.27 10 569.403 10.5667 567.737 10.3C568.603 11.4333 569.037 12.4667 569.037 13.4C569.37 13.2 569.87 13.1 570.537 13.1C571.27 13.1 571.77 13.2 572.037 13.4V13C572.037 11.9333 572.337 11.0333 572.937 10.3ZM590.137 32.9C589.803 31.3 589.103 29.2 588.037 26.6H575.037V32.9H590.137ZM564.137 10.4C563.137 10.4 562.27 9.8 561.537 8.6C560.537 9.93333 559.67 10.5 558.937 10.3C559.803 10.7 560.17 11.7333 560.037 13.4C560.37 13.1333 560.87 13 561.537 13C562.47 13 563.037 13.1333 563.237 13.4C563.17 13.2 563.137 12.9667 563.137 12.7C563.137 11.4333 563.47 10.6667 564.137 10.4ZM568.137 16.8C567.67 16.6667 567.17 16.3667 566.637 15.9C566.103 15.4333 565.703 15.1333 565.437 15C565.103 15.8667 564.403 16.4667 563.337 16.8C564.07 17.5333 564.37 18.5333 564.237 19.8C564.77 19.4667 565.403 19.3 566.137 19.3C566.67 19.3 567.037 19.4 567.237 19.6C567.17 19.2667 567.137 19 567.137 18.8C567.137 17.8 567.47 17.1333 568.137 16.8ZM572.937 22.7C572.67 22.7667 572.437 22.8 572.237 22.8C571.37 22.8 570.737 22.2 570.337 21C570.27 22.4 569.403 22.9667 567.737 22.7C568.603 23.0333 568.97 24.0667 568.837 25.8C569.103 25.6667 569.57 25.6 570.237 25.6C571.103 25.6 571.703 25.6667 572.037 25.8V25.4C572.037 24.3333 572.337 23.4333 572.937 22.7ZM555.337 10.3H553.037C552.837 10.5667 552.737 10.8667 552.737 11.2C552.737 11.8 553.17 12.5333 554.037 13.4V13.3C554.037 12.3667 554.47 11.3667 555.337 10.3ZM594.537 45.7L592.437 39.4H575.037V45.7H594.537ZM559.337 16.8C558.67 16.6667 557.803 16.0667 556.737 15C556.07 16 555.203 16.6 554.137 16.8C555.07 17.2 555.57 17.9 555.637 18.9C555.903 18.9 556.837 19.1333 558.437 19.6V18.7C558.437 17.7667 558.737 17.1333 559.337 16.8ZM563.737 22.9C563.537 22.9667 563.337 23 563.137 23C562.47 23 561.937 22.3333 561.537 21C561.47 22.4 560.603 22.9667 558.937 22.7C559.803 23.0333 560.17 24.0667 560.037 25.8C560.37 25.5333 560.87 25.4 561.537 25.4C562.47 25.4 563.037 25.5333 563.237 25.8C563.103 25.3333 563.037 24.8667 563.037 24.4C563.037 23.5333 563.27 23.0333 563.737 22.9ZM568.137 29.2C567.537 29.0667 567.037 28.8333 566.637 28.5C565.97 27.8333 565.57 27.4667 565.437 27.4C565.37 28.8 564.537 29.3667 562.937 29.1C563.87 29.5 564.337 30.2333 564.337 31.3C565.07 31.4333 566.037 31.6667 567.237 32V31.1C567.237 30.1667 567.537 29.5333 568.137 29.2ZM572.937 35.1L570.537 34.2C569.87 34.2667 569.537 34.5667 569.537 35.1C569.537 36.5 570.37 37.5333 572.037 38.2C571.97 37.9333 571.937 37.6667 571.937 37.4C571.937 36.9333 572.07 36.5333 572.337 36.2C572.67 35.6 572.87 35.2333 572.937 35.1ZM598.937 58.5C597.87 55.9 597.17 53.8333 596.837 52.3H572.937L574.237 58.5H598.937ZM555.337 22.8C554.337 22.8 553.47 22.2 552.737 21C551.737 22.3333 550.87 22.9 550.137 22.7C551.003 23.1 551.37 24.1333 551.237 25.8C551.703 25.5333 552.237 25.4 552.837 25.4C553.637 25.4 554.17 25.5333 554.437 25.8C554.37 25.6 554.337 25.3333 554.337 25C554.337 23.7333 554.67 23 555.337 22.8ZM559.337 29.1C558.403 29.0333 557.503 28.4667 556.637 27.4C556.637 28.8 555.937 29.4 554.537 29.2C555.27 29.4 555.637 29.9 555.637 30.7C555.637 30.8333 555.603 31.0667 555.537 31.4C555.47 31.7333 555.437 31.9667 555.437 32.1V32.2C555.97 31.9333 556.57 31.8 557.237 31.8C557.837 31.8 558.237 31.9333 558.437 32.2V31.9C558.437 30.8333 558.737 29.9 559.337 29.1ZM564.137 35.2C563.07 35.2 562.17 34.6 561.437 33.4C561.437 34.8 560.603 35.3667 558.937 35.1C559.803 35.4333 560.17 36.4667 560.037 38.2C560.437 38 561.003 37.9 561.737 37.9C562.603 37.9 563.103 38 563.237 38.2C563.17 38 563.137 37.7667 563.137 37.5C563.137 36.1667 563.47 35.4 564.137 35.2ZM565.537 40.8V39.8C565.47 41.2 564.603 41.7667 562.937 41.5C563.47 41.7667 564.037 42.2667 564.637 43C565.237 43 565.537 42.2667 565.537 40.8ZM572.937 58.5C571.803 53.6333 570.27 46.3333 568.337 36.6L563.737 58.5H572.937ZM550.537 29.1C549.603 29.0333 548.737 28.4667 547.937 27.4C547.07 29.0667 546.637 30.6333 546.637 32.1V32.2C546.97 31.9333 547.437 31.8 548.037 31.8C548.903 31.8 549.437 31.9333 549.637 32.2L549.537 31.9C549.537 30.9 549.87 29.9667 550.537 29.1ZM555.337 35.1C554.27 35.1 553.403 34.5333 552.737 33.4C551.803 34.6667 550.97 35.2333 550.237 35.1C550.77 36.9 551.037 37.9 551.037 38.1C551.503 38.0333 552.07 38 552.737 38C553.27 38 553.703 38.0667 554.037 38.2C553.97 37.2667 554.403 36.2333 555.337 35.1ZM559.337 41.5C559.203 41.5 558.303 40.9333 556.637 39.8C556.57 41.2 555.737 41.7667 554.137 41.5C555.07 41.9 555.537 42.6333 555.537 43.7C556.27 43.8333 557.237 44.1333 558.437 44.6V44.3C558.437 43.2333 558.737 42.3 559.337 41.5ZM564.137 47.6C563.07 47.6 562.17 47 561.437 45.8C561.437 47.2 560.603 47.7667 558.937 47.5C559.803 47.8333 560.17 48.8667 560.037 50.6C560.437 50.4 561.003 50.3 561.737 50.3C562.603 50.3 563.103 50.4 563.237 50.6C563.17 50.4 563.137 50.1667 563.137 49.9C563.137 48.5667 563.47 47.8 564.137 47.6ZM607.337 84.1C606.27 81.5 605.57 79.4333 605.237 77.9H578.937C579.27 79.3 579.837 81.3667 580.637 84.1H607.337ZM546.037 35.1H545.437L544.837 38.1H545.437L546.037 35.1ZM550.537 41.5C549.603 41.4333 548.703 40.8667 547.837 39.8C547.837 41.2 547.003 41.7667 545.337 41.5C546.203 42.5667 546.637 43.6 546.637 44.6C547.17 44.2667 547.737 44.1 548.337 44.1C548.937 44.1 549.37 44.2667 549.637 44.6V44.3C549.637 43.2333 549.937 42.3 550.537 41.5ZM555.337 47.5C554.27 47.5 553.403 46.9333 552.737 45.8C552.003 46.7333 551.137 47.3 550.137 47.5C550.737 48.3667 551.037 49.4 551.037 50.6C551.57 50.4667 552.137 50.4 552.737 50.4C553.27 50.4 553.703 50.4667 554.037 50.6C553.97 49.6667 554.403 48.6333 555.337 47.5ZM602.937 71.3L600.837 65H535.437C535.103 66.7333 534.403 68.8333 533.337 71.3H602.937ZM546.137 47.5C545.203 47.3667 544.47 46.8 543.937 45.8C543.203 46.7333 542.337 47.3 541.337 47.5C541.937 49.3 542.237 50.3 542.237 50.5C542.703 50.4333 543.27 50.4 543.937 50.4C544.47 50.4 544.903 50.4667 545.237 50.6V50.4C545.237 49.7333 545.537 48.7667 546.137 47.5ZM562.937 54.5C562.937 53.5667 562.837 52.8 562.637 52.2H539.837C538.903 54.5333 538.203 56.5667 537.737 58.3H562.637C562.837 56.1 562.937 54.8333 562.937 54.5ZM557.337 77.9H531.437C531.037 79.3 530.337 81.3667 529.337 84.1H556.037L557.337 77.9Z" fill="white"/>
</svg>
