<svg width="358" height="80" viewBox="0 0 358 80" fill="none" xmlns="http://www.w3.org/2000/svg">
<path d="M78.08 27.6L77.76 40.8C77.76 41.12 77.7867 41.6267 77.84 42.32C77.9467 42.96 78 43.44 78 43.76C78 49.7333 75.4933 55.7333 70.48 61.76C66.4267 66.6667 61.4667 70.8267 55.6 74.24C49.0933 78.0267 42.9867 79.92 37.28 79.92C34.72 79.92 32.3467 79.4933 30.16 78.64L19.84 74.64C16.4267 73.3067 13.3867 71.2267 10.72 68.4C3.94667 61.2533 0.56 52.5333 0.56 42.24C0.56 34.8267 2.37333 27.7867 6 21.12C9.62667 14.4 14.56 9.17333 20.8 5.44C26.7733 1.86666 33.28 0.079998 40.32 0.079998C48.2133 0.079998 55.4133 2.32 61.92 6.8C68.16 11.0667 73.0133 16.88 76.48 24.24C75.7333 24.4533 74.56 24.9867 72.96 25.84V26.08C72.96 27.2 73.5467 27.76 74.72 27.76C75.04 27.76 75.4933 27.7333 76.08 27.68C76.6667 27.5733 77.12 27.52 77.44 27.52C77.7067 27.52 77.92 27.5467 78.08 27.6ZM76.16 41.44V28.88C73.0133 28.9333 70.6133 28.96 68.96 28.96C65.76 28.96 64.16 28.7467 64.16 28.32C65.12 27.3067 66.7733 26.3467 69.12 25.44C71.68 24.4267 73.3867 23.6 74.24 22.96C71.9467 16.3467 67.5733 11.0933 61.12 7.2C55.0933 3.52 48.4267 1.68 41.12 1.68C30.56 1.68 21.8933 5.09333 15.12 11.92C8.34667 18.6933 4.96 27.36 4.96 37.92C4.96 45.76 7.04 52.7467 11.2 58.88C15.4133 65.1733 21.1467 69.6267 28.4 72.24C32.08 73.5733 34.72 74.24 36.32 74.24H45.28C52.9067 74.24 60 70.6667 66.56 63.52C72.96 56.5333 76.16 49.1733 76.16 41.44ZM73.36 42.88C73.36 50.4533 69.6 57.2267 62.08 63.2C55.04 68.8 47.6 71.6 39.76 71.6C32.8267 71.6 26.2933 69.12 20.16 64.16C14.08 59.2533 10.2667 53.3867 8.72 46.56C8.13333 44 7.84 41.4133 7.84 38.8C7.84 32.4533 9.46667 26.48 12.72 20.88C15.9733 15.28 20.3733 10.9067 25.92 7.76C30.24 5.30667 34.5867 4.08 38.96 4.08C40.1867 4.08 41.5467 4.21333 43.04 4.48C58.0267 7.2 67.1467 13.04 70.4 22L50.08 30.08C46.4 27.0933 43.0667 25.6 40.08 25.6C36.8267 25.6 34.2933 27.1467 32.48 30.24C30.9333 32.8533 30.16 35.8933 30.16 39.36C30.16 42.56 30.88 45.3333 32.32 47.68C33.9733 50.4533 36.32 51.84 39.36 51.84C42.1867 51.84 45.3867 50.6133 48.96 48.16C48.8533 48.0533 48.5067 48 47.92 48C47.12 48 44.4 48.08 39.76 48.24V31.68H73.2C73.2533 31.84 73.28 32 73.28 32.16C73.28 32.5867 73.2267 33.2267 73.12 34.08C73.0667 34.88 73.04 35.4933 73.04 35.92C73.04 36.72 73.0933 37.8933 73.2 39.44C73.3067 40.9333 73.36 42.08 73.36 42.88ZM64.96 15.28C62.08 11.92 58.2667 10.24 53.52 10.24C52.88 10.24 52.1333 10.2667 51.28 10.32V15.28H64.96ZM49.6 7.44C49.12 7.44 48.56 7.25333 47.92 6.88C47.8133 6.88 47.6533 7.06666 47.44 7.44H45.76C46.08 8.08 46.3733 8.90666 46.64 9.92C47.12 9.76 47.5467 9.68 47.92 9.68C48.3467 9.68 48.6667 9.76 48.88 9.92C48.88 9.22666 49.12 8.4 49.6 7.44ZM69.12 21.12C68.32 20.7467 65.5467 20.5067 60.8 20.4L51.6 20.16C51.44 20.96 51.36 21.8933 51.36 22.96C51.36 24.0267 51.44 24.88 51.6 25.52C52.4 25.68 53.2267 25.76 54.08 25.76C56.64 25.76 59.2 25.2267 61.76 24.16L69.12 21.12ZM42.88 7.44C42.0267 7.44 41.3067 6.98666 40.72 6.08C40.72 6.66666 40.0533 7.2 38.72 7.68C39.36 8.37333 39.7067 9.12 39.76 9.92C40.08 9.76 40.48 9.68 40.96 9.68C41.6533 9.68 42.0533 9.76 42.16 9.92C42.1067 9.70666 42.08 9.49333 42.08 9.28C42.1333 9.06667 42.4 8.45333 42.88 7.44ZM46.08 12.56C45.3333 12.5067 44.64 12.0533 44 11.2C43.7333 11.84 43.1467 12.2933 42.24 12.56C42.7733 13.5733 43.0133 14.4 42.96 15.04C43.2267 14.88 43.6267 14.8 44.16 14.8C44.7467 14.8 45.1467 14.88 45.36 15.04V14.8C45.36 13.9467 45.6 13.2 46.08 12.56ZM49.6 17.36C48.8533 17.2533 48.2667 16.8 47.84 16C47.04 17.0667 46.3467 17.52 45.76 17.36C46.24 18 46.48 18.8267 46.48 19.84C46.9067 19.7333 47.36 19.68 47.84 19.68C48.2667 19.68 48.6133 19.7333 48.88 19.84V19.68C48.88 19.1467 49.12 18.3733 49.6 17.36ZM72.24 35.44V33.04H51.28V35.44H72.24ZM35.84 7.44C35.1467 7.44 34.4533 7.09333 33.76 6.4C33.5467 6.82667 32.8533 7.30667 31.68 7.84C32.2667 8.32 32.56 9.01333 32.56 9.92C32.9333 9.76 33.4133 9.68 34 9.68C34.64 9.68 35.0133 9.76 35.12 9.92C35.0667 9.70666 35.04 9.49333 35.04 9.28C35.0933 9.06667 35.36 8.45333 35.84 7.44ZM39.04 12.56C38.9333 12.56 38.2133 12.1067 36.88 11.2C36.6133 11.84 36.0533 12.2933 35.2 12.56C35.7333 13.5733 35.9733 14.4 35.92 15.04C36.1867 14.88 36.5867 14.8 37.12 14.8C37.7067 14.8 38.1067 14.88 38.32 15.04V14.8C38.32 13.9467 38.56 13.2 39.04 12.56ZM42.56 17.52C42.4 17.5733 42.24 17.6 42.08 17.6C41.5467 17.6 41.12 17.0667 40.8 16C40.7467 17.12 40.0533 17.5733 38.72 17.36C39.4133 17.6267 39.7067 18.4533 39.6 19.84C39.8133 19.7333 40.1867 19.68 40.72 19.68C41.4133 19.68 41.8933 19.7067 42.16 19.76C42.1067 19.3333 42.08 18.96 42.08 18.64C42.08 18 42.24 17.6267 42.56 17.52ZM46.08 22.48C45.5467 22.4267 44.8533 21.9733 44 21.12C43.3067 22.08 42.6133 22.56 41.92 22.56C42.56 23.1467 43.7067 23.8133 45.36 24.56V23.92C45.36 23.3333 45.6 22.8533 46.08 22.48ZM28.16 9.84C28 9.68 27.92 9.38667 27.92 8.96C27.92 8.53333 28 8.24 28.16 8.08C27.0933 8.4 26.1333 8.98666 25.28 9.84C25.6 9.73333 26 9.68 26.48 9.68C26.6933 9.68 26.96 9.70666 27.28 9.76C27.6533 9.81333 27.9467 9.84 28.16 9.84ZM32 12.64C31.6267 12.5333 31.2267 12.2933 30.8 11.92C30.3733 11.5467 30.0533 11.3067 29.84 11.2C29.5733 12 29.0133 12.4533 28.16 12.56C28.7467 13.4667 28.9867 14.2667 28.88 14.96C29.3067 14.8 29.8667 14.72 30.56 14.72C30.9333 14.72 31.1733 14.7733 31.28 14.88C31.2267 14.6667 31.2 14.4533 31.2 14.24C31.2 13.4933 31.4667 12.96 32 12.64ZM35.84 17.44C34.9867 17.44 34.2933 16.96 33.76 16C33.4933 16.64 32.9067 17.0933 32 17.36C32.5333 18.4267 32.72 19.2267 32.56 19.76C32.88 19.6533 33.3333 19.6 33.92 19.6C34.6133 19.6 35.0133 19.68 35.12 19.84C35.0667 19.68 35.04 19.4933 35.04 19.28C35.04 18.2133 35.3067 17.6 35.84 17.44ZM39.04 22.48C38.9333 22.48 38.2133 22.0267 36.88 21.12C36.6133 21.8133 36.0533 22.2667 35.2 22.48C35.84 23.4933 36.08 24.2933 35.92 24.88C36.3467 24.6667 36.96 24.56 37.76 24.56C38.0267 24.56 38.2133 24.5867 38.32 24.64V24C38.32 23.4133 38.56 22.9067 39.04 22.48ZM71.84 42.96C71.84 42.1067 71.76 41.36 71.6 40.72H40.72V45.68H71.6C71.76 44.7733 71.84 43.8667 71.84 42.96ZM45.2 34V33.52L42.96 32.88V33.36L45.2 34ZM49.6 36.88C48.8533 36.7733 48.2667 36.32 47.84 35.52C47.7867 36.5867 47.12 37.04 45.84 36.88C46.1067 37.52 46.3733 38.3467 46.64 39.36C47.12 39.2 47.5467 39.12 47.92 39.12C48.3467 39.12 48.6667 39.2 48.88 39.36V39.2C48.8267 38.6667 49.0667 37.8933 49.6 36.88ZM24.96 12.64C24.5867 12.5333 24.1867 12.2933 23.76 11.92C23.3333 11.5467 23.0133 11.3067 22.8 11.2C22.5333 12 21.9733 12.4533 21.12 12.56C21.7067 13.4667 21.9467 14.2667 21.84 14.96C22.2667 14.8 22.8267 14.72 23.52 14.72C23.8933 14.72 24.1333 14.7733 24.24 14.88C24.1867 14.6667 24.16 14.4533 24.16 14.24C24.16 13.4933 24.4267 12.96 24.96 12.64ZM28.8 17.44C27.9467 17.44 27.2533 16.96 26.72 16C26.4533 16.64 25.8667 17.0933 24.96 17.36C25.4933 18.4267 25.68 19.2267 25.52 19.76C25.84 19.6533 26.2933 19.6 26.88 19.6C27.5733 19.6 27.9733 19.68 28.08 19.84C28.0267 19.68 28 19.4933 28 19.28C28 18.2133 28.2667 17.6 28.8 17.44ZM32 22.48C31.4667 22.3733 31.0667 22.1867 30.8 21.92C30.2133 21.44 29.8933 21.1733 29.84 21.12C29.5733 21.8133 29.0133 22.2667 28.16 22.48C28.8 23.4933 29.04 24.2933 28.88 24.88C29.2 24.72 29.6 24.64 30.08 24.64C30.56 24.64 30.96 24.7467 31.28 24.96C31.28 23.9467 31.52 23.12 32 22.48ZM34 26.48V26.24C33.8933 26.3467 33.4933 26.56 32.8 26.88C32.16 27.2 31.7867 27.3333 31.68 27.28L32.8 28.48C33.6 27.68 34 27.0133 34 26.48ZM42.88 37.28C41.8133 36.7467 41.0933 36.16 40.72 35.52C40.8267 36.8 40.9067 37.52 40.96 37.68C41.12 38.4267 41.52 38.9867 42.16 39.36V38.96C42.16 38.32 42.4 37.76 42.88 37.28ZM21.44 17.52C21.28 17.5733 21.12 17.6 20.96 17.6C20.48 17.6 20.0533 17.0667 19.68 16C19.4133 16.64 18.8267 17.0933 17.92 17.36C18.4533 18.3733 18.6933 19.2 18.64 19.84C18.96 19.68 19.36 19.6 19.84 19.6C20.5333 19.6 20.9333 19.68 21.04 19.84C20.9333 19.4667 20.88 19.12 20.88 18.8C20.88 18.0533 21.0667 17.6267 21.44 17.52ZM24.96 22.48C24.4267 22.3733 24.0267 22.1867 23.76 21.92C23.1733 21.44 22.8533 21.1733 22.8 21.12C22.5333 21.8133 21.9733 22.2667 21.12 22.48C21.76 23.4933 22 24.2933 21.84 24.88C22.16 24.72 22.56 24.64 23.04 24.64C23.52 24.64 23.92 24.7467 24.24 24.96C24.24 23.9467 24.48 23.12 24.96 22.48ZM28.8 27.36C28.0533 27.3067 27.3333 26.8267 26.64 25.92C26.64 27.04 25.9733 27.4933 24.64 27.28C25.3333 27.6 25.6267 28.4267 25.52 29.76C25.7867 29.5467 26.1867 29.44 26.72 29.44C27.4667 29.44 27.92 29.5467 28.08 29.76C28.0267 29.6 28 29.4133 28 29.2C28 28.1867 28.2667 27.5733 28.8 27.36ZM30.48 32C30.48 31.52 30.4 31.2 30.24 31.04C29.6 31.7333 28.9067 32.08 28.16 32.08C28.48 32.72 28.7733 33.5467 29.04 34.56C30 34.1867 30.48 33.3333 30.48 32ZM17.92 22.48C17.3867 22.3733 16.9867 22.1867 16.72 21.92C16.1333 21.44 15.8133 21.1733 15.76 21.12C15.44 21.92 14.88 22.3733 14.08 22.48C14.6667 23.3867 14.9067 24.1867 14.8 24.88C15.12 24.72 15.52 24.64 16 24.64C16.48 24.64 16.88 24.7467 17.2 24.96C17.2 24.1067 17.44 23.28 17.92 22.48ZM21.76 27.28C21.5467 27.3333 21.36 27.36 21.2 27.36C20.5067 27.36 20 26.88 19.68 25.92C19.6267 27.04 18.9333 27.4933 17.6 27.28C18.2933 28.1867 18.64 29.0133 18.64 29.76C18.9067 29.5467 19.28 29.44 19.76 29.44C20.4533 29.44 20.88 29.5467 21.04 29.76L20.96 29.52C20.9067 28.72 21.1733 27.9733 21.76 27.28ZM24.96 32.08C24.2667 32.08 23.5733 31.7333 22.88 31.04C22.2933 31.84 21.7333 32.1867 21.2 32.08C21.6267 33.5733 21.84 34.4 21.84 34.56C22.0533 34.4533 22.4267 34.4 22.96 34.4C23.4933 34.4 23.92 34.4267 24.24 34.48C24.1867 34.2667 24.16 34.0533 24.16 33.84C24.2133 33.5733 24.48 32.9867 24.96 32.08ZM28.8 36.88C27.9467 36.88 27.2267 36.4267 26.64 35.52C26.64 36.2133 25.9733 36.8 24.64 37.28C25.2267 37.76 25.52 38.4533 25.52 39.36C25.8933 39.2 26.3733 39.12 26.96 39.12C27.6 39.12 27.9733 39.2 28.08 39.36C27.9733 39.0933 27.92 38.8533 27.92 38.64L28.8 36.88ZM70.4 50.88H50.16C49.5733 50.88 48.32 51.3333 46.4 52.24C44.48 53.0933 42.8267 53.52 41.44 53.52C39.3067 53.52 37.3067 53.0133 35.44 52C34.32 51.4133 33.5467 51.04 33.12 50.88H11.2C11.68 52.0533 12.4533 53.76 13.52 56H67.76C68.9867 53.9733 69.8667 52.2667 70.4 50.88ZM14.72 27.28C13.9733 27.2267 13.28 26.7733 12.64 25.92C11.84 26.9867 11.1467 27.44 10.56 27.28C11.2533 27.6 11.5467 28.4267 11.44 29.76C11.7067 29.5467 12.1067 29.44 12.64 29.44C13.3867 29.44 13.84 29.5467 14 29.76V29.52C14 28.6667 14.24 27.92 14.72 27.28ZM17.92 32.08C17.2267 32.08 16.5333 31.7333 15.84 31.04C15.2533 31.84 14.6933 32.16 14.16 32C14.16 32.2667 14.2667 32.6933 14.48 33.28C14.6933 33.8133 14.8 34.24 14.8 34.56C15.0133 34.4533 15.3867 34.4 15.92 34.4C16.4533 34.4 16.88 34.4533 17.2 34.56V34.32C17.2 33.3067 17.44 32.56 17.92 32.08ZM21.76 37.28C21.1733 37.0133 20.48 36.5333 19.68 35.84C19.4667 36.2667 18.7733 36.7467 17.6 37.28C18.1867 37.76 18.48 38.4533 18.48 39.36C18.8533 39.2 19.3067 39.12 19.84 39.12C20.5333 39.12 20.9333 39.2 21.04 39.36C20.9867 39.2533 20.96 39.12 20.96 38.96C20.96 38.32 21.2267 37.76 21.76 37.28ZM63.68 60.88H17.6C17.9733 61.4667 19.04 62.5067 20.8 64C22.6133 65.4933 23.76 66.24 24.24 66.24H56.8C57.2267 66.24 58.4 65.4667 60.32 63.92C62.2933 62.3733 63.4133 61.36 63.68 60.88ZM10.16 34.48L10 32.08H9.44L9.6 34.48H10.16ZM30.08 41.04H9.52C9.46667 41.3067 9.44 41.5733 9.44 41.84V45.68H30V44.24C30 43.7067 30 43.2533 30 42.88C29.9467 42.56 29.92 42.5067 29.92 42.72V42.24C29.92 41.8133 29.9733 41.4133 30.08 41.04ZM14.72 37.28C13.7067 36.8 13.0133 36.2133 12.64 35.52C12.4267 36.16 11.84 36.72 10.88 37.2C11.3067 37.7333 11.52 38.24 11.52 38.72C11.52 38.9333 11.4933 39.12 11.44 39.28C11.8667 39.2267 12.3467 39.2 12.88 39.2C13.4133 39.2 13.7867 39.2533 14 39.36V38.96C14 38.3733 14.24 37.8133 14.72 37.28ZM154.88 75.76C154.08 75.6 153.2 75.52 152.24 75.52C151.333 75.52 150.507 75.6 149.76 75.76C150.187 76.4533 150.827 77.52 151.68 78.96H114.32C114 78.32 113.493 77.3867 112.8 76.16C112.64 76.64 112.56 77.5733 112.56 78.96H81.04V4.24C81.7333 3.97333 82.8 3.84 84.24 3.84C84.4533 3.25333 84.56 2.08 84.56 0.319995H117.92C124.8 0.319995 131.067 2.48 136.72 6.8C142.853 11.4933 145.92 17.1467 145.92 23.76V32.16C145.92 34.5067 144.987 37.2533 143.12 40.4C141.52 43.12 139.68 45.3867 137.6 47.2L154.88 75.76ZM152 73.84L135.04 46.24C141.493 40 144.72 33.4667 144.72 26.64C144.72 19.5467 141.707 13.5733 135.68 8.72C130.027 4.18666 123.573 1.92 116.32 1.92H86.32V73.92H114.16C114.213 73.76 114.24 73.5733 114.24 73.36C114.24 72.9867 114.187 72.4267 114.08 71.68C113.973 70.9867 113.92 70.4533 113.92 70.08C113.92 68.5867 114.48 67.84 115.6 67.84C116.24 68.8 117.307 70.8 118.8 73.84H152ZM146.88 70.96H120.72L111.44 51.52V70.96H89.04V4.8H116.96C123.307 4.8 129.013 6.98666 134.08 11.36C139.413 15.9467 142.08 21.36 142.08 27.6C142.08 34.8 138.027 40.6933 129.92 45.28C131.467 46.24 133.653 49.0933 136.48 53.84C138.4 57.04 141.867 62.7467 146.88 70.96ZM136.64 14.96C134.667 11.3867 131.28 9.6 126.48 9.6C125.947 9.6 125.307 9.62667 124.56 9.68V14.96H136.64ZM122.88 7.2C122.4 7.14666 122 7.12 121.68 7.12H120.56C120.453 7.12 119.84 7.14666 118.72 7.2C119.413 7.46666 119.707 8.26666 119.6 9.6C119.973 9.38667 120.4 9.28 120.88 9.28C121.52 9.28 121.947 9.38667 122.16 9.6C122.107 9.44 122.08 9.22666 122.08 8.96C122.08 7.94667 122.347 7.36 122.88 7.2ZM140.08 25.2C140.08 23.4933 139.76 21.8133 139.12 20.16H124.56V25.2H140.08ZM115.52 7.12C114.827 7.12 114.133 6.77333 113.44 6.08C112.96 6.88 112.4 7.22666 111.76 7.12C111.92 7.65333 112.133 8.48 112.4 9.6C112.88 9.38667 113.467 9.28 114.16 9.28C114.48 9.28 114.693 9.33333 114.8 9.44C114.747 9.28 114.72 9.12 114.72 8.96C114.72 8.37333 114.987 7.76 115.52 7.12ZM119.04 12.24C118.293 12.1867 117.6 11.7333 116.96 10.88C116.373 11.6267 115.68 12.08 114.88 12.24C115.36 12.9333 115.6 13.76 115.6 14.72C116.133 14.56 116.64 14.48 117.12 14.48C117.653 14.48 118.053 14.56 118.32 14.72V14.48C118.32 13.6267 118.56 12.88 119.04 12.24ZM122.56 17.04C121.813 16.9333 121.227 16.48 120.8 15.68C120.48 16.1067 119.787 16.64 118.72 17.28C119.307 17.76 119.6 18.5067 119.6 19.52C119.973 19.36 120.427 19.28 120.96 19.28C121.653 19.28 122.053 19.36 122.16 19.52C122.107 19.36 122.08 19.2 122.08 19.04C122.08 18.24 122.24 17.5733 122.56 17.04ZM140.08 30.48H124.56V35.84H139.12C139.76 34.1867 140.08 32.4 140.08 30.48ZM108.48 7.12C107.787 7.12 107.093 6.77333 106.4 6.08C105.493 6.98666 104.907 7.38666 104.64 7.28C105.067 7.44 105.28 7.89333 105.28 8.64C105.28 8.90666 105.253 9.22666 105.2 9.6C105.413 9.49333 105.787 9.44 106.32 9.44C107.013 9.44 107.493 9.49333 107.76 9.6V9.28C107.76 8.48 108 7.76 108.48 7.12ZM112 12.24C111.84 12.2933 111.68 12.32 111.52 12.32C111.147 12.32 110.747 12.1067 110.32 11.68C109.947 11.2 109.68 10.9333 109.52 10.88C109.253 11.68 108.693 12.1333 107.84 12.24C108.48 13.2 108.72 14.0267 108.56 14.72C108.667 14.5067 108.987 14.4 109.52 14.4C110 14.4 110.48 14.5067 110.96 14.72V14.4C110.96 13.6533 111.307 12.9333 112 12.24ZM115.52 17.04C115.413 17.04 114.693 16.5867 113.36 15.68C113.093 16.4267 112.533 16.88 111.68 17.04C112.16 18.5333 112.4 19.36 112.4 19.52C112.613 19.4133 112.96 19.36 113.44 19.36C114.027 19.36 114.48 19.4133 114.8 19.52V19.36C114.8 18.3467 115.04 17.5733 115.52 17.04ZM119.04 22.16C118.187 22.16 117.493 21.7067 116.96 20.8C116.907 20.9067 116.32 21.4933 115.2 22.56C115.84 22.7733 116.773 23.1467 118 23.68C118 23.36 118.347 22.8533 119.04 22.16ZM122.88 27.28C122.133 27.1733 121.44 26.6133 120.8 25.6C120.32 27.04 120.08 28.1867 120.08 29.04C120.453 29.1467 121.067 29.2533 121.92 29.36C121.867 29.3067 121.84 29.2533 121.84 29.2C121.84 28.6133 122.187 27.9733 122.88 27.28ZM101.44 7.12C101.067 7.12 100.64 6.98666 100.16 6.72C99.52 6.34666 99.12 6.13333 98.96 6.08C98.3733 6.88 97.84 7.22666 97.36 7.12C97.7867 8.61333 98 9.41333 98 9.52C98.3733 9.46666 98.8267 9.44 99.36 9.44C99.7867 9.44 100.133 9.49333 100.4 9.6V9.52C100.4 8.77333 100.747 7.97333 101.44 7.12ZM104.64 12.24C103.893 12.1867 103.173 11.7333 102.48 10.88C102.48 12 101.92 12.48 100.8 12.32C101.387 12.48 101.68 12.88 101.68 13.52C101.68 13.6267 101.653 13.8133 101.6 14.08C101.547 14.3467 101.52 14.5333 101.52 14.64V14.72C101.947 14.5067 102.427 14.4 102.96 14.4C103.44 14.4 103.76 14.5067 103.92 14.72V14.48C103.92 13.6267 104.16 12.88 104.64 12.24ZM108.48 17.04C107.627 17.04 106.907 16.5867 106.32 15.68C106.32 16.3733 105.653 16.96 104.32 17.44C104.907 17.92 105.2 18.6133 105.2 19.52C105.573 19.36 106.053 19.28 106.64 19.28C107.28 19.28 107.653 19.36 107.76 19.52C107.707 19.3067 107.68 19.0933 107.68 18.88C107.733 18.6667 108 18.0533 108.48 17.04ZM110.72 22.16C110.72 21.84 110.64 21.5733 110.48 21.36L109.92 20.8C109.333 21.5467 108.64 22 107.84 22.16C108.32 23.6533 108.56 24.48 108.56 24.64C109.093 24.32 109.547 24.16 109.92 24.16C110.08 24.16 110.213 24.2133 110.32 24.32C110.32 23.4133 110.453 22.8533 110.72 22.64V22.16ZM94.08 7.2C93.28 7.09333 92.56 6.72 91.92 6.08C91.4933 6.88 90.9333 7.22666 90.24 7.12C90.7733 8.13333 90.96 8.93333 90.8 9.52C91.0133 9.46666 91.3867 9.44 91.92 9.44C92.56 9.44 93.04 9.46666 93.36 9.52V8.96C93.36 7.94667 93.6 7.36 94.08 7.2ZM122.88 37.2C122.133 37.1467 121.44 36.6933 120.8 35.84C120.213 36.5867 119.52 37.04 118.72 37.2C119.2 37.9467 119.44 38.7733 119.44 39.68C119.813 39.3067 120.24 39.12 120.72 39.12C121.147 39.12 121.627 39.28 122.16 39.6C122 39.3867 121.92 39.1467 121.92 38.88C121.92 38.5067 122.24 37.9467 122.88 37.2ZM97.6 12.32C96.8 12.32 96.1067 11.84 95.52 10.88C94.9333 11.6267 94.24 12.08 93.44 12.24C93.92 12.9867 94.16 13.8133 94.16 14.72C94.5333 14.3467 94.9333 14.16 95.36 14.16C95.7867 14.16 96.2933 14.3467 96.88 14.72C96.8267 14.5067 96.8 14.2933 96.8 14.08C96.8 13.0667 97.0667 12.48 97.6 12.32ZM101.12 17.04C100.427 17.04 99.84 16.5867 99.36 15.68C98.7733 16.4267 98.08 16.88 97.28 17.04C97.5467 17.6267 97.7867 18.4533 98 19.52C98.2133 19.4133 98.5867 19.36 99.12 19.36C99.6533 19.36 100.08 19.4133 100.4 19.52V19.28C100.4 18.2667 100.64 17.52 101.12 17.04ZM104.64 22.16C103.893 22.1067 103.173 21.6533 102.48 20.8C102.48 21.92 101.813 22.3733 100.48 22.16C101.173 22.4267 101.467 23.2533 101.36 24.64C101.573 24.5333 101.947 24.48 102.48 24.48C103.173 24.48 103.653 24.5333 103.92 24.64V24.32C103.92 23.52 104.16 22.8 104.64 22.16ZM108.48 27.28C107.413 27.2267 106.72 26.6667 106.4 25.6C106.347 26.1333 105.653 26.72 104.32 27.36C104.853 27.84 105.093 28.5067 105.04 29.36C105.253 29.36 105.547 29.3333 105.92 29.28C106.347 29.2267 106.667 29.2 106.88 29.2C107.253 29.2 107.493 29.28 107.6 29.44C107.44 29.2267 107.36 29.0133 107.36 28.8C107.36 28.64 107.733 28.1333 108.48 27.28ZM110.32 34.24C110.32 32.5867 110.187 31.4133 109.92 30.72C109.387 31.4667 108.693 31.92 107.84 32.08C108.107 32.6667 108.347 33.4933 108.56 34.56C109.147 34.24 109.6 34.08 109.92 34.08C110.08 34.08 110.213 34.1333 110.32 34.24ZM115.52 37.28C114.933 37.1733 114.507 36.96 114.24 36.64C113.813 36.2133 113.52 35.9467 113.36 35.84C113.093 36.5333 112.533 36.9867 111.68 37.2C112.32 38.2133 112.56 39.0133 112.4 39.6C112.827 39.3867 113.307 39.28 113.84 39.28C114.32 39.28 114.64 39.36 114.8 39.52C114.747 39.2533 114.72 39.04 114.72 38.88C114.72 38.1333 114.987 37.6 115.52 37.28ZM94 17.04C93.84 17.0933 93.68 17.12 93.52 17.12C92.8267 17.12 92.32 16.64 92 15.68C91.7333 16.32 91.1467 16.7733 90.24 17.04C90.7733 18.1067 90.96 18.9067 90.8 19.44C91.12 19.3333 91.5733 19.28 92.16 19.28C92.8533 19.28 93.2533 19.36 93.36 19.52C93.2533 19.2533 93.2 19.0133 93.2 18.8C93.2533 18.5333 93.52 17.9467 94 17.04ZM97.6 22.24C96.8 22.24 96.1067 21.76 95.52 20.8C94.72 21.8667 94.0267 22.32 93.44 22.16C93.92 22.8 94.16 23.6267 94.16 24.64C94.7467 24.48 95.28 24.4 95.76 24.4C96.24 24.4 96.6133 24.48 96.88 24.64C96.8267 24.4267 96.8 24.2133 96.8 24C96.8 22.9867 97.0667 22.4 97.6 22.24ZM101.12 26.96C100.427 26.96 99.84 26.5067 99.36 25.6L98.56 26.56C98.2933 26.88 97.8933 27.0133 97.36 26.96C97.7867 28.72 98 29.6533 98 29.76C98.5867 29.44 99.12 29.28 99.6 29.28C99.8667 29.28 100.133 29.3333 100.4 29.44V29.2C100.4 28.1867 100.64 27.44 101.12 26.96ZM136.64 56.24C135.947 55.12 134.853 53.4667 133.36 51.28H112.64C113.173 52.1867 113.947 53.84 114.96 56.24H136.64ZM104.56 32.08C104.4 32.1333 104.24 32.16 104.08 32.16C103.387 32.16 102.88 31.68 102.56 30.72C102.293 31.36 101.707 31.8133 100.8 32.08C101.28 33.0933 101.52 33.92 101.52 34.56C101.787 34.4533 102.187 34.4 102.72 34.4C103.36 34.4 103.76 34.4533 103.92 34.56C103.867 34.2933 103.84 34.0533 103.84 33.84C103.84 33.5733 103.947 33.2267 104.16 32.8C104.427 32.32 104.56 32.08 104.56 32.08ZM135.68 40.72H90.32V46H128.96L128.88 45.76C128.827 45.12 129.413 44.4 130.64 43.6C131.867 43.0133 133.547 42.0533 135.68 40.72ZM108.48 37.2C107.733 37.1467 107.04 36.6933 106.4 35.84C105.813 36.64 105.12 37.0933 104.32 37.2C104.747 37.68 105.093 38.5067 105.36 39.68C105.787 39.4667 106.267 39.36 106.8 39.36C107.227 39.36 107.547 39.4667 107.76 39.68V39.44C107.76 38.5867 108 37.84 108.48 37.2ZM143.04 66.48C142.4 65.68 141.307 64.0267 139.76 61.52H117.44C117.973 62.5867 118.747 64.24 119.76 66.48H143.04ZM94.08 27.28C93.3333 27.28 92.64 26.72 92 25.6C91.6267 26.4 91.04 26.96 90.24 27.28C90.56 27.92 90.72 28.5067 90.72 29.04C90.72 29.3067 90.6933 29.5467 90.64 29.76C90.96 29.3333 91.3867 29.12 91.92 29.12C92.08 29.12 92.32 29.1733 92.64 29.28C93.0133 29.3333 93.28 29.36 93.44 29.36C93.3867 29.2533 93.36 29.12 93.36 28.96C93.36 28.4267 93.6 27.8667 94.08 27.28ZM97.28 32.08C96.5333 31.9733 95.9467 31.52 95.52 30.72C95.2 31.1467 94.5067 31.68 93.44 32.32C94.0267 32.8 94.32 33.5467 94.32 34.56C94.6933 34.4533 95.12 34.4 95.6 34.4C96.1867 34.4 96.6133 34.4267 96.88 34.48V34C96.88 33.2 97.0133 32.56 97.28 32.08ZM101.44 37.2C101.28 37.2533 101.12 37.28 100.96 37.28C100.587 37.28 100.187 37.0667 99.76 36.64C99.3867 36.16 99.12 35.8933 98.96 35.84C98.64 36.64 98.08 37.0933 97.28 37.2C97.92 38.16 98.16 38.9867 98 39.68C98.1067 39.4667 98.4267 39.36 98.96 39.36C99.44 39.36 99.92 39.4667 100.4 39.68C100.453 38.6133 100.8 37.7867 101.44 37.2ZM94.08 37.2C93.3333 37.1467 92.64 36.6933 92 35.84L90.24 37.6C90.6667 38.0267 90.88 38.5067 90.88 39.04C90.88 39.2533 90.8533 39.4667 90.8 39.68C91.0667 39.4667 91.4667 39.36 92 39.36C92.7467 39.36 93.2 39.4667 93.36 39.68V39.44C93.36 38.5867 93.6 37.84 94.08 37.2ZM110.32 56.24V51.28H90.32V56.24H110.32ZM110.32 66.48V61.52H90.32V66.48H110.32ZM119.44 28C119.333 24.6933 116.88 23.04 112.08 23.04V33.04C117.093 33.04 119.547 31.36 119.44 28ZM211.444 75.2H208.884C208.564 75.7867 208.458 76.9333 208.564 78.64H157.844V3.84H160.404C160.618 3.25333 160.724 2.10667 160.724 0.399999H210.804V28.08H209.364V47.12C209.738 47.5467 210.431 47.76 211.444 47.76V75.2ZM209.844 73.52V49.36C208.778 49.36 208.084 49.2533 207.764 49.04V27.6C208.671 27.5467 209.124 27.1467 209.124 26.4V2.16H162.324V73.52H209.844ZM206.964 70.64H165.364V4.88H206.324V23.6H188.164V28.64H204.724V46.64H188.164V52H206.964V70.64ZM205.364 15.12V10H194.644V15.12H205.364ZM192.964 7.44C192.111 7.44 191.418 6.98666 190.884 6.08C190.298 6.82666 189.604 7.28 188.804 7.44C189.284 8.88 189.524 9.68 189.524 9.84C189.898 9.78666 190.351 9.76 190.884 9.76C191.311 9.76 191.658 9.81333 191.924 9.92C191.871 9.17333 192.218 8.34666 192.964 7.44ZM205.444 22.32C205.444 21.4133 205.311 20.8 205.044 20.48H194.644V22.4L203.524 22.56C204.644 22.56 205.284 22.48 205.444 22.32ZM185.924 7.44C185.391 7.44 184.564 6.98666 183.444 6.08C183.178 6.82666 182.618 7.28 181.764 7.44C181.978 7.97333 182.218 8.8 182.484 9.92C182.911 9.81333 183.391 9.76 183.924 9.76C184.351 9.76 184.671 9.81333 184.884 9.92C184.831 9.17333 185.178 8.34666 185.924 7.44ZM188.804 12.72C188.644 12.7733 188.484 12.8 188.324 12.8C187.791 12.8 187.364 12.2667 187.044 11.2C186.991 12.32 186.298 12.7733 184.964 12.56C185.658 12.8267 185.951 13.6533 185.844 15.04C186.111 14.8267 186.511 14.72 187.044 14.72C187.791 14.72 188.244 14.8267 188.404 15.04C188.298 14.6667 188.244 14.2933 188.244 13.92C188.244 13.2267 188.431 12.8267 188.804 12.72ZM192.644 17.36C191.898 17.2533 191.311 16.8 190.884 16C190.298 16.7467 189.604 17.2 188.804 17.36C189.284 18.8533 189.524 19.68 189.524 19.84C189.738 19.7333 190.164 19.68 190.804 19.68C191.338 19.68 191.711 19.7333 191.924 19.84V19.6C191.924 19.0667 192.164 18.32 192.644 17.36ZM178.564 7.44C177.764 7.38667 177.044 6.93333 176.404 6.08C176.404 7.2 175.738 7.65333 174.404 7.44C175.098 8.34666 175.444 9.17333 175.444 9.92C175.711 9.76 176.111 9.68 176.644 9.68C177.231 9.68 177.631 9.76 177.844 9.92C177.791 9.70666 177.764 9.49333 177.764 9.28C177.764 9.12 178.031 8.50666 178.564 7.44ZM182.084 12.56C181.231 12.56 180.538 12.1067 180.004 11.2C179.418 11.9467 178.724 12.4 177.924 12.56C178.404 13.2533 178.644 14.08 178.644 15.04C179.071 14.9333 179.524 14.88 180.004 14.88C180.431 14.88 180.778 14.9333 181.044 15.04C180.991 14.2933 181.338 13.4667 182.084 12.56ZM203.764 35.92V30.8H194.644V35.92H203.764ZM185.604 17.36C184.858 17.3067 184.164 16.8533 183.524 16C183.204 16.7467 182.618 17.2 181.764 17.36C182.244 18.8533 182.484 19.68 182.484 19.84C182.698 19.7333 183.044 19.68 183.524 19.68C184.111 19.68 184.564 19.7067 184.884 19.76V19.6C184.884 19.0667 185.124 18.32 185.604 17.36ZM189.124 22.64L187.204 21.76C186.404 22.2933 185.658 22.56 184.964 22.56C185.498 22.7733 185.764 23.2533 185.764 24C185.764 24.32 185.711 24.6133 185.604 24.88C185.978 24.7733 186.484 24.6667 187.124 24.56C187.124 23.4933 187.231 22.8533 187.444 22.64H189.124ZM171.204 7.6C171.044 7.65333 170.884 7.68 170.724 7.68C170.191 7.68 169.764 7.14666 169.444 6.08C169.391 7.2 168.698 7.65333 167.364 7.44C168.058 8.29333 168.404 9.12 168.404 9.92C168.724 9.76 169.124 9.68 169.604 9.68C170.298 9.68 170.698 9.76 170.804 9.92C170.698 9.54666 170.644 9.2 170.644 8.88C170.644 8.13333 170.831 7.70667 171.204 7.6ZM174.724 12.56C174.618 12.56 173.898 12.1067 172.564 11.2C172.298 11.9467 171.738 12.4 170.884 12.56C171.364 14 171.604 14.8 171.604 14.96C172.031 14.8 172.591 14.72 173.284 14.72C173.658 14.72 173.898 14.7733 174.004 14.88C173.951 14.72 173.924 14.56 173.924 14.4C173.924 13.8133 174.191 13.2 174.724 12.56ZM178.564 17.36C177.818 17.3067 177.124 16.8533 176.484 16C176.218 16.64 175.631 17.0933 174.724 17.36C175.204 18.3733 175.444 19.2 175.444 19.84C175.711 19.7333 176.111 19.68 176.644 19.68C177.231 19.68 177.631 19.7333 177.844 19.84C177.791 19.5733 177.764 19.3333 177.764 19.12C177.818 18.8533 178.084 18.2667 178.564 17.36ZM182.084 22.48C181.231 22.48 180.538 22.0267 180.004 21.12C179.258 22.1333 178.591 22.5867 178.004 22.48C178.431 23.92 178.644 24.72 178.644 24.88C179.018 24.8267 179.471 24.8 180.004 24.8C180.431 24.8 180.778 24.8533 181.044 24.96C180.991 24.2133 181.338 23.3867 182.084 22.48ZM185.604 27.28C184.911 27.28 184.218 26.9333 183.524 26.24C182.938 27.04 182.378 27.3867 181.844 27.28C182.271 28.9333 182.484 29.8667 182.484 30.08C182.858 29.6533 183.498 29.4933 184.404 29.6C184.724 29.0667 185.124 28.2933 185.604 27.28ZM189.124 32.4L187.204 31.68C187.044 31.68 186.751 31.8133 186.324 32.08C185.898 32.2933 185.551 32.4 185.284 32.4C185.818 33.4667 186.004 34.2667 185.844 34.8C186.164 34.6933 186.618 34.64 187.204 34.64C187.898 34.64 188.298 34.72 188.404 34.88C188.351 34.6667 188.324 34.4533 188.324 34.24C188.324 33.5467 188.591 32.9333 189.124 32.4ZM167.444 12.56H166.964L166.484 14.96H166.964L167.444 12.56ZM192.964 37.52C192.271 37.52 191.471 37.0667 190.564 36.16C190.244 36.9067 189.658 37.36 188.804 37.52C189.444 38.48 189.684 39.3067 189.524 40C189.631 39.7867 189.951 39.68 190.484 39.68C190.964 39.68 191.444 39.7867 191.924 40C191.978 38.9333 192.324 38.1067 192.964 37.52ZM171.524 17.36C170.671 17.36 169.978 16.9067 169.444 16C169.178 16.64 168.591 17.0933 167.684 17.36C168.218 18.3733 168.458 19.2 168.404 19.84C168.724 19.68 169.124 19.6 169.604 19.6C170.298 19.6 170.698 19.68 170.804 19.84C170.751 19.6267 170.724 19.4133 170.724 19.2C170.778 18.9867 171.044 18.3733 171.524 17.36ZM174.724 22.48C174.618 22.48 173.898 22.0267 172.564 21.12C172.298 21.8667 171.738 22.32 170.884 22.48C171.098 23.0133 171.338 23.84 171.604 24.96C172.351 24.8 172.964 24.72 173.444 24.72C173.711 24.72 173.898 24.7467 174.004 24.8C173.951 23.7867 174.191 23.0133 174.724 22.48ZM178.564 27.28C178.351 27.3333 178.164 27.36 178.004 27.36C177.311 27.36 176.804 26.88 176.484 25.92C176.164 26.6667 175.578 27.12 174.724 27.28C175.204 28.2933 175.444 29.12 175.444 29.76C175.658 29.6533 175.924 29.6 176.244 29.6C176.938 29.6 177.471 29.7067 177.844 29.92V29.76C177.844 28.8 178.084 27.9733 178.564 27.28ZM181.764 32.4C181.018 32.2933 180.431 31.84 180.004 31.04C179.258 32.0533 178.591 32.5067 178.004 32.4C178.431 33.84 178.644 34.6667 178.644 34.88C178.858 34.7733 179.284 34.72 179.924 34.72C180.458 34.72 180.831 34.7733 181.044 34.88V34.64C181.044 34.1067 181.284 33.36 181.764 32.4ZM185.924 37.52C185.231 37.52 184.431 37.0667 183.524 36.16C183.044 37.0667 182.458 37.52 181.764 37.52C182.404 38.48 182.644 39.28 182.484 39.92C182.804 39.76 183.204 39.68 183.684 39.68C184.164 39.68 184.564 39.7867 184.884 40C184.938 38.9333 185.284 38.1067 185.924 37.52ZM166.804 24.88V22.48H166.244V24.88H166.804ZM171.524 27.68C170.511 27.1467 169.818 26.56 169.444 25.92C169.391 26.6133 168.698 27.2 167.364 27.68C167.951 28.16 168.244 28.8533 168.244 29.76C168.458 29.6533 168.698 29.6 168.964 29.6C169.978 29.6 170.591 29.76 170.804 30.08C170.751 29.92 170.724 29.76 170.724 29.6C170.724 28.8533 170.991 28.2133 171.524 27.68ZM203.684 45.76V41.04H166.484V46.4H186.804C186.804 45.9733 187.044 45.76 187.524 45.76H203.684ZM174.724 32.4C174.618 32.4 173.898 31.9467 172.564 31.04C172.298 31.7867 171.738 32.24 170.884 32.4C171.364 34.32 171.604 35.1467 171.604 34.88C171.818 34.7733 172.191 34.72 172.724 34.72C173.258 34.72 173.684 34.7733 174.004 34.88V34.72C174.004 33.7067 174.244 32.9333 174.724 32.4ZM178.564 37.52C178.031 37.4667 177.338 37.0133 176.484 36.16C175.791 37.12 175.098 37.6 174.404 37.6C175.098 37.7067 175.444 38.48 175.444 39.92V40C175.818 39.7867 176.244 39.68 176.724 39.68C177.151 39.68 177.524 39.7867 177.844 40C177.844 38.9867 178.084 38.16 178.564 37.52ZM166.804 34.8V32.4H166.244V34.8H166.804ZM206.004 56.48V53.12H187.444C187.018 52.7467 186.804 52.1333 186.804 51.28H166.484V56.48H206.004ZM171.524 37.52C170.778 37.4667 170.084 37.0133 169.444 36.16C168.804 36.96 168.111 37.44 167.364 37.6C168.058 37.7067 168.404 38.4533 168.404 39.84V40C168.884 39.7333 169.364 39.6 169.844 39.6C170.324 39.6 170.644 39.7333 170.804 40C170.644 39.7333 170.564 39.4667 170.564 39.2C170.564 38.8267 170.884 38.2667 171.524 37.52ZM206.004 64.16C206.004 63.2 205.924 62.3467 205.764 61.6H166.484V66.8H205.764C205.924 66 206.004 65.12 206.004 64.16ZM296.003 75.12C295.47 74.96 294.403 74.88 292.803 74.88C292.75 75.04 292.723 75.2533 292.723 75.52C292.723 76.2133 292.99 77.1467 293.523 78.32H259.603C259.816 77.68 259.923 77.0133 259.923 76.32C259.923 74.72 259.363 73.2533 258.243 71.92C257.123 70.5867 255.763 69.92 254.163 69.92C251.87 69.92 250.67 71.5467 250.563 74.8C248.856 74.7467 247.896 75.92 247.683 78.32H214.163L237.603 3.84C238.563 3.84 239.31 3.49333 239.843 2.8C240.003 2.53333 240.323 1.70666 240.803 0.319995H271.683L296.003 75.12ZM293.843 73.2L270.403 2.08H241.763L219.283 73.2H249.283L251.203 65.28H261.603C262.083 66.5067 262.83 69.1467 263.843 73.2H293.843ZM290.003 70.32H266.083C265.656 68.56 264.91 65.92 263.843 62.4H248.963C248.056 64.8 247.416 67.44 247.043 70.32H223.123L244.003 4.8H268.483L290.003 70.32ZM270.803 15.28C270.056 13.4133 269.496 11.6533 269.123 10H261.923V15.28H270.803ZM260.243 7.44C260.03 7.49333 259.843 7.52 259.683 7.52C258.99 7.52 258.483 7.04 258.163 6.08C258.11 7.2 257.416 7.65333 256.083 7.44C256.776 8.34666 257.123 9.17333 257.123 9.92C257.39 9.76 257.79 9.68 258.323 9.68C258.91 9.68 259.31 9.76 259.523 9.92V9.6C259.523 8.74666 259.763 8.02666 260.243 7.44ZM274.003 25.52C273.736 24.24 273.176 22.56 272.323 20.48H261.923V25.52H274.003ZM253.203 7.52C252.403 7.52 251.71 7.04 251.123 6.08C250.323 7.14666 249.63 7.6 249.043 7.44C249.736 7.76 250.03 8.58666 249.923 9.92C250.19 9.70666 250.59 9.6 251.123 9.6C251.87 9.6 252.323 9.70666 252.483 9.92C252.43 9.76 252.403 9.57333 252.403 9.36C252.403 8.34666 252.67 7.73333 253.203 7.52ZM256.403 12.64C256.03 12.5333 255.63 12.2933 255.203 11.92C254.776 11.5467 254.456 11.3067 254.243 11.2C253.976 11.8933 253.416 12.3733 252.563 12.64C253.15 13.2267 253.39 14.0267 253.283 15.04C253.71 14.7733 254.216 14.64 254.803 14.64C255.23 14.64 255.523 14.72 255.683 14.88C255.63 14.6133 255.603 14.4 255.603 14.24C255.603 13.44 255.87 12.9067 256.403 12.64ZM260.243 17.36C260.03 17.4133 259.843 17.44 259.683 17.44C258.99 17.44 258.483 16.96 258.163 16C258.11 17.12 257.416 17.5733 256.083 17.36C256.776 17.6267 257.07 18.4533 256.963 19.84C257.176 19.7333 257.55 19.68 258.083 19.68C258.776 19.68 259.256 19.7333 259.523 19.84V19.52C259.523 18.6667 259.763 17.9467 260.243 17.36ZM246.163 7.44H244.323C244.163 7.65333 244.083 7.89333 244.083 8.16C244.083 8.64 244.43 9.22666 245.123 9.92V9.84C245.123 9.09333 245.47 8.29333 246.163 7.44ZM277.523 35.76L275.843 30.72H261.923V35.76H277.523ZM249.363 12.64C248.83 12.5333 248.136 12.0533 247.283 11.2C246.75 12 246.056 12.48 245.203 12.64C245.95 12.96 246.35 13.52 246.403 14.32C246.616 14.32 247.363 14.5067 248.643 14.88V14.16C248.643 13.4133 248.883 12.9067 249.363 12.64ZM252.883 17.52C252.723 17.5733 252.563 17.6 252.403 17.6C251.87 17.6 251.443 17.0667 251.123 16C251.07 17.12 250.376 17.5733 249.043 17.36C249.736 17.6267 250.03 18.4533 249.923 19.84C250.19 19.6267 250.59 19.52 251.123 19.52C251.87 19.52 252.323 19.6267 252.483 19.84C252.376 19.4667 252.323 19.0933 252.323 18.72C252.323 18.0267 252.51 17.6267 252.883 17.52ZM256.403 22.56C255.923 22.4533 255.523 22.2667 255.203 22C254.67 21.4667 254.35 21.1733 254.243 21.12C254.19 22.24 253.523 22.6933 252.243 22.48C252.99 22.8 253.363 23.3867 253.363 24.24C253.95 24.3467 254.723 24.5333 255.683 24.8V24.08C255.683 23.3333 255.923 22.8267 256.403 22.56ZM260.243 27.28L258.323 26.56C257.79 26.6133 257.523 26.8533 257.523 27.28C257.523 28.4 258.19 29.2267 259.523 29.76C259.47 29.5467 259.443 29.3333 259.443 29.12C259.443 28.7467 259.55 28.4267 259.763 28.16C260.03 27.68 260.19 27.3867 260.243 27.28ZM281.043 46C280.19 43.92 279.63 42.2667 279.363 41.04H260.243L261.283 46H281.043ZM246.163 17.44C245.363 17.44 244.67 16.96 244.083 16C243.283 17.0667 242.59 17.52 242.003 17.36C242.696 17.68 242.99 18.5067 242.883 19.84C243.256 19.6267 243.683 19.52 244.163 19.52C244.803 19.52 245.23 19.6267 245.443 19.84C245.39 19.68 245.363 19.4667 245.363 19.2C245.363 18.1867 245.63 17.6 246.163 17.44ZM249.363 22.48C248.616 22.4267 247.896 21.9733 247.203 21.12C247.203 22.24 246.643 22.72 245.523 22.56C246.11 22.72 246.403 23.12 246.403 23.76C246.403 23.8667 246.376 24.0533 246.323 24.32C246.27 24.5867 246.243 24.7733 246.243 24.88V24.96C246.67 24.7467 247.15 24.64 247.683 24.64C248.163 24.64 248.483 24.7467 248.643 24.96V24.72C248.643 23.8667 248.883 23.12 249.363 22.48ZM253.203 27.36C252.35 27.36 251.63 26.88 251.043 25.92C251.043 27.04 250.376 27.4933 249.043 27.28C249.736 27.5467 250.03 28.3733 249.923 29.76C250.243 29.6 250.696 29.52 251.283 29.52C251.976 29.52 252.376 29.6 252.483 29.76C252.43 29.6 252.403 29.4133 252.403 29.2C252.403 28.1333 252.67 27.52 253.203 27.36ZM254.323 31.84V31.04C254.27 32.16 253.576 32.6133 252.243 32.4C252.67 32.6133 253.123 33.0133 253.603 33.6C254.083 33.6 254.323 33.0133 254.323 31.84ZM260.243 46C259.336 42.1067 258.11 36.2667 256.563 28.48L252.883 46H260.243ZM242.323 22.48C241.576 22.4267 240.883 21.9733 240.243 21.12C239.55 22.4533 239.203 23.7067 239.203 24.88V24.96C239.47 24.7467 239.843 24.64 240.323 24.64C241.016 24.64 241.443 24.7467 241.603 24.96L241.523 24.72C241.523 23.92 241.79 23.1733 242.323 22.48ZM246.163 27.28C245.31 27.28 244.616 26.8267 244.083 25.92C243.336 26.9333 242.67 27.3867 242.083 27.28C242.51 28.72 242.723 29.52 242.723 29.68C243.096 29.6267 243.55 29.6 244.083 29.6C244.51 29.6 244.856 29.6533 245.123 29.76C245.07 29.0133 245.416 28.1867 246.163 27.28ZM249.363 32.4C249.256 32.4 248.536 31.9467 247.203 31.04C247.15 32.16 246.483 32.6133 245.203 32.4C245.95 32.72 246.323 33.3067 246.323 34.16C246.91 34.2667 247.683 34.5067 248.643 34.88V34.64C248.643 33.7867 248.883 33.04 249.363 32.4ZM253.203 37.28C252.35 37.28 251.63 36.8 251.043 35.84C251.043 36.96 250.376 37.4133 249.043 37.2C249.736 37.4667 250.03 38.2933 249.923 39.68C250.243 39.52 250.696 39.44 251.283 39.44C251.976 39.44 252.376 39.52 252.483 39.68C252.43 39.52 252.403 39.3333 252.403 39.12C252.403 38.0533 252.67 37.44 253.203 37.28ZM287.763 66.48C286.91 64.4 286.35 62.7467 286.083 61.52H265.043C265.31 62.64 265.763 64.2933 266.403 66.48H287.763ZM238.723 27.28H238.243L237.763 29.68H238.243L238.723 27.28ZM242.323 32.4C241.576 32.3467 240.856 31.8933 240.163 31.04C240.163 32.16 239.496 32.6133 238.163 32.4C238.856 33.2533 239.203 34.08 239.203 34.88C239.63 34.6133 240.083 34.48 240.563 34.48C241.043 34.48 241.39 34.6133 241.603 34.88V34.64C241.603 33.7867 241.843 33.04 242.323 32.4ZM246.163 37.2C245.31 37.2 244.616 36.7467 244.083 35.84C243.496 36.5867 242.803 37.04 242.003 37.2C242.483 37.8933 242.723 38.72 242.723 39.68C243.15 39.5733 243.603 39.52 244.083 39.52C244.51 39.52 244.856 39.5733 245.123 39.68C245.07 38.9333 245.416 38.1067 246.163 37.2ZM284.243 56.24L282.563 51.2H230.243C229.976 52.5867 229.416 54.2667 228.563 56.24H284.243ZM238.803 37.2C238.056 37.0933 237.47 36.64 237.043 35.84C236.456 36.5867 235.763 37.04 234.963 37.2C235.443 38.64 235.683 39.44 235.683 39.6C236.056 39.5467 236.51 39.52 237.043 39.52C237.47 39.52 237.816 39.5733 238.083 39.68V39.52C238.083 38.9867 238.323 38.2133 238.803 37.2ZM252.243 42.8C252.243 42.0533 252.163 41.44 252.003 40.96H233.763C233.016 42.8267 232.456 44.4533 232.083 45.84H252.003C252.163 44.08 252.243 43.0667 252.243 42.8ZM247.763 61.52H227.043C226.723 62.64 226.163 64.2933 225.363 66.48H246.723L247.763 61.52ZM357.275 31.6H354.075V34.8C353.222 34.9067 352.208 34.96 351.035 34.96C350.342 34.96 349.995 34.96 349.995 34.96C348.822 34.9067 348.288 34.88 348.395 34.88H345.115V75.52H342.235C341.915 76.1067 341.808 77.2533 341.915 78.96H310.075V35.12C308.902 35.0667 307.595 35.04 306.155 35.04C305.035 35.04 304.475 35.04 304.475 35.04C302.608 35.0933 301.782 35.12 301.995 35.12H297.915V3.84C298.448 4 298.928 4.08 299.355 4.08C301.008 4.08 301.702 2.74667 301.435 0.079998H357.275V31.6ZM355.675 29.44V2H303.035V29.84L310.555 29.6C311.888 29.5467 313.435 29.6267 315.195 29.84V73.84H343.755V29.44H345.035C345.888 29.44 347.142 29.4933 348.795 29.6C350.448 29.6533 351.702 29.68 352.555 29.68C353.835 29.68 354.875 29.6 355.675 29.44ZM352.875 26.16C352.395 26.5867 351.382 26.8 349.835 26.8C348.875 26.8 347.435 26.72 345.515 26.56C343.648 26.3467 342.235 26.24 341.275 26.24C341.168 26.1333 341.062 26.08 340.955 26.08C340.795 26.08 340.715 26.24 340.715 26.56V70.96H317.995V26.8C317.088 26.5333 315.915 26.4 314.475 26.4C313.515 26.4 312.102 26.48 310.235 26.64C308.422 26.7467 307.035 26.8 306.075 26.8H305.915V4.88H352.875V26.16ZM351.515 14.4V9.36H336.795C336.688 10.16 336.635 10.9867 336.635 11.84C336.635 12.7467 336.688 13.6 336.795 14.4H351.515ZM334.955 6.48C334.795 6.48 334.582 6.45333 334.315 6.4C334.048 6.29333 333.862 6.24 333.755 6.24C333.648 6.24 333.488 6.26666 333.275 6.32C333.062 6.37333 332.928 6.4 332.875 6.4H331.115C331.595 8.42666 331.835 9.28 331.835 8.96C332.048 8.85333 332.502 8.8 333.195 8.8C333.675 8.8 334.022 8.85333 334.235 8.96V8.72C334.235 7.70666 334.475 6.96 334.955 6.48ZM351.515 24.88V19.6H336.955C336.795 20.4 336.715 21.28 336.715 22.24C336.715 23.2533 336.795 24.1333 336.955 24.88H351.515ZM327.915 6.48H324.075C324.555 7.44 324.795 8.26666 324.795 8.96C325.008 8.85333 325.275 8.8 325.595 8.8C326.342 8.8 326.875 8.90666 327.195 9.12C327.142 8.8 327.115 8.53333 327.115 8.32C327.115 8.16 327.382 7.54666 327.915 6.48ZM331.435 11.68C330.635 11.68 329.942 11.2 329.355 10.24C329.035 10.6667 328.342 11.2 327.275 11.84C327.862 12.32 328.155 13.0667 328.155 14.08C328.528 13.92 328.982 13.84 329.515 13.84C330.208 13.84 330.608 13.92 330.715 14.08C330.662 13.92 330.635 13.7333 330.635 13.52C330.635 12.5067 330.902 11.8933 331.435 11.68ZM334.955 16.72C333.835 16.1867 333.275 15.6267 333.275 15.04C332.795 15.7333 332.075 16.2933 331.115 16.72C331.702 17.68 331.942 18.48 331.835 19.12C332.155 18.96 332.555 18.88 333.035 18.88C333.515 18.88 333.915 18.9867 334.235 19.2C334.235 18.3467 334.475 17.52 334.955 16.72ZM320.875 6.48C320.715 6.48 320.448 6.45333 320.075 6.4C319.702 6.29333 319.435 6.24 319.275 6.24C319.062 6.24 318.795 6.29333 318.475 6.4H316.715C317.195 8.37333 317.435 9.22666 317.435 8.96C317.808 8.85333 318.208 8.8 318.635 8.8H319.435C319.755 8.85333 320.022 8.88 320.235 8.88C320.128 8.66667 320.075 8.45333 320.075 8.24C320.128 8.02666 320.395 7.44 320.875 6.48ZM324.075 11.6C323.968 11.6 323.248 11.1467 321.915 10.24C321.648 10.9867 321.088 11.44 320.235 11.6C320.448 12.1333 320.688 12.96 320.955 14.08C321.168 13.9733 321.542 13.92 322.075 13.92C322.662 13.92 323.088 13.9733 323.355 14.08V13.92C323.355 12.9067 323.595 12.1333 324.075 11.6ZM327.915 16.8C326.902 16.64 326.208 16.0533 325.835 15.04C325.408 16 324.715 16.5867 323.755 16.8C324.448 16.9067 324.795 17.6533 324.795 19.04V19.2C325.275 18.9867 325.782 18.88 326.315 18.88C326.742 18.88 327.035 18.9333 327.195 19.04C327.142 18.7733 327.115 18.56 327.115 18.4C327.115 17.6 327.382 17.0667 327.915 16.8ZM331.435 21.84C331.115 21.84 330.715 21.6533 330.235 21.28C329.755 20.8533 329.462 20.48 329.355 20.16C329.302 21.0667 328.608 21.6267 327.275 21.84C327.755 22.5867 327.995 23.4133 327.995 24.32C328.155 24.1067 328.475 24 328.955 24C329.435 24 329.915 24.1067 330.395 24.32C330.662 23.0933 331.008 22.2667 331.435 21.84ZM335.275 26.64C334.422 26.64 333.728 26.1867 333.195 25.28C332.608 26.0267 331.915 26.48 331.115 26.64C331.595 28.08 331.835 28.88 331.835 29.04C332.208 28.9867 332.662 28.96 333.195 28.96C333.622 28.96 333.968 29.0133 334.235 29.12C334.182 28.3733 334.528 27.5467 335.275 26.64ZM339.595 32.48C339.595 31.4667 339.515 30.56 339.355 29.76C339.195 29.76 338.928 29.7867 338.555 29.84C338.182 29.8933 337.915 29.92 337.755 29.92C337.435 29.92 337.168 29.8667 336.955 29.76C336.848 30.2933 336.795 30.96 336.795 31.76C336.795 32.1333 336.822 32.6933 336.875 33.44C336.928 34.1867 336.955 34.7467 336.955 35.12H339.355C339.515 34.3733 339.595 33.4933 339.595 32.48ZM313.515 6.48H309.675C310.155 7.97333 310.395 8.8 310.395 8.96C310.662 8.85333 311.035 8.8 311.515 8.8C312.155 8.8 312.582 8.85333 312.795 8.96V8.8C312.795 7.78666 313.035 7.01333 313.515 6.48ZM317.035 11.6L315.115 10.88C314.315 11.4133 313.568 11.68 312.875 11.68C313.568 11.9467 313.862 12.7467 313.755 14.08C314.075 13.92 314.528 13.84 315.115 13.84C315.808 13.84 316.208 13.92 316.315 14.08C316.262 13.8667 316.235 13.6533 316.235 13.44C316.235 12.7467 316.502 12.1333 317.035 11.6ZM320.875 16.72C320.022 16.5067 319.302 15.9467 318.715 15.04C318.715 15.84 318.048 16.4 316.715 16.72C317.302 17.68 317.542 18.5067 317.435 19.2C317.755 18.7733 318.182 18.56 318.715 18.56C318.875 18.56 319.115 18.6133 319.435 18.72C319.808 18.7733 320.075 18.8 320.235 18.8C320.182 18.6933 320.155 18.56 320.155 18.4C320.155 17.8667 320.395 17.3067 320.875 16.72ZM324.075 21.84C323.542 21.7333 323.142 21.5467 322.875 21.28C322.288 20.8 321.968 20.5333 321.915 20.48C321.648 21.1733 321.088 21.6267 320.235 21.84C320.875 22.8533 321.115 23.6533 320.955 24.24C321.275 24.08 321.675 24 322.155 24C322.635 24 323.035 24.1067 323.355 24.32C323.355 23.4667 323.595 22.64 324.075 21.84ZM327.915 26.64C327.115 26.5867 326.395 26.1333 325.755 25.28C325.755 26.4 325.088 26.8533 323.755 26.64C324.448 27.5467 324.795 28.3733 324.795 29.12C325.062 28.96 325.462 28.88 325.995 28.88C326.582 28.88 326.982 28.96 327.195 29.12C327.142 28.9067 327.115 28.6933 327.115 28.48C327.115 28.32 327.382 27.7067 327.915 26.64ZM331.435 31.84C330.742 31.7867 330.048 31.3067 329.355 30.4C328.768 31.1467 328.075 31.6 327.275 31.76C327.755 32.4533 327.995 33.28 327.995 34.24C328.528 34.08 329.035 34 329.515 34C330.048 34 330.448 34.08 330.715 34.24C330.662 34.0267 330.635 33.8133 330.635 33.6C330.635 32.5867 330.902 32 331.435 31.84ZM309.995 11.6C309.835 11.6533 309.675 11.68 309.515 11.68C309.142 11.68 308.742 11.4667 308.315 11.04C307.888 10.56 307.622 10.2933 307.515 10.24C307.088 11.5733 306.875 12.7467 306.875 13.76C307.035 13.6533 307.248 13.6 307.515 13.6C308.102 13.6 308.582 13.76 308.955 14.08V14C308.955 13.1467 309.302 12.3467 309.995 11.6ZM334.955 36.56C334.208 36.4533 333.622 36 333.195 35.2C332.608 35.9467 331.915 36.4 331.115 36.56C331.382 37.1467 331.622 37.9733 331.835 39.04C332.048 38.9333 332.502 38.88 333.195 38.88C333.675 38.88 334.022 38.9333 334.235 39.04V38.8C334.235 38.2667 334.475 37.52 334.955 36.56ZM313.515 16.72C312.555 16.2933 311.862 15.84 311.435 15.36C311.168 15.8933 310.582 16.3467 309.675 16.72C310.315 17.7333 310.555 18.5333 310.395 19.12C310.715 18.96 311.115 18.88 311.595 18.88C312.075 18.88 312.475 18.9867 312.795 19.2C312.795 18.3467 313.035 17.52 313.515 16.72ZM317.035 21.84C316.715 21.84 316.315 21.6533 315.835 21.28C315.355 20.8533 315.062 20.48 314.955 20.16C314.902 21.0667 314.208 21.6267 312.875 21.84C313.728 22.64 314.075 23.3333 313.915 23.92C314.235 23.76 314.662 23.68 315.195 23.68C315.675 23.68 315.995 23.7867 316.155 24C315.995 23.7867 315.915 23.5733 315.915 23.36C315.915 23.2 316.288 22.6933 317.035 21.84ZM320.875 26.64C319.915 26.64 319.302 26.5067 319.035 26.24C319.035 27.4133 319.222 28.32 319.595 28.96C319.968 27.8933 320.395 27.12 320.875 26.64ZM324.075 31.84C323.488 31.7333 323.062 31.52 322.795 31.2C322.368 30.7733 322.075 30.5067 321.915 30.4C321.648 31.0933 321.088 31.5467 320.235 31.76C320.822 32.6667 321.062 33.4667 320.955 34.16C321.382 34 321.942 33.92 322.635 33.92C323.008 33.92 323.248 33.9733 323.355 34.08C323.302 33.8667 323.275 33.6533 323.275 33.44C323.275 32.6933 323.542 32.16 324.075 31.84ZM327.915 36.56C327.168 36.5067 326.475 36.0533 325.835 35.2C325.568 35.84 324.982 36.2933 324.075 36.56C324.555 37.5733 324.795 38.4 324.795 39.04C325.062 38.9333 325.462 38.88 325.995 38.88C326.582 38.88 326.982 38.9333 327.195 39.04C327.142 38.7733 327.115 38.5333 327.115 38.32C327.168 38.0533 327.435 37.4667 327.915 36.56ZM339.675 45.6V40.56H319.035V45.6H339.675ZM309.675 21.84C309.355 21.84 308.982 21.6533 308.555 21.28C308.182 20.8533 307.995 20.48 307.995 20.16C307.248 21.0133 306.875 22.2133 306.875 23.76V24C307.302 23.84 307.622 23.76 307.835 23.76C308.262 23.76 308.635 23.9467 308.955 24.32C308.955 23.4667 309.195 22.64 309.675 21.84ZM320.875 36.96C320.395 36.8 319.782 36.5333 319.035 36.16C319.035 37.3333 319.222 38.24 319.595 38.88C319.968 37.8667 320.395 37.2267 320.875 36.96ZM339.675 53.6V52.88C339.675 52.1333 339.622 51.3867 339.515 50.64H319.035V55.92H339.515C339.622 55.1733 339.675 54.4 339.675 53.6ZM339.675 66.16V61.2H319.035V66.16H339.675Z" fill="#BF0A30"/>
</svg>
